<?xml version="1.0" encoding="UTF-8"?>
<!DOCTYPE svg PUBLIC "-//W3C//DTD SVG 1.1//EN" "http://www.w3.org/Graphics/SVG/1.1/DTD/svg11.dtd">
<svg width="344mm" height="58mm" viewBox="0 0 34400 5800" version="1.1" xmlns="http://www.w3.org/2000/svg" xmlns:xlink="http://www.w3.org/1999/xlink" stroke-width="28.222" stroke-linejoin="round" xml:space="preserve">
 <path fill="rgb(255,255,255)" stroke="none" d="M 17184,5791 L 0,5791 0,0 34368,0 34368,5791 17184,5791 Z"/>
 <path fill="none" stroke="rgb(179,179,179)" stroke-linejoin="round" d="M 16841,4632 L 8532,4632 8532,115 25150,115 25150,4632 16841,4632 Z"/>
 <path fill="none" stroke="rgb(179,179,179)" stroke-linejoin="round" d="M 8532,114 L 8532,4631"/>
 <path fill="none" stroke="rgb(179,179,179)" stroke-linejoin="round" d="M 10906,114 L 10906,4631"/>
 <path fill="none" stroke="rgb(179,179,179)" stroke-linejoin="round" d="M 13280,114 L 13280,4631"/>
 <path fill="none" stroke="rgb(179,179,179)" stroke-linejoin="round" d="M 15654,114 L 15654,4631"/>
 <path fill="none" stroke="rgb(179,179,179)" stroke-linejoin="round" d="M 18027,114 L 18027,4631"/>
 <path fill="none" stroke="rgb(179,179,179)" stroke-linejoin="round" d="M 20401,114 L 20401,4631"/>
 <path fill="none" stroke="rgb(179,179,179)" stroke-linejoin="round" d="M 22775,114 L 22775,4631"/>
 <path fill="none" stroke="rgb(179,179,179)" stroke-linejoin="round" d="M 25150,114 L 25150,4631"/>
 <path fill="none" stroke="rgb(179,179,179)" stroke-linejoin="round" d="M 8382,4631 L 8532,4631"/>
 <path fill="none" stroke="rgb(179,179,179)" stroke-linejoin="round" d="M 8382,4631 L 8532,4631"/>
 <path fill="none" stroke="rgb(179,179,179)" stroke-linejoin="round" d="M 8382,3501 L 8532,3501"/>
 <path fill="none" stroke="rgb(179,179,179)" stroke-linejoin="round" d="M 8382,3501 L 8532,3501"/>
 <path fill="none" stroke="rgb(179,179,179)" stroke-linejoin="round" d="M 8382,2373 L 8532,2373"/>
 <path fill="none" stroke="rgb(179,179,179)" stroke-linejoin="round" d="M 8382,2373 L 8532,2373"/>
 <path fill="none" stroke="rgb(179,179,179)" stroke-linejoin="round" d="M 8382,1243 L 8532,1243"/>
 <path fill="none" stroke="rgb(179,179,179)" stroke-linejoin="round" d="M 8382,1243 L 8532,1243"/>
 <path fill="none" stroke="rgb(179,179,179)" stroke-linejoin="round" d="M 8382,114 L 8532,114"/>
 <path fill="none" stroke="rgb(179,179,179)" stroke-linejoin="round" d="M 8382,114 L 8532,114"/>
 <path fill="none" stroke="rgb(179,179,179)" stroke-linejoin="round" d="M 8532,4631 L 8532,114"/>
 <path fill="none" stroke="rgb(179,179,179)" stroke-linejoin="round" d="M 8532,4781 L 8532,4631"/>
 <path fill="none" stroke="rgb(179,179,179)" stroke-linejoin="round" d="M 8532,4781 L 8532,4631"/>
 <path fill="none" stroke="rgb(179,179,179)" stroke-linejoin="round" d="M 10906,4781 L 10906,4631"/>
 <path fill="none" stroke="rgb(179,179,179)" stroke-linejoin="round" d="M 10906,4781 L 10906,4631"/>
 <path fill="none" stroke="rgb(179,179,179)" stroke-linejoin="round" d="M 13280,4781 L 13280,4631"/>
 <path fill="none" stroke="rgb(179,179,179)" stroke-linejoin="round" d="M 13280,4781 L 13280,4631"/>
 <path fill="none" stroke="rgb(179,179,179)" stroke-linejoin="round" d="M 15654,4781 L 15654,4631"/>
 <path fill="none" stroke="rgb(179,179,179)" stroke-linejoin="round" d="M 15654,4781 L 15654,4631"/>
 <path fill="none" stroke="rgb(179,179,179)" stroke-linejoin="round" d="M 18027,4781 L 18027,4631"/>
 <path fill="none" stroke="rgb(179,179,179)" stroke-linejoin="round" d="M 18027,4781 L 18027,4631"/>
 <path fill="none" stroke="rgb(179,179,179)" stroke-linejoin="round" d="M 20401,4781 L 20401,4631"/>
 <path fill="none" stroke="rgb(179,179,179)" stroke-linejoin="round" d="M 20401,4781 L 20401,4631"/>
 <path fill="none" stroke="rgb(179,179,179)" stroke-linejoin="round" d="M 22775,4781 L 22775,4631"/>
 <path fill="none" stroke="rgb(179,179,179)" stroke-linejoin="round" d="M 22775,4781 L 22775,4631"/>
 <path fill="none" stroke="rgb(179,179,179)" stroke-linejoin="round" d="M 25150,4781 L 25150,4631"/>
 <path fill="none" stroke="rgb(179,179,179)" stroke-linejoin="round" d="M 25150,4781 L 25150,4631"/>
 <path fill="none" stroke="rgb(179,179,179)" stroke-linejoin="round" d="M 8532,4631 L 25150,4631"/>
 <path fill="rgb(102,102,187)" stroke="none" d="M 8532,961 L 8532,396 16562,396 16562,961 8532,961 Z"/>
 <path fill="rgb(102,102,187)" stroke="none" d="M 8532,2090 L 8532,1525 15689,1525 15689,2090 8532,2090 Z"/>
 <path fill="rgb(102,102,187)" stroke="none" d="M 8532,3219 L 8532,2655 16198,2655 16198,3219 8532,3219 Z"/>
 <path fill="rgb(102,102,187)" stroke="none" d="M 8532,4348 L 8532,3783 23589,3783 23589,4348 8532,4348 Z"/>
 <text class="TextShape"><tspan class="TextParagraph" font-family="Liberation Sans, sans-serif" font-size="706px" font-weight="400"><tspan class="TextPosition" x="688" y="4305"><tspan fill="rgb(0,0,0)" stroke="none">Deutsche Welle English</tspan></tspan></tspan></text>
 <text class="TextShape"><tspan class="TextParagraph" font-family="Liberation Sans, sans-serif" font-size="706px" font-weight="400"><tspan class="TextPosition" x="2302" y="3175"><tspan fill="rgb(0,0,0)" stroke="none">Al Jazeera English</tspan></tspan></tspan></text>
 <text class="TextShape"><tspan class="TextParagraph" font-family="Liberation Sans, sans-serif" font-size="706px" font-weight="400"><tspan class="TextPosition" x="3890" y="2046"><tspan fill="rgb(0,0,0)" stroke="none">Russia Today</tspan></tspan></tspan></text>
 <text class="TextShape"><tspan class="TextParagraph" font-family="Liberation Sans, sans-serif" font-size="706px" font-weight="400"><tspan class="TextPosition" x="6774" y="916"><tspan fill="rgb(0,0,0)" stroke="none">CNN</tspan></tspan></tspan></text>
 <text class="TextShape"><tspan class="TextParagraph" font-family="Liberation Sans, sans-serif" font-size="706px" font-weight="400"><tspan class="TextPosition" x="8333" y="5516"><tspan fill="rgb(0,0,0)" stroke="none">0</tspan></tspan></tspan></text>
 <text class="TextShape"><tspan class="TextParagraph" font-family="Liberation Sans, sans-serif" font-size="706px" font-weight="400"><tspan class="TextPosition" x="10403" y="5516"><tspan fill="rgb(0,0,0)" stroke="none">0.5</tspan></tspan></tspan></text>
 <text class="TextShape"><tspan class="TextParagraph" font-family="Liberation Sans, sans-serif" font-size="706px" font-weight="400"><tspan class="TextPosition" x="13081" y="5516"><tspan fill="rgb(0,0,0)" stroke="none">1</tspan></tspan></tspan></text>
 <text class="TextShape"><tspan class="TextParagraph" font-family="Liberation Sans, sans-serif" font-size="706px" font-weight="400"><tspan class="TextPosition" x="15151" y="5516"><tspan fill="rgb(0,0,0)" stroke="none">1.5</tspan></tspan></tspan></text>
 <text class="TextShape"><tspan class="TextParagraph" font-family="Liberation Sans, sans-serif" font-size="706px" font-weight="400"><tspan class="TextPosition" x="17829" y="5516"><tspan fill="rgb(0,0,0)" stroke="none">2</tspan></tspan></tspan></text>
 <text class="TextShape"><tspan class="TextParagraph" font-family="Liberation Sans, sans-serif" font-size="706px" font-weight="400"><tspan class="TextPosition" x="19899" y="5516"><tspan fill="rgb(0,0,0)" stroke="none">2.5</tspan></tspan></tspan></text>
 <text class="TextShape"><tspan class="TextParagraph" font-family="Liberation Sans, sans-serif" font-size="706px" font-weight="400"><tspan class="TextPosition" x="22577" y="5516"><tspan fill="rgb(0,0,0)" stroke="none">3</tspan></tspan></tspan></text>
 <text class="TextShape"><tspan class="TextParagraph" font-family="Liberation Sans, sans-serif" font-size="706px" font-weight="400"><tspan class="TextPosition" x="24648" y="5516"><tspan fill="rgb(0,0,0)" stroke="none">3.5</tspan></tspan></tspan></text>
 <path fill="rgb(102,102,187)" stroke="none" d="M 26785,3106 L 26573,3106 26573,2684 26996,2684 26996,3106 26785,3106 Z"/>
 <text class="TextShape"><tspan class="TextParagraph" font-family="Liberation Sans, sans-serif" font-size="706px" font-weight="400"><tspan class="TextPosition" x="27151" y="3132"><tspan fill="rgb(0,0,0)" stroke="none">happiness / fear ratio</tspan></tspan></tspan></text>
</svg>