<?xml version="1.0" encoding="UTF-8"?>
<!DOCTYPE svg PUBLIC "-//W3C//DTD SVG 1.1//EN" "http://www.w3.org/Graphics/SVG/1.1/DTD/svg11.dtd">
<svg width="256mm" height="66mm" viewBox="0 0 25600 6600" version="1.1" xmlns="http://www.w3.org/2000/svg" xmlns:xlink="http://www.w3.org/1999/xlink" stroke-width="28.222" stroke-linejoin="round" xml:space="preserve">
 <path fill="rgb(255,255,255)" stroke="none" d="M 12845,6561 L 21,6561 21,0 25669,0 25669,6561 12845,6561 Z"/>
 <path fill="none" stroke="rgb(179,179,179)" stroke-linejoin="round" d="M 8886,5386 L 1789,5386 1789,529 15983,529 15983,5386 8886,5386 Z"/>
 <path fill="none" stroke="rgb(179,179,179)" stroke-linejoin="round" d="M 15983,5385 L 1789,5385"/>
 <path fill="none" stroke="rgb(179,179,179)" stroke-linejoin="round" d="M 15983,4170 L 1789,4170"/>
 <path fill="none" stroke="rgb(179,179,179)" stroke-linejoin="round" d="M 15983,2957 L 1789,2957"/>
 <path fill="none" stroke="rgb(179,179,179)" stroke-linejoin="round" d="M 15983,1742 L 1789,1742"/>
 <path fill="none" stroke="rgb(179,179,179)" stroke-linejoin="round" d="M 15983,528 L 1789,528"/>
 <path fill="none" stroke="rgb(179,179,179)" stroke-linejoin="round" d="M 1789,5535 L 1789,5385"/>
 <path fill="none" stroke="rgb(179,179,179)" stroke-linejoin="round" d="M 1789,5535 L 1789,5385"/>
 <path fill="none" stroke="rgb(179,179,179)" stroke-linejoin="round" d="M 6520,5535 L 6520,5385"/>
 <path fill="none" stroke="rgb(179,179,179)" stroke-linejoin="round" d="M 6520,5535 L 6520,5385"/>
 <path fill="none" stroke="rgb(179,179,179)" stroke-linejoin="round" d="M 11252,5535 L 11252,5385"/>
 <path fill="none" stroke="rgb(179,179,179)" stroke-linejoin="round" d="M 11252,5535 L 11252,5385"/>
 <path fill="none" stroke="rgb(179,179,179)" stroke-linejoin="round" d="M 15983,5535 L 15983,5385"/>
 <path fill="none" stroke="rgb(179,179,179)" stroke-linejoin="round" d="M 15983,5535 L 15983,5385"/>
 <path fill="none" stroke="rgb(179,179,179)" stroke-linejoin="round" d="M 1789,5385 L 15983,5385"/>
 <path fill="none" stroke="rgb(179,179,179)" stroke-linejoin="round" d="M 1639,5385 L 1789,5385"/>
 <path fill="none" stroke="rgb(179,179,179)" stroke-linejoin="round" d="M 1639,5385 L 1789,5385"/>
 <path fill="none" stroke="rgb(179,179,179)" stroke-linejoin="round" d="M 1639,4170 L 1789,4170"/>
 <path fill="none" stroke="rgb(179,179,179)" stroke-linejoin="round" d="M 1639,4170 L 1789,4170"/>
 <path fill="none" stroke="rgb(179,179,179)" stroke-linejoin="round" d="M 1639,2957 L 1789,2957"/>
 <path fill="none" stroke="rgb(179,179,179)" stroke-linejoin="round" d="M 1639,2957 L 1789,2957"/>
 <path fill="none" stroke="rgb(179,179,179)" stroke-linejoin="round" d="M 1639,1742 L 1789,1742"/>
 <path fill="none" stroke="rgb(179,179,179)" stroke-linejoin="round" d="M 1639,1742 L 1789,1742"/>
 <path fill="none" stroke="rgb(179,179,179)" stroke-linejoin="round" d="M 1639,528 L 1789,528"/>
 <path fill="none" stroke="rgb(179,179,179)" stroke-linejoin="round" d="M 1639,528 L 1789,528"/>
 <path fill="none" stroke="rgb(179,179,179)" stroke-linejoin="round" d="M 1789,5385 L 1789,528"/>
 <path fill="none" stroke="rgb(221,102,102)" stroke-width="80" stroke-linejoin="round" d="M 1789,3078 L 6520,1499 11252,1742 15983,1256"/>
 <path fill="rgb(221,102,102)" stroke="none" d="M 1664,2953 L 1664,3203 1914,3203 1914,2953 1664,2953 Z"/>
 <path fill="none" stroke="rgb(221,102,102)" stroke-linejoin="round" d="M 1664,2953 L 1664,3203 1914,3203 1914,2953 1664,2953 Z"/>
 <path fill="rgb(221,102,102)" stroke="none" d="M 6395,1374 L 6395,1624 6645,1624 6645,1374 6395,1374 Z"/>
 <path fill="none" stroke="rgb(221,102,102)" stroke-linejoin="round" d="M 6395,1374 L 6395,1624 6645,1624 6645,1374 6395,1374 Z"/>
 <path fill="rgb(221,102,102)" stroke="none" d="M 11127,1617 L 11127,1867 11377,1867 11377,1617 11127,1617 Z"/>
 <path fill="none" stroke="rgb(221,102,102)" stroke-linejoin="round" d="M 11127,1617 L 11127,1867 11377,1867 11377,1617 11127,1617 Z"/>
 <path fill="rgb(221,102,102)" stroke="none" d="M 15858,1131 L 15858,1381 16108,1381 16108,1131 15858,1131 Z"/>
 <path fill="none" stroke="rgb(221,102,102)" stroke-linejoin="round" d="M 15858,1131 L 15858,1381 16108,1381 16108,1131 15858,1131 Z"/>
 <path fill="none" stroke="rgb(102,102,187)" stroke-width="80" stroke-linejoin="round" d="M 1789,3417 L 6520,3368 11252,3248 15983,3248"/>
 <path fill="rgb(102,102,187)" stroke="none" d="M 1914,3417 L 1913,3412 1913,3406 1912,3401 1912,3395 1911,3390 1909,3385 1908,3379 1906,3374 1904,3369 1902,3364 1899,3359 1897,3355 1894,3350 1891,3345 1888,3341 1884,3337 1881,3333 1877,3329 1873,3325 1869,3321 1865,3318 1860,3315 1856,3312 1851,3309 1846,3306 1841,3304 1836,3302 1831,3300 1826,3298 1821,3296 1816,3295 1810,3294 1805,3293 1799,3292 1794,3292 1789,3292 1783,3292 1778,3292 1772,3293 1767,3294 1761,3295 1756,3296 1751,3298 1746,3300 1741,3302 1736,3304 1731,3306 1726,3309 1721,3312 1717,3315 1712,3318 1708,3321 1704,3325 1700,3329 1696,3333 1693,3337 1689,3341 1686,3345 1683,3350 1680,3355 1678,3359 1675,3364 1673,3369 1671,3374 1669,3379 1668,3385 1666,3390 1665,3395 1665,3401 1664,3406 1664,3412 1664,3417 1664,3422 1664,3428 1665,3433 1665,3439 1666,3444 1668,3449 1669,3455 1671,3460 1673,3465 1675,3470 1678,3475 1680,3480 1683,3484 1686,3489 1689,3493 1693,3497 1696,3501 1700,3505 1704,3509 1708,3513 1712,3516 1717,3519 1721,3522 1726,3525 1731,3528 1736,3530 1741,3532 1746,3534 1751,3536 1756,3538 1761,3539 1767,3540 1772,3541 1778,3542 1783,3542 1789,3542 1794,3542 1799,3542 1805,3541 1810,3540 1816,3539 1821,3538 1826,3536 1831,3534 1836,3532 1841,3530 1846,3528 1851,3525 1856,3522 1860,3519 1865,3516 1869,3513 1873,3509 1877,3505 1881,3501 1884,3497 1888,3493 1891,3489 1894,3484 1897,3480 1899,3475 1902,3470 1904,3465 1906,3460 1908,3455 1909,3449 1911,3444 1912,3439 1912,3433 1913,3428 1913,3422 1914,3417 Z"/>
 <path fill="none" stroke="rgb(102,102,187)" stroke-linejoin="round" d="M 1914,3417 L 1913,3412 1913,3406 1912,3401 1912,3395 1911,3390 1909,3385 1908,3379 1906,3374 1904,3369 1902,3364 1899,3359 1897,3355 1894,3350 1891,3345 1888,3341 1884,3337 1881,3333 1877,3329 1873,3325 1869,3321 1865,3318 1860,3315 1856,3312 1851,3309 1846,3306 1841,3304 1836,3302 1831,3300 1826,3298 1821,3296 1816,3295 1810,3294 1805,3293 1799,3292 1794,3292 1789,3292 1783,3292 1778,3292 1772,3293 1767,3294 1761,3295 1756,3296 1751,3298 1746,3300 1741,3302 1736,3304 1731,3306 1726,3309 1721,3312 1717,3315 1712,3318 1708,3321 1704,3325 1700,3329 1696,3333 1693,3337 1689,3341 1686,3345 1683,3350 1680,3355 1678,3359 1675,3364 1673,3369 1671,3374 1669,3379 1668,3385 1666,3390 1665,3395 1665,3401 1664,3406 1664,3412 1664,3417 1664,3422 1664,3428 1665,3433 1665,3439 1666,3444 1668,3449 1669,3455 1671,3460 1673,3465 1675,3470 1678,3475 1680,3480 1683,3484 1686,3489 1689,3493 1693,3497 1696,3501 1700,3505 1704,3509 1708,3513 1712,3516 1717,3519 1721,3522 1726,3525 1731,3528 1736,3530 1741,3532 1746,3534 1751,3536 1756,3538 1761,3539 1767,3540 1772,3541 1778,3542 1783,3542 1789,3542 1794,3542 1799,3542 1805,3541 1810,3540 1816,3539 1821,3538 1826,3536 1831,3534 1836,3532 1841,3530 1846,3528 1851,3525 1856,3522 1860,3519 1865,3516 1869,3513 1873,3509 1877,3505 1881,3501 1884,3497 1888,3493 1891,3489 1894,3484 1897,3480 1899,3475 1902,3470 1904,3465 1906,3460 1908,3455 1909,3449 1911,3444 1912,3439 1912,3433 1913,3428 1913,3422 1914,3417 Z"/>
 <path fill="rgb(102,102,187)" stroke="none" d="M 6645,3368 L 6645,3363 6645,3358 6644,3352 6643,3347 6642,3341 6641,3336 6639,3331 6638,3326 6636,3321 6633,3316 6631,3311 6628,3306 6626,3301 6623,3297 6619,3292 6616,3288 6612,3284 6609,3281 6605,3277 6601,3274 6596,3270 6592,3267 6587,3264 6583,3261 6578,3259 6573,3256 6568,3254 6563,3252 6558,3250 6553,3249 6547,3247 6542,3246 6536,3245 6531,3245 6526,3245 6520,3244 6515,3245 6509,3245 6504,3245 6498,3246 6493,3247 6488,3249 6483,3250 6477,3252 6472,3254 6467,3256 6462,3259 6458,3261 6453,3264 6448,3267 6444,3270 6440,3274 6436,3277 6432,3281 6428,3284 6424,3288 6421,3292 6418,3297 6415,3301 6412,3306 6409,3311 6407,3316 6405,3321 6403,3326 6401,3331 6399,3336 6398,3341 6397,3347 6396,3352 6396,3358 6395,3363 6395,3368 6395,3374 6396,3379 6396,3385 6397,3390 6398,3395 6399,3401 6401,3406 6403,3411 6405,3416 6407,3421 6409,3426 6412,3431 6415,3436 6418,3440 6421,3445 6424,3449 6428,3453 6432,3457 6436,3461 6440,3464 6444,3468 6448,3471 6453,3474 6458,3477 6462,3479 6467,3482 6472,3484 6477,3486 6483,3488 6488,3489 6493,3490 6498,3492 6504,3492 6509,3493 6515,3493 6520,3493 6526,3493 6531,3493 6536,3492 6542,3492 6547,3490 6553,3489 6558,3488 6563,3486 6568,3484 6573,3482 6578,3479 6583,3477 6587,3474 6592,3471 6596,3468 6601,3464 6605,3461 6609,3457 6612,3453 6616,3449 6619,3445 6623,3440 6626,3436 6628,3431 6631,3426 6633,3421 6636,3416 6638,3411 6639,3406 6641,3401 6642,3395 6643,3390 6644,3385 6645,3379 6645,3374 6645,3368 Z"/>
 <path fill="none" stroke="rgb(102,102,187)" stroke-linejoin="round" d="M 6645,3368 L 6645,3363 6645,3358 6644,3352 6643,3347 6642,3341 6641,3336 6639,3331 6638,3326 6636,3321 6633,3316 6631,3311 6628,3306 6626,3301 6623,3297 6619,3292 6616,3288 6612,3284 6609,3281 6605,3277 6601,3274 6596,3270 6592,3267 6587,3264 6583,3261 6578,3259 6573,3256 6568,3254 6563,3252 6558,3250 6553,3249 6547,3247 6542,3246 6536,3245 6531,3245 6526,3245 6520,3244 6515,3245 6509,3245 6504,3245 6498,3246 6493,3247 6488,3249 6483,3250 6477,3252 6472,3254 6467,3256 6462,3259 6458,3261 6453,3264 6448,3267 6444,3270 6440,3274 6436,3277 6432,3281 6428,3284 6424,3288 6421,3292 6418,3297 6415,3301 6412,3306 6409,3311 6407,3316 6405,3321 6403,3326 6401,3331 6399,3336 6398,3341 6397,3347 6396,3352 6396,3358 6395,3363 6395,3368 6395,3374 6396,3379 6396,3385 6397,3390 6398,3395 6399,3401 6401,3406 6403,3411 6405,3416 6407,3421 6409,3426 6412,3431 6415,3436 6418,3440 6421,3445 6424,3449 6428,3453 6432,3457 6436,3461 6440,3464 6444,3468 6448,3471 6453,3474 6458,3477 6462,3479 6467,3482 6472,3484 6477,3486 6483,3488 6488,3489 6493,3490 6498,3492 6504,3492 6509,3493 6515,3493 6520,3493 6526,3493 6531,3493 6536,3492 6542,3492 6547,3490 6553,3489 6558,3488 6563,3486 6568,3484 6573,3482 6578,3479 6583,3477 6587,3474 6592,3471 6596,3468 6601,3464 6605,3461 6609,3457 6612,3453 6616,3449 6619,3445 6623,3440 6626,3436 6628,3431 6631,3426 6633,3421 6636,3416 6638,3411 6639,3406 6641,3401 6642,3395 6643,3390 6644,3385 6645,3379 6645,3374 6645,3368 Z"/>
 <path fill="rgb(102,102,187)" stroke="none" d="M 11377,3248 L 11377,3243 11376,3237 11376,3232 11375,3226 11374,3221 11373,3216 11371,3210 11369,3205 11367,3200 11365,3195 11363,3190 11360,3185 11357,3181 11354,3176 11351,3172 11348,3168 11344,3164 11340,3160 11336,3156 11332,3152 11328,3149 11324,3146 11319,3143 11314,3140 11310,3137 11305,3135 11300,3132 11295,3131 11289,3129 11284,3127 11279,3126 11274,3125 11268,3124 11263,3123 11257,3123 11252,3123 11246,3123 11241,3123 11236,3124 11230,3125 11225,3126 11219,3127 11214,3129 11209,3131 11204,3132 11199,3135 11194,3137 11189,3140 11185,3143 11180,3146 11176,3149 11171,3152 11167,3156 11163,3160 11160,3164 11156,3168 11153,3172 11149,3176 11146,3181 11144,3185 11141,3190 11139,3195 11136,3200 11134,3205 11133,3210 11131,3216 11130,3221 11129,3226 11128,3232 11127,3237 11127,3243 11127,3248 11127,3253 11127,3259 11128,3264 11129,3270 11130,3275 11131,3280 11133,3285 11134,3290 11136,3295 11139,3300 11141,3305 11144,3309 11146,3314 11149,3319 11153,3323 11156,3327 11160,3331 11163,3335 11167,3339 11171,3343 11176,3346 11180,3349 11185,3352 11189,3355 11194,3358 11199,3360 11204,3362 11209,3364 11214,3366 11219,3368 11225,3369 11230,3370 11236,3371 11241,3372 11246,3372 11252,3372 11257,3372 11263,3372 11268,3371 11274,3370 11279,3369 11284,3368 11289,3366 11295,3364 11300,3362 11305,3360 11310,3358 11314,3355 11319,3352 11324,3349 11328,3346 11332,3343 11336,3339 11340,3335 11344,3331 11348,3327 11351,3323 11354,3319 11357,3314 11360,3309 11363,3305 11365,3300 11367,3295 11369,3290 11371,3285 11373,3280 11374,3275 11375,3270 11376,3264 11376,3259 11377,3253 11377,3248 Z"/>
 <path fill="none" stroke="rgb(102,102,187)" stroke-linejoin="round" d="M 11377,3248 L 11377,3243 11376,3237 11376,3232 11375,3226 11374,3221 11373,3216 11371,3210 11369,3205 11367,3200 11365,3195 11363,3190 11360,3185 11357,3181 11354,3176 11351,3172 11348,3168 11344,3164 11340,3160 11336,3156 11332,3152 11328,3149 11324,3146 11319,3143 11314,3140 11310,3137 11305,3135 11300,3132 11295,3131 11289,3129 11284,3127 11279,3126 11274,3125 11268,3124 11263,3123 11257,3123 11252,3123 11246,3123 11241,3123 11236,3124 11230,3125 11225,3126 11219,3127 11214,3129 11209,3131 11204,3132 11199,3135 11194,3137 11189,3140 11185,3143 11180,3146 11176,3149 11171,3152 11167,3156 11163,3160 11160,3164 11156,3168 11153,3172 11149,3176 11146,3181 11144,3185 11141,3190 11139,3195 11136,3200 11134,3205 11133,3210 11131,3216 11130,3221 11129,3226 11128,3232 11127,3237 11127,3243 11127,3248 11127,3253 11127,3259 11128,3264 11129,3270 11130,3275 11131,3280 11133,3285 11134,3290 11136,3295 11139,3300 11141,3305 11144,3309 11146,3314 11149,3319 11153,3323 11156,3327 11160,3331 11163,3335 11167,3339 11171,3343 11176,3346 11180,3349 11185,3352 11189,3355 11194,3358 11199,3360 11204,3362 11209,3364 11214,3366 11219,3368 11225,3369 11230,3370 11236,3371 11241,3372 11246,3372 11252,3372 11257,3372 11263,3372 11268,3371 11274,3370 11279,3369 11284,3368 11289,3366 11295,3364 11300,3362 11305,3360 11310,3358 11314,3355 11319,3352 11324,3349 11328,3346 11332,3343 11336,3339 11340,3335 11344,3331 11348,3327 11351,3323 11354,3319 11357,3314 11360,3309 11363,3305 11365,3300 11367,3295 11369,3290 11371,3285 11373,3280 11374,3275 11375,3270 11376,3264 11376,3259 11377,3253 11377,3248 Z"/>
 <path fill="rgb(102,102,187)" stroke="none" d="M 16108,3248 L 16107,3243 16107,3237 16106,3232 16106,3226 16105,3221 16103,3216 16102,3210 16100,3205 16098,3200 16096,3195 16093,3190 16091,3185 16088,3181 16085,3176 16082,3172 16078,3168 16075,3164 16071,3160 16067,3156 16063,3152 16059,3149 16054,3146 16050,3143 16045,3140 16040,3137 16035,3135 16030,3132 16025,3131 16020,3129 16015,3127 16010,3126 16004,3125 15999,3124 15993,3123 15988,3123 15983,3123 15977,3123 15972,3123 15966,3124 15961,3125 15955,3126 15950,3127 15945,3129 15940,3131 15935,3132 15930,3135 15925,3137 15920,3140 15915,3143 15911,3146 15906,3149 15902,3152 15898,3156 15894,3160 15890,3164 15887,3168 15883,3172 15880,3176 15877,3181 15874,3185 15872,3190 15869,3195 15867,3200 15865,3205 15863,3210 15862,3216 15860,3221 15859,3226 15859,3232 15858,3237 15858,3243 15858,3248 15858,3253 15858,3259 15859,3264 15859,3270 15860,3275 15862,3280 15863,3285 15865,3290 15867,3295 15869,3300 15872,3305 15874,3309 15877,3314 15880,3319 15883,3323 15887,3327 15890,3331 15894,3335 15898,3339 15902,3343 15906,3346 15911,3349 15915,3352 15920,3355 15925,3358 15930,3360 15935,3362 15940,3364 15945,3366 15950,3368 15955,3369 15961,3370 15966,3371 15972,3372 15977,3372 15983,3372 15988,3372 15993,3372 15999,3371 16004,3370 16010,3369 16015,3368 16020,3366 16025,3364 16030,3362 16035,3360 16040,3358 16045,3355 16050,3352 16054,3349 16059,3346 16063,3343 16067,3339 16071,3335 16075,3331 16078,3327 16082,3323 16085,3319 16088,3314 16091,3309 16093,3305 16096,3300 16098,3295 16100,3290 16102,3285 16103,3280 16105,3275 16106,3270 16106,3264 16107,3259 16107,3253 16108,3248 Z"/>
 <path fill="none" stroke="rgb(102,102,187)" stroke-linejoin="round" d="M 16108,3248 L 16107,3243 16107,3237 16106,3232 16106,3226 16105,3221 16103,3216 16102,3210 16100,3205 16098,3200 16096,3195 16093,3190 16091,3185 16088,3181 16085,3176 16082,3172 16078,3168 16075,3164 16071,3160 16067,3156 16063,3152 16059,3149 16054,3146 16050,3143 16045,3140 16040,3137 16035,3135 16030,3132 16025,3131 16020,3129 16015,3127 16010,3126 16004,3125 15999,3124 15993,3123 15988,3123 15983,3123 15977,3123 15972,3123 15966,3124 15961,3125 15955,3126 15950,3127 15945,3129 15940,3131 15935,3132 15930,3135 15925,3137 15920,3140 15915,3143 15911,3146 15906,3149 15902,3152 15898,3156 15894,3160 15890,3164 15887,3168 15883,3172 15880,3176 15877,3181 15874,3185 15872,3190 15869,3195 15867,3200 15865,3205 15863,3210 15862,3216 15860,3221 15859,3226 15859,3232 15858,3237 15858,3243 15858,3248 15858,3253 15858,3259 15859,3264 15859,3270 15860,3275 15862,3280 15863,3285 15865,3290 15867,3295 15869,3300 15872,3305 15874,3309 15877,3314 15880,3319 15883,3323 15887,3327 15890,3331 15894,3335 15898,3339 15902,3343 15906,3346 15911,3349 15915,3352 15920,3355 15925,3358 15930,3360 15935,3362 15940,3364 15945,3366 15950,3368 15955,3369 15961,3370 15966,3371 15972,3372 15977,3372 15983,3372 15988,3372 15993,3372 15999,3371 16004,3370 16010,3369 16015,3368 16020,3366 16025,3364 16030,3362 16035,3360 16040,3358 16045,3355 16050,3352 16054,3349 16059,3346 16063,3343 16067,3339 16071,3335 16075,3331 16078,3327 16082,3323 16085,3319 16088,3314 16091,3309 16093,3305 16096,3300 16098,3295 16100,3290 16102,3285 16103,3280 16105,3275 16106,3270 16106,3264 16107,3259 16107,3253 16108,3248 Z"/>
 <text class="TextShape"><tspan class="TextParagraph" font-family="Liberation Sans, sans-serif" font-size="706px" font-weight="400"><tspan class="TextPosition" x="995" y="6270"><tspan fill="rgb(0,0,0)" stroke="none">2015</tspan></tspan></tspan></text>
 <text class="TextShape"><tspan class="TextParagraph" font-family="Liberation Sans, sans-serif" font-size="706px" font-weight="400"><tspan class="TextPosition" x="5726" y="6270"><tspan fill="rgb(0,0,0)" stroke="none">2016</tspan></tspan></tspan></text>
 <text class="TextShape"><tspan class="TextParagraph" font-family="Liberation Sans, sans-serif" font-size="706px" font-weight="400"><tspan class="TextPosition" x="10458" y="6270"><tspan fill="rgb(0,0,0)" stroke="none">2017</tspan></tspan></tspan></text>
 <text class="TextShape"><tspan class="TextParagraph" font-family="Liberation Sans, sans-serif" font-size="706px" font-weight="400"><tspan class="TextPosition" x="15190" y="6270"><tspan fill="rgb(0,0,0)" stroke="none">2018</tspan></tspan></tspan></text>
 <text class="TextShape"><tspan class="TextParagraph" font-family="Liberation Sans, sans-serif" font-size="706px" font-weight="400"><tspan class="TextPosition" x="1142" y="5624"><tspan fill="rgb(0,0,0)" stroke="none">3</tspan></tspan></tspan></text>
 <text class="TextShape"><tspan class="TextParagraph" font-family="Liberation Sans, sans-serif" font-size="706px" font-weight="400"><tspan class="TextPosition" x="534" y="4409"><tspan fill="rgb(0,0,0)" stroke="none">3.5</tspan></tspan></tspan></text>
 <text class="TextShape"><tspan class="TextParagraph" font-family="Liberation Sans, sans-serif" font-size="706px" font-weight="400"><tspan class="TextPosition" x="1142" y="3195"><tspan fill="rgb(0,0,0)" stroke="none">4</tspan></tspan></tspan></text>
 <text class="TextShape"><tspan class="TextParagraph" font-family="Liberation Sans, sans-serif" font-size="706px" font-weight="400"><tspan class="TextPosition" x="534" y="1980"><tspan fill="rgb(0,0,0)" stroke="none">4.5</tspan></tspan></tspan></text>
 <text class="TextShape"><tspan class="TextParagraph" font-family="Liberation Sans, sans-serif" font-size="706px" font-weight="400"><tspan class="TextPosition" x="1142" y="766"><tspan fill="rgb(0,0,0)" stroke="none">5</tspan></tspan></tspan></text>
 <path fill="none" stroke="rgb(221,102,102)" stroke-width="80" stroke-linejoin="round" d="M 17523,2812 L 18323,2812"/>
 <path fill="rgb(221,102,102)" stroke="none" d="M 17711,2601 L 17711,3024 18134,3024 18134,2601 17711,2601 Z"/>
 <path fill="none" stroke="rgb(221,102,102)" stroke-linejoin="round" d="M 17711,2601 L 17711,3024 18134,3024 18134,2601 17711,2601 Z"/>
 <path fill="none" stroke="rgb(102,102,187)" stroke-width="80" stroke-linejoin="round" d="M 17523,3747 L 18323,3747"/>
 <path fill="rgb(102,102,187)" stroke="none" d="M 18134,3747 L 18134,3738 18133,3729 18132,3719 18131,3710 18129,3701 18127,3692 18124,3683 18121,3675 18118,3666 18114,3658 18110,3649 18106,3641 18101,3633 18096,3626 18090,3618 18085,3611 18078,3604 18072,3597 18065,3591 18058,3585 18051,3579 18044,3574 18036,3569 18028,3564 18020,3559 18012,3555 18003,3552 17995,3548 17986,3545 17977,3543 17968,3541 17959,3539 17950,3537 17941,3536 17932,3536 17923,3536 17913,3536 17904,3536 17895,3537 17886,3539 17877,3541 17868,3543 17859,3545 17850,3548 17842,3552 17833,3555 17825,3559 17817,3564 17809,3569 17801,3574 17794,3579 17787,3585 17780,3591 17773,3597 17767,3604 17760,3611 17755,3618 17749,3626 17744,3633 17739,3641 17735,3649 17731,3658 17727,3666 17724,3675 17721,3683 17718,3692 17716,3701 17714,3710 17713,3719 17712,3729 17711,3738 17711,3747 17711,3756 17712,3765 17713,3775 17714,3784 17716,3793 17718,3802 17721,3811 17724,3819 17727,3828 17731,3836 17735,3845 17739,3853 17744,3861 17749,3868 17755,3876 17760,3883 17767,3890 17773,3897 17780,3903 17787,3909 17794,3915 17801,3920 17809,3925 17817,3930 17825,3935 17833,3939 17842,3942 17850,3946 17859,3949 17868,3951 17877,3953 17886,3955 17895,3957 17904,3958 17913,3958 17923,3959 17932,3958 17941,3958 17950,3957 17959,3955 17968,3953 17977,3951 17986,3949 17995,3946 18003,3942 18012,3939 18020,3935 18028,3930 18036,3925 18044,3920 18051,3915 18058,3909 18065,3903 18072,3897 18078,3890 18085,3883 18090,3876 18096,3868 18101,3861 18106,3853 18110,3845 18114,3836 18118,3828 18121,3819 18124,3811 18127,3802 18129,3793 18131,3784 18132,3775 18133,3765 18134,3756 18134,3747 Z"/>
 <path fill="none" stroke="rgb(102,102,187)" stroke-linejoin="round" d="M 18134,3747 L 18134,3738 18133,3729 18132,3719 18131,3710 18129,3701 18127,3692 18124,3683 18121,3675 18118,3666 18114,3658 18110,3649 18106,3641 18101,3633 18096,3626 18090,3618 18085,3611 18078,3604 18072,3597 18065,3591 18058,3585 18051,3579 18044,3574 18036,3569 18028,3564 18020,3559 18012,3555 18003,3552 17995,3548 17986,3545 17977,3543 17968,3541 17959,3539 17950,3537 17941,3536 17932,3536 17923,3536 17913,3536 17904,3536 17895,3537 17886,3539 17877,3541 17868,3543 17859,3545 17850,3548 17842,3552 17833,3555 17825,3559 17817,3564 17809,3569 17801,3574 17794,3579 17787,3585 17780,3591 17773,3597 17767,3604 17760,3611 17755,3618 17749,3626 17744,3633 17739,3641 17735,3649 17731,3658 17727,3666 17724,3675 17721,3683 17718,3692 17716,3701 17714,3710 17713,3719 17712,3729 17711,3738 17711,3747 17711,3756 17712,3765 17713,3775 17714,3784 17716,3793 17718,3802 17721,3811 17724,3819 17727,3828 17731,3836 17735,3845 17739,3853 17744,3861 17749,3868 17755,3876 17760,3883 17767,3890 17773,3897 17780,3903 17787,3909 17794,3915 17801,3920 17809,3925 17817,3930 17825,3935 17833,3939 17842,3942 17850,3946 17859,3949 17868,3951 17877,3953 17886,3955 17895,3957 17904,3958 17913,3958 17923,3959 17932,3958 17941,3958 17950,3957 17959,3955 17968,3953 17977,3951 17986,3949 17995,3946 18003,3942 18012,3939 18020,3935 18028,3930 18036,3925 18044,3920 18051,3915 18058,3909 18065,3903 18072,3897 18078,3890 18085,3883 18090,3876 18096,3868 18101,3861 18106,3853 18110,3845 18114,3836 18118,3828 18121,3819 18124,3811 18127,3802 18129,3793 18131,3784 18132,3775 18133,3765 18134,3756 18134,3747 Z"/>
 <text class="TextShape"><tspan class="TextParagraph" font-family="Liberation Sans, sans-serif" font-size="706px" font-weight="400"><tspan class="TextPosition" x="18478" y="3050"><tspan fill="rgb(0,0,0)" stroke="none">overall teacher rating</tspan></tspan></tspan></text>
 <text class="TextShape"><tspan class="TextParagraph" font-family="Liberation Sans, sans-serif" font-size="706px" font-weight="400"><tspan class="TextPosition" x="18478" y="3985"><tspan fill="rgb(0,0,0)" stroke="none">faculty average</tspan></tspan></tspan></text>
</svg>