<?xml version="1.0" encoding="UTF-8"?>
<!DOCTYPE svg PUBLIC "-//W3C//DTD SVG 1.1//EN" "http://www.w3.org/Graphics/SVG/1.1/DTD/svg11.dtd">
<svg width="231mm" height="107mm" viewBox="0 0 23100 10700" version="1.1" xmlns="http://www.w3.org/2000/svg" stroke-width="28.222" stroke-linejoin="round" xml:space="preserve">
 <path fill="rgb(255,255,255)" stroke="none" d="M 11596,10731 L 28,10731 28,0 23163,0 23163,10731 11596,10731 Z"/>
 <path fill="none" stroke="rgb(179,179,179)" stroke-linejoin="round" d="M 11357,8998 L 4421,8998 4421,214 18293,214 18293,8998 11357,8998 Z"/>
 <path fill="none" stroke="rgb(179,179,179)" stroke-linejoin="round" d="M 4421,212 L 4421,8997"/>
 <path fill="none" stroke="rgb(179,179,179)" stroke-linejoin="round" d="M 5808,212 L 5808,8997"/>
 <path fill="none" stroke="rgb(179,179,179)" stroke-linejoin="round" d="M 7195,212 L 7195,8997"/>
 <path fill="none" stroke="rgb(179,179,179)" stroke-linejoin="round" d="M 8582,212 L 8582,8997"/>
 <path fill="none" stroke="rgb(179,179,179)" stroke-linejoin="round" d="M 9970,212 L 9970,8997"/>
 <path fill="none" stroke="rgb(179,179,179)" stroke-linejoin="round" d="M 11357,212 L 11357,8997"/>
 <path fill="none" stroke="rgb(179,179,179)" stroke-linejoin="round" d="M 12743,212 L 12743,8997"/>
 <path fill="none" stroke="rgb(179,179,179)" stroke-linejoin="round" d="M 14131,212 L 14131,8997"/>
 <path fill="none" stroke="rgb(179,179,179)" stroke-linejoin="round" d="M 15518,212 L 15518,8997"/>
 <path fill="none" stroke="rgb(179,179,179)" stroke-linejoin="round" d="M 16905,212 L 16905,8997"/>
 <path fill="none" stroke="rgb(179,179,179)" stroke-linejoin="round" d="M 18293,212 L 18293,8997"/>
 <path fill="none" stroke="rgb(179,179,179)" stroke-linejoin="round" d="M 4271,8997 L 4421,8997"/>
 <path fill="none" stroke="rgb(179,179,179)" stroke-linejoin="round" d="M 4271,8997 L 4421,8997"/>
 <path fill="none" stroke="rgb(179,179,179)" stroke-linejoin="round" d="M 4271,8659 L 4421,8659"/>
 <path fill="none" stroke="rgb(179,179,179)" stroke-linejoin="round" d="M 4271,8659 L 4421,8659"/>
 <path fill="none" stroke="rgb(179,179,179)" stroke-linejoin="round" d="M 4271,8321 L 4421,8321"/>
 <path fill="none" stroke="rgb(179,179,179)" stroke-linejoin="round" d="M 4271,8321 L 4421,8321"/>
 <path fill="none" stroke="rgb(179,179,179)" stroke-linejoin="round" d="M 4271,7983 L 4421,7983"/>
 <path fill="none" stroke="rgb(179,179,179)" stroke-linejoin="round" d="M 4271,7983 L 4421,7983"/>
 <path fill="none" stroke="rgb(179,179,179)" stroke-linejoin="round" d="M 4271,7645 L 4421,7645"/>
 <path fill="none" stroke="rgb(179,179,179)" stroke-linejoin="round" d="M 4271,7645 L 4421,7645"/>
 <path fill="none" stroke="rgb(179,179,179)" stroke-linejoin="round" d="M 4271,7307 L 4421,7307"/>
 <path fill="none" stroke="rgb(179,179,179)" stroke-linejoin="round" d="M 4271,7307 L 4421,7307"/>
 <path fill="none" stroke="rgb(179,179,179)" stroke-linejoin="round" d="M 4271,6969 L 4421,6969"/>
 <path fill="none" stroke="rgb(179,179,179)" stroke-linejoin="round" d="M 4271,6969 L 4421,6969"/>
 <path fill="none" stroke="rgb(179,179,179)" stroke-linejoin="round" d="M 4271,6631 L 4421,6631"/>
 <path fill="none" stroke="rgb(179,179,179)" stroke-linejoin="round" d="M 4271,6631 L 4421,6631"/>
 <path fill="none" stroke="rgb(179,179,179)" stroke-linejoin="round" d="M 4271,6293 L 4421,6293"/>
 <path fill="none" stroke="rgb(179,179,179)" stroke-linejoin="round" d="M 4271,6293 L 4421,6293"/>
 <path fill="none" stroke="rgb(179,179,179)" stroke-linejoin="round" d="M 4271,5956 L 4421,5956"/>
 <path fill="none" stroke="rgb(179,179,179)" stroke-linejoin="round" d="M 4271,5956 L 4421,5956"/>
 <path fill="none" stroke="rgb(179,179,179)" stroke-linejoin="round" d="M 4271,5618 L 4421,5618"/>
 <path fill="none" stroke="rgb(179,179,179)" stroke-linejoin="round" d="M 4271,5618 L 4421,5618"/>
 <path fill="none" stroke="rgb(179,179,179)" stroke-linejoin="round" d="M 4271,5281 L 4421,5281"/>
 <path fill="none" stroke="rgb(179,179,179)" stroke-linejoin="round" d="M 4271,5281 L 4421,5281"/>
 <path fill="none" stroke="rgb(179,179,179)" stroke-linejoin="round" d="M 4271,4943 L 4421,4943"/>
 <path fill="none" stroke="rgb(179,179,179)" stroke-linejoin="round" d="M 4271,4943 L 4421,4943"/>
 <path fill="none" stroke="rgb(179,179,179)" stroke-linejoin="round" d="M 4271,4605 L 4421,4605"/>
 <path fill="none" stroke="rgb(179,179,179)" stroke-linejoin="round" d="M 4271,4605 L 4421,4605"/>
 <path fill="none" stroke="rgb(179,179,179)" stroke-linejoin="round" d="M 4271,4267 L 4421,4267"/>
 <path fill="none" stroke="rgb(179,179,179)" stroke-linejoin="round" d="M 4271,4267 L 4421,4267"/>
 <path fill="none" stroke="rgb(179,179,179)" stroke-linejoin="round" d="M 4271,3929 L 4421,3929"/>
 <path fill="none" stroke="rgb(179,179,179)" stroke-linejoin="round" d="M 4271,3929 L 4421,3929"/>
 <path fill="none" stroke="rgb(179,179,179)" stroke-linejoin="round" d="M 4271,3591 L 4421,3591"/>
 <path fill="none" stroke="rgb(179,179,179)" stroke-linejoin="round" d="M 4271,3591 L 4421,3591"/>
 <path fill="none" stroke="rgb(179,179,179)" stroke-linejoin="round" d="M 4271,3253 L 4421,3253"/>
 <path fill="none" stroke="rgb(179,179,179)" stroke-linejoin="round" d="M 4271,3253 L 4421,3253"/>
 <path fill="none" stroke="rgb(179,179,179)" stroke-linejoin="round" d="M 4271,2916 L 4421,2916"/>
 <path fill="none" stroke="rgb(179,179,179)" stroke-linejoin="round" d="M 4271,2916 L 4421,2916"/>
 <path fill="none" stroke="rgb(179,179,179)" stroke-linejoin="round" d="M 4271,2578 L 4421,2578"/>
 <path fill="none" stroke="rgb(179,179,179)" stroke-linejoin="round" d="M 4271,2578 L 4421,2578"/>
 <path fill="none" stroke="rgb(179,179,179)" stroke-linejoin="round" d="M 4271,2240 L 4421,2240"/>
 <path fill="none" stroke="rgb(179,179,179)" stroke-linejoin="round" d="M 4271,2240 L 4421,2240"/>
 <path fill="none" stroke="rgb(179,179,179)" stroke-linejoin="round" d="M 4271,1902 L 4421,1902"/>
 <path fill="none" stroke="rgb(179,179,179)" stroke-linejoin="round" d="M 4271,1902 L 4421,1902"/>
 <path fill="none" stroke="rgb(179,179,179)" stroke-linejoin="round" d="M 4271,1564 L 4421,1564"/>
 <path fill="none" stroke="rgb(179,179,179)" stroke-linejoin="round" d="M 4271,1564 L 4421,1564"/>
 <path fill="none" stroke="rgb(179,179,179)" stroke-linejoin="round" d="M 4271,1226 L 4421,1226"/>
 <path fill="none" stroke="rgb(179,179,179)" stroke-linejoin="round" d="M 4271,1226 L 4421,1226"/>
 <path fill="none" stroke="rgb(179,179,179)" stroke-linejoin="round" d="M 4271,888 L 4421,888"/>
 <path fill="none" stroke="rgb(179,179,179)" stroke-linejoin="round" d="M 4271,888 L 4421,888"/>
 <path fill="none" stroke="rgb(179,179,179)" stroke-linejoin="round" d="M 4271,550 L 4421,550"/>
 <path fill="none" stroke="rgb(179,179,179)" stroke-linejoin="round" d="M 4271,550 L 4421,550"/>
 <path fill="none" stroke="rgb(179,179,179)" stroke-linejoin="round" d="M 4271,212 L 4421,212"/>
 <path fill="none" stroke="rgb(179,179,179)" stroke-linejoin="round" d="M 4271,212 L 4421,212"/>
 <path fill="none" stroke="rgb(179,179,179)" stroke-linejoin="round" d="M 4421,8997 L 4421,212"/>
 <path fill="none" stroke="rgb(179,179,179)" stroke-linejoin="round" d="M 4421,9147 L 4421,8997"/>
 <path fill="none" stroke="rgb(179,179,179)" stroke-linejoin="round" d="M 4421,9147 L 4421,8997"/>
 <path fill="none" stroke="rgb(179,179,179)" stroke-linejoin="round" d="M 5808,9147 L 5808,8997"/>
 <path fill="none" stroke="rgb(179,179,179)" stroke-linejoin="round" d="M 5808,9147 L 5808,8997"/>
 <path fill="none" stroke="rgb(179,179,179)" stroke-linejoin="round" d="M 7195,9147 L 7195,8997"/>
 <path fill="none" stroke="rgb(179,179,179)" stroke-linejoin="round" d="M 7195,9147 L 7195,8997"/>
 <path fill="none" stroke="rgb(179,179,179)" stroke-linejoin="round" d="M 8582,9147 L 8582,8997"/>
 <path fill="none" stroke="rgb(179,179,179)" stroke-linejoin="round" d="M 8582,9147 L 8582,8997"/>
 <path fill="none" stroke="rgb(179,179,179)" stroke-linejoin="round" d="M 9970,9147 L 9970,8997"/>
 <path fill="none" stroke="rgb(179,179,179)" stroke-linejoin="round" d="M 9970,9147 L 9970,8997"/>
 <path fill="none" stroke="rgb(179,179,179)" stroke-linejoin="round" d="M 11357,9147 L 11357,8997"/>
 <path fill="none" stroke="rgb(179,179,179)" stroke-linejoin="round" d="M 11357,9147 L 11357,8997"/>
 <path fill="none" stroke="rgb(179,179,179)" stroke-linejoin="round" d="M 12743,9147 L 12743,8997"/>
 <path fill="none" stroke="rgb(179,179,179)" stroke-linejoin="round" d="M 12743,9147 L 12743,8997"/>
 <path fill="none" stroke="rgb(179,179,179)" stroke-linejoin="round" d="M 14131,9147 L 14131,8997"/>
 <path fill="none" stroke="rgb(179,179,179)" stroke-linejoin="round" d="M 14131,9147 L 14131,8997"/>
 <path fill="none" stroke="rgb(179,179,179)" stroke-linejoin="round" d="M 15518,9147 L 15518,8997"/>
 <path fill="none" stroke="rgb(179,179,179)" stroke-linejoin="round" d="M 15518,9147 L 15518,8997"/>
 <path fill="none" stroke="rgb(179,179,179)" stroke-linejoin="round" d="M 16905,9147 L 16905,8997"/>
 <path fill="none" stroke="rgb(179,179,179)" stroke-linejoin="round" d="M 16905,9147 L 16905,8997"/>
 <path fill="none" stroke="rgb(179,179,179)" stroke-linejoin="round" d="M 18293,9147 L 18293,8997"/>
 <path fill="none" stroke="rgb(179,179,179)" stroke-linejoin="round" d="M 18293,9147 L 18293,8997"/>
 <path fill="none" stroke="rgb(179,179,179)" stroke-linejoin="round" d="M 4421,8997 L 18293,8997"/>
 <path fill="rgb(42,106,179)" stroke="none" d="M 4421,2493 L 4421,2324 13765,2324 13765,2493 4421,2493 Z"/>
 <path fill="rgb(42,106,179)" stroke="none" d="M 4421,2831 L 4421,2662 14000,2662 14000,2831 4421,2831 Z"/>
 <path fill="rgb(42,106,179)" stroke="none" d="M 4421,3169 L 4421,3000 14005,3000 14005,3169 4421,3169 Z"/>
 <path fill="rgb(42,106,179)" stroke="none" d="M 4421,3507 L 4421,3338 14206,3338 14206,3507 4421,3507 Z"/>
 <path fill="rgb(42,106,179)" stroke="none" d="M 4421,3845 L 4421,3676 14394,3676 14394,3845 4421,3845 Z"/>
 <path fill="rgb(42,106,179)" stroke="none" d="M 4421,4183 L 4421,4014 14801,4014 14801,4183 4421,4183 Z"/>
 <path fill="rgb(42,106,179)" stroke="none" d="M 4421,4521 L 4421,4352 14869,4352 14869,4521 4421,4521 Z"/>
 <path fill="rgb(42,106,179)" stroke="none" d="M 4421,4858 L 4421,4689 14957,4689 14957,4858 4421,4858 Z"/>
 <path fill="rgb(42,106,179)" stroke="none" d="M 4421,5196 L 4421,5027 14977,5027 14977,5196 4421,5196 Z"/>
 <path fill="rgb(42,106,179)" stroke="none" d="M 4421,5533 L 4421,5365 15101,5365 15101,5533 4421,5533 Z"/>
 <path fill="rgb(42,106,179)" stroke="none" d="M 4421,5871 L 4421,5702 15102,5702 15102,5871 4421,5871 Z"/>
 <path fill="rgb(42,106,179)" stroke="none" d="M 4421,6209 L 4421,6040 15268,6040 15268,6209 4421,6209 Z"/>
 <path fill="rgb(42,106,179)" stroke="none" d="M 4421,6547 L 4421,6378 15345,6378 15345,6547 4421,6547 Z"/>
 <path fill="rgb(42,106,179)" stroke="none" d="M 4421,6885 L 4421,6716 15514,6716 15514,6885 4421,6885 Z"/>
 <path fill="rgb(42,106,179)" stroke="none" d="M 4421,7223 L 4421,7054 15518,7054 15518,7223 4421,7223 Z"/>
 <path fill="rgb(42,106,179)" stroke="none" d="M 4421,7560 L 4421,7392 15634,7392 15634,7560 4421,7560 Z"/>
 <path fill="rgb(42,106,179)" stroke="none" d="M 4421,7898 L 4421,7729 15739,7729 15739,7898 4421,7898 Z"/>
 <path fill="rgb(42,106,179)" stroke="none" d="M 4421,8236 L 4421,8067 15887,8067 15887,8236 4421,8236 Z"/>
 <path fill="rgb(42,106,179)" stroke="none" d="M 4421,8574 L 4421,8405 15943,8405 15943,8574 4421,8574 Z"/>
 <path fill="rgb(42,106,179)" stroke="none" d="M 4421,8912 L 4421,8743 17419,8743 17419,8912 4421,8912 Z"/>
 <path fill="rgb(255,0,0)" stroke="none" d="M 4421,466 L 4421,297 11357,297 11357,466 4421,466 Z"/>
 <path fill="rgb(255,0,0)" stroke="none" d="M 4421,804 L 4421,635 11934,635 11934,804 4421,804 Z"/>
 <path fill="rgb(255,0,0)" stroke="none" d="M 4421,1142 L 4421,973 11951,973 11951,1142 4421,1142 Z"/>
 <path fill="rgb(255,0,0)" stroke="none" d="M 4421,1480 L 4421,1311 12545,1311 12545,1480 4421,1480 Z"/>
 <path fill="rgb(255,0,0)" stroke="none" d="M 4421,1817 L 4421,1649 12941,1649 12941,1817 4421,1817 Z"/>
 <path fill="rgb(255,0,0)" stroke="none" d="M 4421,2155 L 4421,1986 13140,1986 13140,2155 4421,2155 Z"/>
 <text class="TextShape"><tspan class="TextParagraph" font-family="Liberation Sans, sans-serif" font-size="353px" font-weight="400"><tspan class="TextPosition" x="1472" y="8908"><tspan fill="rgb(0,0,0)" stroke="none">Berners-Lee 2001</tspan></tspan></tspan></text>
 <text class="TextShape"><tspan class="TextParagraph" font-family="Liberation Sans, sans-serif" font-size="353px" font-weight="400"><tspan class="TextPosition" x="1790" y="8570"><tspan fill="rgb(0,0,0)" stroke="none">Vrandecic 2014</tspan></tspan></tspan></text>
 <text class="TextShape"><tspan class="TextParagraph" font-family="Liberation Sans, sans-serif" font-size="353px" font-weight="400"><tspan class="TextPosition" x="2451" y="8232"><tspan fill="rgb(0,0,0)" stroke="none">Voida 2011</tspan></tspan></tspan></text>
 <text class="TextShape"><tspan class="TextParagraph" font-family="Liberation Sans, sans-serif" font-size="353px" font-weight="400"><tspan class="TextPosition" x="2425" y="7894"><tspan fill="rgb(0,0,0)" stroke="none">Heath 2011</tspan></tspan></tspan></text>
 <text class="TextShape"><tspan class="TextParagraph" font-family="Liberation Sans, sans-serif" font-size="353px" font-weight="400"><tspan class="TextPosition" x="2134" y="7556"><tspan fill="rgb(0,0,0)" stroke="none">Gensler 2010</tspan></tspan></tspan></text>
 <text class="TextShape"><tspan class="TextParagraph" font-family="Liberation Sans, sans-serif" font-size="353px" font-weight="400"><tspan class="TextPosition" x="2054" y="7218"><tspan fill="rgb(0,0,0)" stroke="none">Shoham 2015</tspan></tspan></tspan></text>
 <text class="TextShape"><tspan class="TextParagraph" font-family="Liberation Sans, sans-serif" font-size="353px" font-weight="400"><tspan class="TextPosition" x="1948" y="6880"><tspan fill="rgb(0,0,0)" stroke="none">Horrocks 2008</tspan></tspan></tspan></text>
 <text class="TextShape"><tspan class="TextParagraph" font-family="Liberation Sans, sans-serif" font-size="353px" font-weight="400"><tspan class="TextPosition" x="2504" y="6542"><tspan fill="rgb(0,0,0)" stroke="none">Guha 2016</tspan></tspan></tspan></text>
 <text class="TextShape"><tspan class="TextParagraph" font-family="Liberation Sans, sans-serif" font-size="353px" font-weight="400"><tspan class="TextPosition" x="2531" y="6204"><tspan fill="rgb(0,0,0)" stroke="none">Haas 2011</tspan></tspan></tspan></text>
 <text class="TextShape"><tspan class="TextParagraph" font-family="Liberation Sans, sans-serif" font-size="353px" font-weight="400"><tspan class="TextPosition" x="2531" y="5867"><tspan fill="rgb(0,0,0)" stroke="none">Beek 2016</tspan></tspan></tspan></text>
 <text class="TextShape"><tspan class="TextParagraph" font-family="Liberation Sans, sans-serif" font-size="353px" font-weight="400"><tspan class="TextPosition" x="2504" y="5529"><tspan fill="rgb(0,0,0)" stroke="none">Miller 1995</tspan></tspan></tspan></text>
 <text class="TextShape"><tspan class="TextParagraph" font-family="Liberation Sans, sans-serif" font-size="353px" font-weight="400"><tspan class="TextPosition" x="2531" y="5191"><tspan fill="rgb(0,0,0)" stroke="none">Bizer 2009</tspan></tspan></tspan></text>
 <text class="TextShape"><tspan class="TextParagraph" font-family="Liberation Sans, sans-serif" font-size="353px" font-weight="400"><tspan class="TextPosition" x="2451" y="4853"><tspan fill="rgb(0,0,0)" stroke="none">Davis 1993</tspan></tspan></tspan></text>
 <text class="TextShape"><tspan class="TextParagraph" font-family="Liberation Sans, sans-serif" font-size="353px" font-weight="400"><tspan class="TextPosition" x="2292" y="4515"><tspan fill="rgb(0,0,0)" stroke="none">Gruber 1995</tspan></tspan></tspan></text>
 <text class="TextShape"><tspan class="TextParagraph" font-family="Liberation Sans, sans-serif" font-size="353px" font-weight="400"><tspan class="TextPosition" x="2081" y="4177"><tspan fill="rgb(0,0,0)" stroke="none">Ferrucci 2010</tspan></tspan></tspan></text>
 <text class="TextShape"><tspan class="TextParagraph" font-family="Liberation Sans, sans-serif" font-size="353px" font-weight="400"><tspan class="TextPosition" x="2187" y="3839"><tspan fill="rgb(0,0,0)" stroke="none">Moreau 2013</tspan></tspan></tspan></text>
 <text class="TextShape"><tspan class="TextParagraph" font-family="Liberation Sans, sans-serif" font-size="353px" font-weight="400"><tspan class="TextPosition" x="1869" y="3501"><tspan fill="rgb(0,0,0)" stroke="none">Schreiber 2008</tspan></tspan></tspan></text>
 <text class="TextShape"><tspan class="TextParagraph" font-family="Liberation Sans, sans-serif" font-size="353px" font-weight="400"><tspan class="TextPosition" x="2160" y="3164"><tspan fill="rgb(0,0,0)" stroke="none">Benson 2014</tspan></tspan></tspan></text>
 <text class="TextShape"><tspan class="TextParagraph" font-family="Liberation Sans, sans-serif" font-size="353px" font-weight="400"><tspan class="TextPosition" x="2531" y="2826"><tspan fill="rgb(0,0,0)" stroke="none">Odell 1994</tspan></tspan></tspan></text>
 <text class="TextShape"><tspan class="TextParagraph" font-family="Liberation Sans, sans-serif" font-size="353px" font-weight="400"><tspan class="TextPosition" x="2319" y="2488"><tspan fill="rgb(0,0,0)" stroke="none">Kumar 2013</tspan></tspan></tspan></text>
 <text class="TextShape"><tspan class="TextParagraph" font-family="Liberation Sans, sans-serif" font-size="353px" font-weight="400"><tspan class="TextPosition" x="2372" y="2150"><tspan fill="rgb(0,0,0)" stroke="none">Halpin 2010</tspan></tspan></tspan></text>
 <text class="TextShape"><tspan class="TextParagraph" font-family="Liberation Sans, sans-serif" font-size="353px" font-weight="400"><tspan class="TextPosition" x="2054" y="1812"><tspan fill="rgb(0,0,0)" stroke="none">Horridge 2006</tspan></tspan></tspan></text>
 <text class="TextShape"><tspan class="TextParagraph" font-family="Liberation Sans, sans-serif" font-size="353px" font-weight="400"><tspan class="TextPosition" x="2345" y="1474"><tspan fill="rgb(0,0,0)" stroke="none">Rosch 1990</tspan></tspan></tspan></text>
 <text class="TextShape"><tspan class="TextParagraph" font-family="Liberation Sans, sans-serif" font-size="353px" font-weight="400"><tspan class="TextPosition" x="2081" y="1136"><tspan fill="rgb(0,0,0)" stroke="none">Clancey 1990</tspan></tspan></tspan></text>
 <text class="TextShape"><tspan class="TextParagraph" font-family="Liberation Sans, sans-serif" font-size="353px" font-weight="400"><tspan class="TextPosition" x="1737" y="798"><tspan fill="rgb(0,0,0)" stroke="none">Van Kleek 2010</tspan></tspan></tspan></text>
 <text class="TextShape"><tspan class="TextParagraph" font-family="Liberation Sans, sans-serif" font-size="353px" font-weight="400"><tspan class="TextPosition" x="2134" y="460"><tspan fill="rgb(0,0,0)" stroke="none">Guarino 2002</tspan></tspan></tspan></text>
 <text class="TextShape"><tspan class="TextParagraph" font-family="Liberation Sans, sans-serif" font-size="353px" font-weight="400"><tspan class="TextPosition" x="4183" y="9485"><tspan fill="rgb(0,0,0)" stroke="none">0.0</tspan></tspan></tspan></text>
 <text class="TextShape"><tspan class="TextParagraph" font-family="Liberation Sans, sans-serif" font-size="353px" font-weight="400"><tspan class="TextPosition" x="5570" y="9485"><tspan fill="rgb(0,0,0)" stroke="none">0.2</tspan></tspan></tspan></text>
 <text class="TextShape"><tspan class="TextParagraph" font-family="Liberation Sans, sans-serif" font-size="353px" font-weight="400"><tspan class="TextPosition" x="6957" y="9485"><tspan fill="rgb(0,0,0)" stroke="none">0.4</tspan></tspan></tspan></text>
 <text class="TextShape"><tspan class="TextParagraph" font-family="Liberation Sans, sans-serif" font-size="353px" font-weight="400"><tspan class="TextPosition" x="8344" y="9485"><tspan fill="rgb(0,0,0)" stroke="none">0.6</tspan></tspan></tspan></text>
 <text class="TextShape"><tspan class="TextParagraph" font-family="Liberation Sans, sans-serif" font-size="353px" font-weight="400"><tspan class="TextPosition" x="9732" y="9485"><tspan fill="rgb(0,0,0)" stroke="none">0.8</tspan></tspan></tspan></text>
 <text class="TextShape"><tspan class="TextParagraph" font-family="Liberation Sans, sans-serif" font-size="353px" font-weight="400"><tspan class="TextPosition" x="11119" y="9485"><tspan fill="rgb(0,0,0)" stroke="none">1.0</tspan></tspan></tspan></text>
 <text class="TextShape"><tspan class="TextParagraph" font-family="Liberation Sans, sans-serif" font-size="353px" font-weight="400"><tspan class="TextPosition" x="12506" y="9485"><tspan fill="rgb(0,0,0)" stroke="none">1.2</tspan></tspan></tspan></text>
 <text class="TextShape"><tspan class="TextParagraph" font-family="Liberation Sans, sans-serif" font-size="353px" font-weight="400"><tspan class="TextPosition" x="13894" y="9485"><tspan fill="rgb(0,0,0)" stroke="none">1.4</tspan></tspan></tspan></text>
 <text class="TextShape"><tspan class="TextParagraph" font-family="Liberation Sans, sans-serif" font-size="353px" font-weight="400"><tspan class="TextPosition" x="15281" y="9485"><tspan fill="rgb(0,0,0)" stroke="none">1.6</tspan></tspan></tspan></text>
 <text class="TextShape"><tspan class="TextParagraph" font-family="Liberation Sans, sans-serif" font-size="353px" font-weight="400"><tspan class="TextPosition" x="16668" y="9485"><tspan fill="rgb(0,0,0)" stroke="none">1.8</tspan></tspan></tspan></text>
 <text class="TextShape"><tspan class="TextParagraph" font-family="Liberation Sans, sans-serif" font-size="353px" font-weight="400"><tspan class="TextPosition" x="18056" y="9485"><tspan fill="rgb(0,0,0)" stroke="none">2.0</tspan></tspan></tspan></text>
 <path fill="rgb(42,106,179)" stroke="none" d="M 19217,5680 L 19111,5680 19111,5469 19322,5469 19322,5680 19217,5680 Z"/>
 <path fill="rgb(255,0,0)" stroke="none" d="M 19217,5262 L 19111,5262 19111,5051 19322,5051 19322,5262 19217,5262 Z"/>
 <text class="TextShape"><tspan class="TextParagraph" font-family="Liberation Sans, sans-serif" font-size="353px" font-weight="400"><tspan class="TextPosition" x="19422" y="5235"><tspan fill="rgb(0,0,0)" stroke="none">removed 2015 or 2016</tspan></tspan></tspan></text>
 <text class="TextShape"><tspan class="TextParagraph" font-family="Liberation Sans, sans-serif" font-size="353px" font-weight="400"><tspan class="TextPosition" x="19422" y="5653"><tspan fill="rgb(0,0,0)" stroke="none">reading list 2017</tspan></tspan></tspan></text>
 <text class="TextShape"><tspan class="TextParagraph" font-family="Liberation Sans, sans-serif" font-size="353px" font-weight="400"><tspan class="TextPosition" x="5120" y="10125"><tspan fill="rgb(0,0,0)" stroke="none">Score (0 = &quot;please remove&quot;; 1 = &quot;mediocre&quot;; 2 = &quot;please keep&quot;)</tspan></tspan></tspan></text>
 <text class="TextShape" transform="translate(823,5339) rotate(-90) translate(-823,-5339)"><tspan class="TextParagraph" font-family="Liberation Sans, sans-serif" font-size="353px" font-weight="400"><tspan class="TextPosition" x="823" y="5339"><tspan fill="rgb(0,0,0)" stroke="none">Paper</tspan></tspan></tspan></text>
</svg>