<?xml version="1.0" encoding="UTF-8"?>
<!DOCTYPE svg PUBLIC "-//W3C//DTD SVG 1.1//EN" "http://www.w3.org/Graphics/SVG/1.1/DTD/svg11.dtd">
<svg width="262mm" height="68mm" viewBox="0 0 26200 6800" version="1.1" xmlns="http://www.w3.org/2000/svg" xmlns:xlink="http://www.w3.org/1999/xlink" stroke-width="28.222" stroke-linejoin="round" xml:space="preserve">
 <path fill="rgb(255,255,255)" stroke="none" d="M 13102,6827 L 17,6827 17,0 26187,0 26187,6827 13102,6827 Z"/>
 <path fill="none" stroke="rgb(179,179,179)" stroke-linejoin="round" d="M 9143,5647 L 1796,5647 1796,534 16490,534 16490,5647 9143,5647 Z"/>
 <path fill="none" stroke="rgb(179,179,179)" stroke-linejoin="round" d="M 16490,5646 L 1796,5646"/>
 <path fill="none" stroke="rgb(179,179,179)" stroke-linejoin="round" d="M 16490,4367 L 1796,4367"/>
 <path fill="none" stroke="rgb(179,179,179)" stroke-linejoin="round" d="M 16490,3090 L 1796,3090"/>
 <path fill="none" stroke="rgb(179,179,179)" stroke-linejoin="round" d="M 16490,1811 L 1796,1811"/>
 <path fill="none" stroke="rgb(179,179,179)" stroke-linejoin="round" d="M 16490,533 L 1796,533"/>
 <path fill="none" stroke="rgb(179,179,179)" stroke-linejoin="round" d="M 1796,5796 L 1796,5646"/>
 <path fill="none" stroke="rgb(179,179,179)" stroke-linejoin="round" d="M 1796,5796 L 1796,5646"/>
 <path fill="none" stroke="rgb(179,179,179)" stroke-linejoin="round" d="M 6694,5796 L 6694,5646"/>
 <path fill="none" stroke="rgb(179,179,179)" stroke-linejoin="round" d="M 6694,5796 L 6694,5646"/>
 <path fill="none" stroke="rgb(179,179,179)" stroke-linejoin="round" d="M 11592,5796 L 11592,5646"/>
 <path fill="none" stroke="rgb(179,179,179)" stroke-linejoin="round" d="M 11592,5796 L 11592,5646"/>
 <path fill="none" stroke="rgb(179,179,179)" stroke-linejoin="round" d="M 16490,5796 L 16490,5646"/>
 <path fill="none" stroke="rgb(179,179,179)" stroke-linejoin="round" d="M 16490,5796 L 16490,5646"/>
 <path fill="none" stroke="rgb(179,179,179)" stroke-linejoin="round" d="M 1796,5646 L 16490,5646"/>
 <path fill="none" stroke="rgb(179,179,179)" stroke-linejoin="round" d="M 1646,5646 L 1796,5646"/>
 <path fill="none" stroke="rgb(179,179,179)" stroke-linejoin="round" d="M 1646,5646 L 1796,5646"/>
 <path fill="none" stroke="rgb(179,179,179)" stroke-linejoin="round" d="M 1646,4367 L 1796,4367"/>
 <path fill="none" stroke="rgb(179,179,179)" stroke-linejoin="round" d="M 1646,4367 L 1796,4367"/>
 <path fill="none" stroke="rgb(179,179,179)" stroke-linejoin="round" d="M 1646,3090 L 1796,3090"/>
 <path fill="none" stroke="rgb(179,179,179)" stroke-linejoin="round" d="M 1646,3090 L 1796,3090"/>
 <path fill="none" stroke="rgb(179,179,179)" stroke-linejoin="round" d="M 1646,1811 L 1796,1811"/>
 <path fill="none" stroke="rgb(179,179,179)" stroke-linejoin="round" d="M 1646,1811 L 1796,1811"/>
 <path fill="none" stroke="rgb(179,179,179)" stroke-linejoin="round" d="M 1646,533 L 1796,533"/>
 <path fill="none" stroke="rgb(179,179,179)" stroke-linejoin="round" d="M 1646,533 L 1796,533"/>
 <path fill="none" stroke="rgb(179,179,179)" stroke-linejoin="round" d="M 1796,5646 L 1796,533"/>
 <path fill="none" stroke="rgb(221,102,102)" stroke-width="80" stroke-linejoin="round" d="M 1796,2706 L 6694,2629 11592,1402 16490,1734"/>
 <path fill="rgb(221,102,102)" stroke="none" d="M 1671,2581 L 1671,2831 1921,2831 1921,2581 1671,2581 Z"/>
 <path fill="none" stroke="rgb(221,102,102)" stroke-linejoin="round" d="M 1671,2581 L 1671,2831 1921,2831 1921,2581 1671,2581 Z"/>
 <path fill="rgb(221,102,102)" stroke="none" d="M 6569,2504 L 6569,2754 6819,2754 6819,2504 6569,2504 Z"/>
 <path fill="none" stroke="rgb(221,102,102)" stroke-linejoin="round" d="M 6569,2504 L 6569,2754 6819,2754 6819,2504 6569,2504 Z"/>
 <path fill="rgb(221,102,102)" stroke="none" d="M 11467,1277 L 11467,1527 11717,1527 11717,1277 11467,1277 Z"/>
 <path fill="none" stroke="rgb(221,102,102)" stroke-linejoin="round" d="M 11467,1277 L 11467,1527 11717,1527 11717,1277 11467,1277 Z"/>
 <path fill="rgb(221,102,102)" stroke="none" d="M 16365,1609 L 16365,1859 16615,1859 16615,1609 16365,1609 Z"/>
 <path fill="none" stroke="rgb(221,102,102)" stroke-linejoin="round" d="M 16365,1609 L 16365,1859 16615,1859 16615,1609 16365,1609 Z"/>
 <text class="TextShape"><tspan class="TextParagraph" font-family="Liberation Sans, sans-serif" font-size="706px" font-weight="400"><tspan class="TextPosition" x="1002" y="6531"><tspan fill="rgb(0,0,0)" stroke="none">2015</tspan></tspan></tspan></text>
 <text class="TextShape"><tspan class="TextParagraph" font-family="Liberation Sans, sans-serif" font-size="706px" font-weight="400"><tspan class="TextPosition" x="5900" y="6531"><tspan fill="rgb(0,0,0)" stroke="none">2016</tspan></tspan></tspan></text>
 <text class="TextShape"><tspan class="TextParagraph" font-family="Liberation Sans, sans-serif" font-size="706px" font-weight="400"><tspan class="TextPosition" x="10798" y="6531"><tspan fill="rgb(0,0,0)" stroke="none">2017</tspan></tspan></tspan></text>
 <text class="TextShape"><tspan class="TextParagraph" font-family="Liberation Sans, sans-serif" font-size="706px" font-weight="400"><tspan class="TextPosition" x="15697" y="6531"><tspan fill="rgb(0,0,0)" stroke="none">2018</tspan></tspan></tspan></text>
 <text class="TextShape"><tspan class="TextParagraph" font-family="Liberation Sans, sans-serif" font-size="706px" font-weight="400"><tspan class="TextPosition" x="1149" y="5885"><tspan fill="rgb(0,0,0)" stroke="none">3</tspan></tspan></tspan></text>
 <text class="TextShape"><tspan class="TextParagraph" font-family="Liberation Sans, sans-serif" font-size="706px" font-weight="400"><tspan class="TextPosition" x="541" y="4606"><tspan fill="rgb(0,0,0)" stroke="none">3.5</tspan></tspan></tspan></text>
 <text class="TextShape"><tspan class="TextParagraph" font-family="Liberation Sans, sans-serif" font-size="706px" font-weight="400"><tspan class="TextPosition" x="1149" y="3328"><tspan fill="rgb(0,0,0)" stroke="none">4</tspan></tspan></tspan></text>
 <text class="TextShape"><tspan class="TextParagraph" font-family="Liberation Sans, sans-serif" font-size="706px" font-weight="400"><tspan class="TextPosition" x="541" y="2049"><tspan fill="rgb(0,0,0)" stroke="none">4.5</tspan></tspan></tspan></text>
 <text class="TextShape"><tspan class="TextParagraph" font-family="Liberation Sans, sans-serif" font-size="706px" font-weight="400"><tspan class="TextPosition" x="1149" y="771"><tspan fill="rgb(0,0,0)" stroke="none">5</tspan></tspan></tspan></text>
 <path fill="none" stroke="rgb(221,102,102)" stroke-width="80" stroke-linejoin="round" d="M 18041,3413 L 18841,3413"/>
 <path fill="rgb(221,102,102)" stroke="none" d="M 18229,3202 L 18229,3624 18652,3624 18652,3202 18229,3202 Z"/>
 <path fill="none" stroke="rgb(221,102,102)" stroke-linejoin="round" d="M 18229,3202 L 18229,3624 18652,3624 18652,3202 18229,3202 Z"/>
 <text class="TextShape"><tspan class="TextParagraph" font-family="Liberation Sans, sans-serif" font-size="706px" font-weight="400"><tspan class="TextPosition" x="18996" y="3650"><tspan fill="rgb(0,0,0)" stroke="none">overall teacher rating</tspan></tspan></tspan></text>
</svg>