<?xml version="1.0" encoding="UTF-8"?>
<!DOCTYPE svg PUBLIC "-//W3C//DTD SVG 1.1//EN" "http://www.w3.org/Graphics/SVG/1.1/DTD/svg11.dtd">
<svg width="262mm" height="68mm" viewBox="0 0 26200 6800" version="1.1" xmlns="http://www.w3.org/2000/svg" xmlns:xlink="http://www.w3.org/1999/xlink" stroke-width="28.222" stroke-linejoin="round" xml:space="preserve">
 <path fill="rgb(255,255,255)" stroke="none" d="M 13106,6827 L 21,6827 21,0 26191,0 26191,6827 13106,6827 Z"/>
 <path fill="none" stroke="rgb(179,179,179)" stroke-linejoin="round" d="M 9147,5647 L 1800,5647 1800,534 16494,534 16494,5647 9147,5647 Z"/>
 <path fill="none" stroke="rgb(179,179,179)" stroke-linejoin="round" d="M 16494,5646 L 1800,5646"/>
 <path fill="none" stroke="rgb(179,179,179)" stroke-linejoin="round" d="M 16494,4367 L 1800,4367"/>
 <path fill="none" stroke="rgb(179,179,179)" stroke-linejoin="round" d="M 16494,3090 L 1800,3090"/>
 <path fill="none" stroke="rgb(179,179,179)" stroke-linejoin="round" d="M 16494,1811 L 1800,1811"/>
 <path fill="none" stroke="rgb(179,179,179)" stroke-linejoin="round" d="M 16494,533 L 1800,533"/>
 <path fill="none" stroke="rgb(179,179,179)" stroke-linejoin="round" d="M 1800,5796 L 1800,5646"/>
 <path fill="none" stroke="rgb(179,179,179)" stroke-linejoin="round" d="M 1800,5796 L 1800,5646"/>
 <path fill="none" stroke="rgb(179,179,179)" stroke-linejoin="round" d="M 6698,5796 L 6698,5646"/>
 <path fill="none" stroke="rgb(179,179,179)" stroke-linejoin="round" d="M 6698,5796 L 6698,5646"/>
 <path fill="none" stroke="rgb(179,179,179)" stroke-linejoin="round" d="M 11596,5796 L 11596,5646"/>
 <path fill="none" stroke="rgb(179,179,179)" stroke-linejoin="round" d="M 11596,5796 L 11596,5646"/>
 <path fill="none" stroke="rgb(179,179,179)" stroke-linejoin="round" d="M 16494,5796 L 16494,5646"/>
 <path fill="none" stroke="rgb(179,179,179)" stroke-linejoin="round" d="M 16494,5796 L 16494,5646"/>
 <path fill="none" stroke="rgb(179,179,179)" stroke-linejoin="round" d="M 1800,5646 L 16494,5646"/>
 <path fill="none" stroke="rgb(179,179,179)" stroke-linejoin="round" d="M 1650,5646 L 1800,5646"/>
 <path fill="none" stroke="rgb(179,179,179)" stroke-linejoin="round" d="M 1650,5646 L 1800,5646"/>
 <path fill="none" stroke="rgb(179,179,179)" stroke-linejoin="round" d="M 1650,4367 L 1800,4367"/>
 <path fill="none" stroke="rgb(179,179,179)" stroke-linejoin="round" d="M 1650,4367 L 1800,4367"/>
 <path fill="none" stroke="rgb(179,179,179)" stroke-linejoin="round" d="M 1650,3090 L 1800,3090"/>
 <path fill="none" stroke="rgb(179,179,179)" stroke-linejoin="round" d="M 1650,3090 L 1800,3090"/>
 <path fill="none" stroke="rgb(179,179,179)" stroke-linejoin="round" d="M 1650,1811 L 1800,1811"/>
 <path fill="none" stroke="rgb(179,179,179)" stroke-linejoin="round" d="M 1650,1811 L 1800,1811"/>
 <path fill="none" stroke="rgb(179,179,179)" stroke-linejoin="round" d="M 1650,533 L 1800,533"/>
 <path fill="none" stroke="rgb(179,179,179)" stroke-linejoin="round" d="M 1650,533 L 1800,533"/>
 <path fill="none" stroke="rgb(179,179,179)" stroke-linejoin="round" d="M 1800,5646 L 1800,533"/>
 <path fill="none" stroke="rgb(221,102,102)" stroke-width="80" stroke-linejoin="round" d="M 1800,2706 L 6698,2629 11596,1402 16494,1734"/>
 <path fill="rgb(221,102,102)" stroke="none" d="M 1675,2581 L 1675,2831 1925,2831 1925,2581 1675,2581 Z"/>
 <path fill="none" stroke="rgb(221,102,102)" stroke-linejoin="round" d="M 1675,2581 L 1675,2831 1925,2831 1925,2581 1675,2581 Z"/>
 <path fill="rgb(221,102,102)" stroke="none" d="M 6573,2504 L 6573,2754 6823,2754 6823,2504 6573,2504 Z"/>
 <path fill="none" stroke="rgb(221,102,102)" stroke-linejoin="round" d="M 6573,2504 L 6573,2754 6823,2754 6823,2504 6573,2504 Z"/>
 <path fill="rgb(221,102,102)" stroke="none" d="M 11471,1277 L 11471,1527 11721,1527 11721,1277 11471,1277 Z"/>
 <path fill="none" stroke="rgb(221,102,102)" stroke-linejoin="round" d="M 11471,1277 L 11471,1527 11721,1527 11721,1277 11471,1277 Z"/>
 <path fill="rgb(221,102,102)" stroke="none" d="M 16369,1609 L 16369,1859 16619,1859 16619,1609 16369,1609 Z"/>
 <path fill="none" stroke="rgb(221,102,102)" stroke-linejoin="round" d="M 16369,1609 L 16369,1859 16619,1859 16619,1609 16369,1609 Z"/>
 <path fill="none" stroke="rgb(102,102,187)" stroke-width="80" stroke-linejoin="round" d="M 1800,2629 L 6698,3523 11596,3396 16494,3396"/>
 <path fill="rgb(102,102,187)" stroke="none" d="M 1925,2629 L 1924,2624 1924,2618 1923,2613 1923,2608 1922,2602 1920,2597 1919,2592 1917,2586 1915,2581 1913,2576 1910,2572 1908,2567 1905,2562 1902,2558 1899,2553 1895,2549 1892,2545 1888,2541 1884,2537 1880,2533 1876,2530 1871,2527 1867,2524 1862,2521 1857,2518 1852,2516 1847,2514 1842,2512 1837,2510 1832,2508 1827,2507 1821,2506 1816,2505 1810,2505 1805,2504 1800,2504 1794,2504 1789,2505 1783,2505 1778,2506 1772,2507 1767,2508 1762,2510 1757,2512 1752,2514 1747,2516 1742,2518 1737,2521 1732,2524 1728,2527 1723,2530 1719,2533 1715,2537 1711,2541 1707,2545 1704,2549 1700,2553 1697,2558 1694,2562 1691,2567 1689,2572 1686,2576 1684,2581 1682,2586 1680,2592 1679,2597 1677,2602 1676,2608 1676,2613 1675,2618 1675,2624 1675,2629 1675,2635 1675,2640 1676,2646 1676,2651 1677,2656 1679,2662 1680,2667 1682,2672 1684,2677 1686,2682 1689,2687 1691,2692 1694,2696 1697,2701 1700,2705 1704,2710 1707,2714 1711,2718 1715,2721 1719,2725 1723,2728 1728,2732 1732,2735 1737,2737 1742,2740 1747,2743 1752,2745 1757,2747 1762,2748 1767,2750 1772,2751 1778,2752 1783,2753 1789,2754 1794,2754 1800,2754 1805,2754 1810,2754 1816,2753 1821,2752 1827,2751 1832,2750 1837,2748 1842,2747 1847,2745 1852,2743 1857,2740 1862,2737 1867,2735 1871,2732 1876,2728 1880,2725 1884,2721 1888,2718 1892,2714 1895,2710 1899,2705 1902,2701 1905,2696 1908,2692 1910,2687 1913,2682 1915,2677 1917,2672 1919,2667 1920,2662 1922,2656 1923,2651 1923,2646 1924,2640 1924,2635 1925,2629 Z"/>
 <path fill="none" stroke="rgb(102,102,187)" stroke-linejoin="round" d="M 1925,2629 L 1924,2624 1924,2618 1923,2613 1923,2608 1922,2602 1920,2597 1919,2592 1917,2586 1915,2581 1913,2576 1910,2572 1908,2567 1905,2562 1902,2558 1899,2553 1895,2549 1892,2545 1888,2541 1884,2537 1880,2533 1876,2530 1871,2527 1867,2524 1862,2521 1857,2518 1852,2516 1847,2514 1842,2512 1837,2510 1832,2508 1827,2507 1821,2506 1816,2505 1810,2505 1805,2504 1800,2504 1794,2504 1789,2505 1783,2505 1778,2506 1772,2507 1767,2508 1762,2510 1757,2512 1752,2514 1747,2516 1742,2518 1737,2521 1732,2524 1728,2527 1723,2530 1719,2533 1715,2537 1711,2541 1707,2545 1704,2549 1700,2553 1697,2558 1694,2562 1691,2567 1689,2572 1686,2576 1684,2581 1682,2586 1680,2592 1679,2597 1677,2602 1676,2608 1676,2613 1675,2618 1675,2624 1675,2629 1675,2635 1675,2640 1676,2646 1676,2651 1677,2656 1679,2662 1680,2667 1682,2672 1684,2677 1686,2682 1689,2687 1691,2692 1694,2696 1697,2701 1700,2705 1704,2710 1707,2714 1711,2718 1715,2721 1719,2725 1723,2728 1728,2732 1732,2735 1737,2737 1742,2740 1747,2743 1752,2745 1757,2747 1762,2748 1767,2750 1772,2751 1778,2752 1783,2753 1789,2754 1794,2754 1800,2754 1805,2754 1810,2754 1816,2753 1821,2752 1827,2751 1832,2750 1837,2748 1842,2747 1847,2745 1852,2743 1857,2740 1862,2737 1867,2735 1871,2732 1876,2728 1880,2725 1884,2721 1888,2718 1892,2714 1895,2710 1899,2705 1902,2701 1905,2696 1908,2692 1910,2687 1913,2682 1915,2677 1917,2672 1919,2667 1920,2662 1922,2656 1923,2651 1923,2646 1924,2640 1924,2635 1925,2629 Z"/>
 <path fill="rgb(102,102,187)" stroke="none" d="M 6823,3523 L 6823,3518 6822,3512 6822,3507 6821,3501 6820,3496 6819,3491 6817,3486 6815,3480 6813,3475 6811,3470 6809,3465 6806,3461 6803,3456 6800,3451 6797,3447 6794,3443 6790,3439 6786,3435 6782,3431 6778,3427 6774,3424 6770,3421 6765,3418 6760,3415 6756,3413 6751,3411 6746,3409 6741,3407 6735,3405 6730,3403 6725,3402 6720,3401 6714,3400 6709,3400 6703,3399 6698,3399 6692,3399 6687,3400 6682,3400 6676,3401 6671,3402 6665,3403 6660,3405 6655,3407 6650,3409 6645,3411 6640,3413 6635,3415 6631,3418 6626,3421 6622,3424 6617,3427 6613,3431 6609,3435 6606,3439 6602,3443 6599,3447 6595,3451 6592,3456 6590,3461 6587,3465 6585,3470 6582,3475 6580,3480 6579,3486 6577,3491 6576,3496 6575,3501 6574,3507 6573,3512 6573,3518 6573,3523 6573,3529 6573,3534 6574,3540 6575,3545 6576,3550 6577,3556 6579,3561 6580,3566 6582,3571 6585,3576 6587,3581 6590,3586 6592,3590 6595,3595 6599,3599 6602,3604 6606,3608 6609,3612 6613,3615 6617,3619 6622,3622 6626,3626 6631,3629 6635,3631 6640,3634 6645,3636 6650,3639 6655,3641 6660,3642 6665,3644 6671,3645 6676,3646 6682,3647 6687,3648 6692,3648 6698,3648 6703,3648 6709,3648 6714,3647 6720,3646 6725,3645 6730,3644 6735,3642 6741,3641 6746,3639 6751,3636 6756,3634 6760,3631 6765,3629 6770,3626 6774,3622 6778,3619 6782,3615 6786,3612 6790,3608 6794,3604 6797,3599 6800,3595 6803,3590 6806,3586 6809,3581 6811,3576 6813,3571 6815,3566 6817,3561 6819,3556 6820,3550 6821,3545 6822,3540 6822,3534 6823,3529 6823,3523 Z"/>
 <path fill="none" stroke="rgb(102,102,187)" stroke-linejoin="round" d="M 6823,3523 L 6823,3518 6822,3512 6822,3507 6821,3501 6820,3496 6819,3491 6817,3486 6815,3480 6813,3475 6811,3470 6809,3465 6806,3461 6803,3456 6800,3451 6797,3447 6794,3443 6790,3439 6786,3435 6782,3431 6778,3427 6774,3424 6770,3421 6765,3418 6760,3415 6756,3413 6751,3411 6746,3409 6741,3407 6735,3405 6730,3403 6725,3402 6720,3401 6714,3400 6709,3400 6703,3399 6698,3399 6692,3399 6687,3400 6682,3400 6676,3401 6671,3402 6665,3403 6660,3405 6655,3407 6650,3409 6645,3411 6640,3413 6635,3415 6631,3418 6626,3421 6622,3424 6617,3427 6613,3431 6609,3435 6606,3439 6602,3443 6599,3447 6595,3451 6592,3456 6590,3461 6587,3465 6585,3470 6582,3475 6580,3480 6579,3486 6577,3491 6576,3496 6575,3501 6574,3507 6573,3512 6573,3518 6573,3523 6573,3529 6573,3534 6574,3540 6575,3545 6576,3550 6577,3556 6579,3561 6580,3566 6582,3571 6585,3576 6587,3581 6590,3586 6592,3590 6595,3595 6599,3599 6602,3604 6606,3608 6609,3612 6613,3615 6617,3619 6622,3622 6626,3626 6631,3629 6635,3631 6640,3634 6645,3636 6650,3639 6655,3641 6660,3642 6665,3644 6671,3645 6676,3646 6682,3647 6687,3648 6692,3648 6698,3648 6703,3648 6709,3648 6714,3647 6720,3646 6725,3645 6730,3644 6735,3642 6741,3641 6746,3639 6751,3636 6756,3634 6760,3631 6765,3629 6770,3626 6774,3622 6778,3619 6782,3615 6786,3612 6790,3608 6794,3604 6797,3599 6800,3595 6803,3590 6806,3586 6809,3581 6811,3576 6813,3571 6815,3566 6817,3561 6819,3556 6820,3550 6821,3545 6822,3540 6822,3534 6823,3529 6823,3523 Z"/>
 <path fill="rgb(102,102,187)" stroke="none" d="M 11721,3396 L 11721,3391 11721,3385 11720,3380 11719,3375 11718,3369 11717,3364 11715,3359 11714,3354 11712,3349 11709,3344 11707,3339 11704,3334 11702,3329 11699,3325 11695,3320 11692,3316 11688,3312 11685,3308 11681,3304 11677,3301 11672,3297 11668,3294 11663,3291 11659,3288 11654,3285 11649,3283 11644,3281 11639,3279 11634,3277 11629,3276 11623,3274 11618,3273 11612,3272 11607,3272 11602,3271 11596,3271 11591,3271 11585,3272 11580,3272 11574,3273 11569,3274 11564,3276 11559,3277 11553,3279 11548,3281 11543,3283 11538,3285 11534,3288 11529,3291 11524,3294 11520,3297 11516,3301 11512,3304 11508,3308 11504,3312 11500,3316 11497,3320 11494,3325 11491,3329 11488,3334 11485,3339 11483,3344 11481,3349 11479,3354 11477,3359 11475,3364 11474,3369 11473,3375 11472,3380 11472,3385 11471,3391 11471,3396 11471,3402 11472,3407 11472,3413 11473,3417 11474,3422 11475,3428 11477,3433 11479,3438 11481,3443 11483,3448 11485,3453 11488,3458 11491,3463 11494,3467 11497,3471 11500,3476 11504,3480 11508,3484 11512,3487 11516,3491 11520,3495 11524,3498 11529,3501 11534,3504 11538,3506 11543,3509 11548,3511 11553,3513 11559,3515 11564,3516 11569,3517 11574,3518 11580,3519 11585,3520 11591,3520 11596,3520 11602,3520 11607,3520 11612,3519 11618,3518 11623,3517 11629,3516 11634,3515 11639,3513 11644,3511 11649,3509 11654,3506 11659,3504 11663,3501 11668,3498 11672,3495 11677,3491 11681,3487 11685,3484 11688,3480 11692,3476 11695,3471 11699,3467 11702,3463 11704,3458 11707,3453 11709,3448 11712,3443 11714,3438 11715,3433 11717,3428 11718,3422 11719,3417 11720,3413 11721,3407 11721,3402 11721,3396 Z"/>
 <path fill="none" stroke="rgb(102,102,187)" stroke-linejoin="round" d="M 11721,3396 L 11721,3391 11721,3385 11720,3380 11719,3375 11718,3369 11717,3364 11715,3359 11714,3354 11712,3349 11709,3344 11707,3339 11704,3334 11702,3329 11699,3325 11695,3320 11692,3316 11688,3312 11685,3308 11681,3304 11677,3301 11672,3297 11668,3294 11663,3291 11659,3288 11654,3285 11649,3283 11644,3281 11639,3279 11634,3277 11629,3276 11623,3274 11618,3273 11612,3272 11607,3272 11602,3271 11596,3271 11591,3271 11585,3272 11580,3272 11574,3273 11569,3274 11564,3276 11559,3277 11553,3279 11548,3281 11543,3283 11538,3285 11534,3288 11529,3291 11524,3294 11520,3297 11516,3301 11512,3304 11508,3308 11504,3312 11500,3316 11497,3320 11494,3325 11491,3329 11488,3334 11485,3339 11483,3344 11481,3349 11479,3354 11477,3359 11475,3364 11474,3369 11473,3375 11472,3380 11472,3385 11471,3391 11471,3396 11471,3402 11472,3407 11472,3413 11473,3417 11474,3422 11475,3428 11477,3433 11479,3438 11481,3443 11483,3448 11485,3453 11488,3458 11491,3463 11494,3467 11497,3471 11500,3476 11504,3480 11508,3484 11512,3487 11516,3491 11520,3495 11524,3498 11529,3501 11534,3504 11538,3506 11543,3509 11548,3511 11553,3513 11559,3515 11564,3516 11569,3517 11574,3518 11580,3519 11585,3520 11591,3520 11596,3520 11602,3520 11607,3520 11612,3519 11618,3518 11623,3517 11629,3516 11634,3515 11639,3513 11644,3511 11649,3509 11654,3506 11659,3504 11663,3501 11668,3498 11672,3495 11677,3491 11681,3487 11685,3484 11688,3480 11692,3476 11695,3471 11699,3467 11702,3463 11704,3458 11707,3453 11709,3448 11712,3443 11714,3438 11715,3433 11717,3428 11718,3422 11719,3417 11720,3413 11721,3407 11721,3402 11721,3396 Z"/>
 <path fill="rgb(102,102,187)" stroke="none" d="M 16619,3396 L 16618,3391 16618,3385 16617,3380 16617,3375 16616,3369 16614,3364 16613,3359 16611,3354 16609,3349 16607,3344 16604,3339 16602,3334 16599,3329 16596,3325 16593,3320 16589,3316 16586,3312 16582,3308 16578,3304 16574,3301 16570,3297 16565,3294 16561,3291 16556,3288 16551,3285 16546,3283 16541,3281 16536,3279 16531,3277 16526,3276 16521,3274 16515,3273 16510,3272 16504,3272 16499,3271 16494,3271 16488,3271 16483,3272 16477,3272 16472,3273 16466,3274 16461,3276 16456,3277 16451,3279 16446,3281 16441,3283 16436,3285 16431,3288 16426,3291 16422,3294 16417,3297 16413,3301 16409,3304 16405,3308 16401,3312 16398,3316 16394,3320 16391,3325 16388,3329 16385,3334 16383,3339 16380,3344 16378,3349 16376,3354 16374,3359 16373,3364 16371,3369 16370,3375 16370,3380 16369,3385 16369,3391 16369,3396 16369,3402 16369,3407 16370,3413 16370,3417 16371,3422 16373,3428 16374,3433 16376,3438 16378,3443 16380,3448 16383,3453 16385,3458 16388,3463 16391,3467 16394,3471 16398,3476 16401,3480 16405,3484 16409,3487 16413,3491 16417,3495 16422,3498 16426,3501 16431,3504 16436,3506 16441,3509 16446,3511 16451,3513 16456,3515 16461,3516 16466,3517 16472,3518 16477,3519 16483,3520 16488,3520 16494,3520 16499,3520 16504,3520 16510,3519 16515,3518 16521,3517 16526,3516 16531,3515 16536,3513 16541,3511 16546,3509 16551,3506 16556,3504 16561,3501 16565,3498 16570,3495 16574,3491 16578,3487 16582,3484 16586,3480 16589,3476 16593,3471 16596,3467 16599,3463 16602,3458 16604,3453 16607,3448 16609,3443 16611,3438 16613,3433 16614,3428 16616,3422 16617,3417 16617,3413 16618,3407 16618,3402 16619,3396 Z"/>
 <path fill="none" stroke="rgb(102,102,187)" stroke-linejoin="round" d="M 16619,3396 L 16618,3391 16618,3385 16617,3380 16617,3375 16616,3369 16614,3364 16613,3359 16611,3354 16609,3349 16607,3344 16604,3339 16602,3334 16599,3329 16596,3325 16593,3320 16589,3316 16586,3312 16582,3308 16578,3304 16574,3301 16570,3297 16565,3294 16561,3291 16556,3288 16551,3285 16546,3283 16541,3281 16536,3279 16531,3277 16526,3276 16521,3274 16515,3273 16510,3272 16504,3272 16499,3271 16494,3271 16488,3271 16483,3272 16477,3272 16472,3273 16466,3274 16461,3276 16456,3277 16451,3279 16446,3281 16441,3283 16436,3285 16431,3288 16426,3291 16422,3294 16417,3297 16413,3301 16409,3304 16405,3308 16401,3312 16398,3316 16394,3320 16391,3325 16388,3329 16385,3334 16383,3339 16380,3344 16378,3349 16376,3354 16374,3359 16373,3364 16371,3369 16370,3375 16370,3380 16369,3385 16369,3391 16369,3396 16369,3402 16369,3407 16370,3413 16370,3417 16371,3422 16373,3428 16374,3433 16376,3438 16378,3443 16380,3448 16383,3453 16385,3458 16388,3463 16391,3467 16394,3471 16398,3476 16401,3480 16405,3484 16409,3487 16413,3491 16417,3495 16422,3498 16426,3501 16431,3504 16436,3506 16441,3509 16446,3511 16451,3513 16456,3515 16461,3516 16466,3517 16472,3518 16477,3519 16483,3520 16488,3520 16494,3520 16499,3520 16504,3520 16510,3519 16515,3518 16521,3517 16526,3516 16531,3515 16536,3513 16541,3511 16546,3509 16551,3506 16556,3504 16561,3501 16565,3498 16570,3495 16574,3491 16578,3487 16582,3484 16586,3480 16589,3476 16593,3471 16596,3467 16599,3463 16602,3458 16604,3453 16607,3448 16609,3443 16611,3438 16613,3433 16614,3428 16616,3422 16617,3417 16617,3413 16618,3407 16618,3402 16619,3396 Z"/>
 <text class="TextShape"><tspan class="TextParagraph" font-family="Liberation Sans, sans-serif" font-size="706px" font-weight="400"><tspan class="TextPosition" x="1006" y="6531"><tspan fill="rgb(0,0,0)" stroke="none">2015</tspan></tspan></tspan></text>
 <text class="TextShape"><tspan class="TextParagraph" font-family="Liberation Sans, sans-serif" font-size="706px" font-weight="400"><tspan class="TextPosition" x="5904" y="6531"><tspan fill="rgb(0,0,0)" stroke="none">2016</tspan></tspan></tspan></text>
 <text class="TextShape"><tspan class="TextParagraph" font-family="Liberation Sans, sans-serif" font-size="706px" font-weight="400"><tspan class="TextPosition" x="10802" y="6531"><tspan fill="rgb(0,0,0)" stroke="none">2017</tspan></tspan></tspan></text>
 <text class="TextShape"><tspan class="TextParagraph" font-family="Liberation Sans, sans-serif" font-size="706px" font-weight="400"><tspan class="TextPosition" x="15701" y="6531"><tspan fill="rgb(0,0,0)" stroke="none">2018</tspan></tspan></tspan></text>
 <text class="TextShape"><tspan class="TextParagraph" font-family="Liberation Sans, sans-serif" font-size="706px" font-weight="400"><tspan class="TextPosition" x="1153" y="5885"><tspan fill="rgb(0,0,0)" stroke="none">3</tspan></tspan></tspan></text>
 <text class="TextShape"><tspan class="TextParagraph" font-family="Liberation Sans, sans-serif" font-size="706px" font-weight="400"><tspan class="TextPosition" x="545" y="4606"><tspan fill="rgb(0,0,0)" stroke="none">3.5</tspan></tspan></tspan></text>
 <text class="TextShape"><tspan class="TextParagraph" font-family="Liberation Sans, sans-serif" font-size="706px" font-weight="400"><tspan class="TextPosition" x="1153" y="3328"><tspan fill="rgb(0,0,0)" stroke="none">4</tspan></tspan></tspan></text>
 <text class="TextShape"><tspan class="TextParagraph" font-family="Liberation Sans, sans-serif" font-size="706px" font-weight="400"><tspan class="TextPosition" x="545" y="2049"><tspan fill="rgb(0,0,0)" stroke="none">4.5</tspan></tspan></tspan></text>
 <text class="TextShape"><tspan class="TextParagraph" font-family="Liberation Sans, sans-serif" font-size="706px" font-weight="400"><tspan class="TextPosition" x="1153" y="771"><tspan fill="rgb(0,0,0)" stroke="none">5</tspan></tspan></tspan></text>
 <path fill="none" stroke="rgb(221,102,102)" stroke-width="80" stroke-linejoin="round" d="M 18045,2945 L 18845,2945"/>
 <path fill="rgb(221,102,102)" stroke="none" d="M 18233,2734 L 18233,3157 18656,3157 18656,2734 18233,2734 Z"/>
 <path fill="none" stroke="rgb(221,102,102)" stroke-linejoin="round" d="M 18233,2734 L 18233,3157 18656,3157 18656,2734 18233,2734 Z"/>
 <path fill="none" stroke="rgb(102,102,187)" stroke-width="80" stroke-linejoin="round" d="M 18045,3880 L 18845,3880"/>
 <path fill="rgb(102,102,187)" stroke="none" d="M 18656,3880 L 18656,3871 18655,3862 18654,3852 18653,3843 18651,3834 18649,3825 18646,3816 18643,3808 18640,3799 18636,3791 18632,3782 18628,3774 18623,3766 18618,3759 18612,3751 18607,3744 18600,3737 18594,3730 18587,3724 18580,3718 18573,3712 18566,3707 18558,3702 18550,3697 18542,3692 18534,3688 18525,3685 18517,3681 18508,3678 18499,3676 18490,3674 18481,3672 18472,3670 18463,3669 18454,3669 18445,3669 18435,3669 18426,3669 18417,3670 18408,3672 18399,3674 18390,3676 18381,3678 18372,3681 18364,3685 18355,3688 18347,3692 18339,3697 18331,3702 18323,3707 18316,3712 18309,3718 18302,3724 18295,3730 18289,3737 18282,3744 18277,3751 18271,3759 18266,3766 18261,3774 18257,3782 18253,3791 18249,3799 18246,3808 18243,3816 18240,3825 18238,3834 18236,3843 18235,3852 18234,3862 18233,3871 18233,3880 18233,3889 18234,3898 18235,3908 18236,3917 18238,3926 18240,3935 18243,3944 18246,3952 18249,3961 18253,3969 18257,3978 18261,3986 18266,3994 18271,4001 18277,4009 18282,4016 18289,4023 18295,4030 18302,4036 18309,4042 18316,4048 18323,4053 18331,4058 18339,4063 18347,4068 18355,4072 18364,4075 18372,4079 18381,4082 18390,4084 18399,4086 18408,4088 18417,4090 18426,4091 18435,4091 18445,4092 18454,4091 18463,4091 18472,4090 18481,4088 18490,4086 18499,4084 18508,4082 18517,4079 18525,4075 18534,4072 18542,4068 18550,4063 18558,4058 18566,4053 18573,4048 18580,4042 18587,4036 18594,4030 18600,4023 18607,4016 18612,4009 18618,4001 18623,3994 18628,3986 18632,3978 18636,3969 18640,3961 18643,3952 18646,3944 18649,3935 18651,3926 18653,3917 18654,3908 18655,3898 18656,3889 18656,3880 Z"/>
 <path fill="none" stroke="rgb(102,102,187)" stroke-linejoin="round" d="M 18656,3880 L 18656,3871 18655,3862 18654,3852 18653,3843 18651,3834 18649,3825 18646,3816 18643,3808 18640,3799 18636,3791 18632,3782 18628,3774 18623,3766 18618,3759 18612,3751 18607,3744 18600,3737 18594,3730 18587,3724 18580,3718 18573,3712 18566,3707 18558,3702 18550,3697 18542,3692 18534,3688 18525,3685 18517,3681 18508,3678 18499,3676 18490,3674 18481,3672 18472,3670 18463,3669 18454,3669 18445,3669 18435,3669 18426,3669 18417,3670 18408,3672 18399,3674 18390,3676 18381,3678 18372,3681 18364,3685 18355,3688 18347,3692 18339,3697 18331,3702 18323,3707 18316,3712 18309,3718 18302,3724 18295,3730 18289,3737 18282,3744 18277,3751 18271,3759 18266,3766 18261,3774 18257,3782 18253,3791 18249,3799 18246,3808 18243,3816 18240,3825 18238,3834 18236,3843 18235,3852 18234,3862 18233,3871 18233,3880 18233,3889 18234,3898 18235,3908 18236,3917 18238,3926 18240,3935 18243,3944 18246,3952 18249,3961 18253,3969 18257,3978 18261,3986 18266,3994 18271,4001 18277,4009 18282,4016 18289,4023 18295,4030 18302,4036 18309,4042 18316,4048 18323,4053 18331,4058 18339,4063 18347,4068 18355,4072 18364,4075 18372,4079 18381,4082 18390,4084 18399,4086 18408,4088 18417,4090 18426,4091 18435,4091 18445,4092 18454,4091 18463,4091 18472,4090 18481,4088 18490,4086 18499,4084 18508,4082 18517,4079 18525,4075 18534,4072 18542,4068 18550,4063 18558,4058 18566,4053 18573,4048 18580,4042 18587,4036 18594,4030 18600,4023 18607,4016 18612,4009 18618,4001 18623,3994 18628,3986 18632,3978 18636,3969 18640,3961 18643,3952 18646,3944 18649,3935 18651,3926 18653,3917 18654,3908 18655,3898 18656,3889 18656,3880 Z"/>
 <text class="TextShape"><tspan class="TextParagraph" font-family="Liberation Sans, sans-serif" font-size="706px" font-weight="400"><tspan class="TextPosition" x="19000" y="3183"><tspan fill="rgb(0,0,0)" stroke="none">overall teacher rating</tspan></tspan></tspan></text>
 <text class="TextShape"><tspan class="TextParagraph" font-family="Liberation Sans, sans-serif" font-size="706px" font-weight="400"><tspan class="TextPosition" x="19000" y="4118"><tspan fill="rgb(0,0,0)" stroke="none">faculty average</tspan></tspan></tspan></text>
</svg>