<svg xmlns="http://www.w3.org/2000/svg" viewBox="0 0 24 24">
    <path fill="#d66" d="M 15.5 2 A 2.5 2.5 0 0 0 13 4.5 A 2.5 2.5 0 0 0 13.378906 5.8183594 L 12.052734 8.1425781 A 4 4 0 0 0 11 8 A 4 4 0 0 0 9.2929688 8.3886719 L 7.7636719 6.5546875 A 2.5 2.5 0 0 0 8 5.5 A 2.5 2.5 0 0 0 5.5 3 A 2.5 2.5 0 0 0 3 5.5 A 2.5 2.5 0 0 0 5.5 8 A 2.5 2.5 0 0 0 6.2636719 7.8789062 L 7.7558594 9.6679688 A 4 4 0 0 0 7 12 A 4 4 0 0 0 7.7558594 14.332031 L 6.2636719 16.123047 A 2.5 2.5 0 0 0 5.5 16 A 2.5 2.5 0 0 0 3 18.5 A 2.5 2.5 0 0 0 5.5 21 A 2.5 2.5 0 0 0 8 18.5 A 2.5 2.5 0 0 0 7.7636719 17.445312 L 9.2910156 15.611328 A 4 4 0 0 0 11 16 A 4 4 0 0 0 12.480469 15.712891 L 14.339844 18.246094 A 2.5 2.5 0 0 0 14 19.5 A 2.5 2.5 0 0 0 16.5 22 A 2.5 2.5 0 0 0 19 19.5 A 2.5 2.5 0 0 0 16.5 17 A 2.5 2.5 0 0 0 15.953125 17.0625 L 14.095703 14.529297 A 4 4 0 0 0 14.919922 12.771484 L 17.273438 12.632812 A 2.5 2.5 0 0 0 19.5 14 A 2.5 2.5 0 0 0 22 11.5 A 2.5 2.5 0 0 0 19.5 9 A 2.5 2.5 0 0 0 17.15625 10.636719 L 14.806641 10.773438 A 4 4 0 0 0 13.791016 9.1347656 L 15.035156 6.9550781 A 2.5 2.5 0 0 0 15.5 7 A 2.5 2.5 0 0 0 18 4.5 A 2.5 2.5 0 0 0 15.5 2 z"></path>
</svg>
