<svg xmlns="http://www.w3.org/2000/svg" viewBox="0 0 30 30">
    <path d="M 6 3 C 4.895 3 4 3.895 4 5 L 4 16 L 7 13 L 18 13 C 19.105 13 20 12.105 20 11 L 20 5 C 20 3.895 19.105 3 18 3 L 6 3 z M 11 5 L 11 7 L 15 7 C 15.552 7 16 7.448 16 8 C 16 8.552 15.552 9 15 9 L 11 9 L 11 11 L 8 8 L 11 5 z M 12 15 C 10.895 15 10 15.895 10 17 L 10 23 C 10 24.105 10.895 25 12 25 L 23 25 L 26 28 L 26 17 C 26 15.895 25.105 15 24 15 L 12 15 z M 19 17 L 22 20 L 19 23 L 19 21 L 15 21 C 14.448 21 14 20.552 14 20 C 14 19.448 14.448 19 15 19 L 19 19 L 19 17 z"></path>
</svg>
