<?xml version="1.0" encoding="UTF-8" standalone="no"?>
<svg
   xmlns:dc="http://purl.org/dc/elements/1.1/"
   xmlns:cc="http://creativecommons.org/ns#"
   xmlns:rdf="http://www.w3.org/1999/02/22-rdf-syntax-ns#"
   xmlns:svg="http://www.w3.org/2000/svg"
   xmlns="http://www.w3.org/2000/svg"
   xmlns:sodipodi="http://sodipodi.sourceforge.net/DTD/sodipodi-0.dtd"
   xmlns:inkscape="http://www.inkscape.org/namespaces/inkscape"
   width="122.34853mm"
   height="78.5mm"
   viewBox="0 0 12234.853 7850"
   version="1.1"
   xml:space="preserve"
   id="svg548"
   sodipodi:docname="wp-monthly.svg"
   style="stroke-width:28.22200012;stroke-linejoin:round"
   inkscape:version="0.92.3 (2405546, 2018-03-11)"><metadata
   id="metadata554"><rdf:RDF><cc:Work
       rdf:about=""><dc:format>image/svg+xml</dc:format><dc:type
         rdf:resource="http://purl.org/dc/dcmitype/StillImage" /></cc:Work></rdf:RDF></metadata><defs
   id="defs552" /><sodipodi:namedview
   pagecolor="#ffffff"
   bordercolor="#666666"
   borderopacity="1"
   objecttolerance="10"
   gridtolerance="10"
   guidetolerance="10"
   inkscape:pageopacity="0"
   inkscape:pageshadow="2"
   inkscape:window-width="1920"
   inkscape:window-height="1016"
   id="namedview550"
   showgrid="false"
   inkscape:zoom="1.6194554"
   inkscape:cx="234.8577"
   inkscape:cy="121.67483"
   inkscape:window-x="0"
   inkscape:window-y="1107"
   inkscape:window-maximized="1"
   inkscape:current-layer="svg548" />
 
 <path
   d="M 6743,5844 H 1441 V 326 h 10604 v 5518 z"
   id="path4"
   inkscape:connector-curvature="0"
   style="fill:none;stroke:#b3b3b3;stroke-linejoin:round" />
 <path
   d="M 12045,5843 H 1441"
   id="path6"
   inkscape:connector-curvature="0"
   style="fill:none;stroke:#e6e6e6;stroke-linejoin:round" />
 <path
   d="M 12045,5153 H 1441"
   id="path8"
   inkscape:connector-curvature="0"
   style="fill:none;stroke:#e6e6e6;stroke-linejoin:round" />
 <path
   d="M 12045,4463 H 1441"
   id="path10"
   inkscape:connector-curvature="0"
   style="fill:none;stroke:#e6e6e6;stroke-linejoin:round" />
 <path
   d="M 12045,3773 H 1441"
   id="path12"
   inkscape:connector-curvature="0"
   style="fill:none;stroke:#e6e6e6;stroke-linejoin:round" />
 <path
   d="M 12045,3083 H 1441"
   id="path14"
   inkscape:connector-curvature="0"
   style="fill:none;stroke:#e6e6e6;stroke-linejoin:round" />
 <path
   d="M 12045,2393 H 1441"
   id="path16"
   inkscape:connector-curvature="0"
   style="fill:none;stroke:#e6e6e6;stroke-linejoin:round" />
 <path
   d="M 12045,1704 H 1441"
   id="path18"
   inkscape:connector-curvature="0"
   style="fill:none;stroke:#e6e6e6;stroke-linejoin:round" />
 <path
   d="M 12045,1014 H 1441"
   id="path20"
   inkscape:connector-curvature="0"
   style="fill:none;stroke:#e6e6e6;stroke-linejoin:round" />
 <path
   d="M 12045,325 H 1441"
   id="path22"
   inkscape:connector-curvature="0"
   style="fill:none;stroke:#e6e6e6;stroke-linejoin:round" />
 <path
   d="M 1441,5992 V 5843"
   id="path24"
   inkscape:connector-curvature="0"
   style="fill:none;stroke:#000000;stroke-linejoin:round" />
 <path
   d="M 1441,5992 V 5843"
   id="path26"
   inkscape:connector-curvature="0"
   style="fill:none;stroke:#000000;stroke-linejoin:round" />
 <path
   d="M 2501,5992 V 5843"
   id="path28"
   inkscape:connector-curvature="0"
   style="fill:none;stroke:#000000;stroke-linejoin:round" />
 <path
   d="M 2501,5992 V 5843"
   id="path30"
   inkscape:connector-curvature="0"
   style="fill:none;stroke:#000000;stroke-linejoin:round" />
 <path
   d="M 3562,5992 V 5843"
   id="path32"
   inkscape:connector-curvature="0"
   style="fill:none;stroke:#000000;stroke-linejoin:round" />
 <path
   d="M 3562,5992 V 5843"
   id="path34"
   inkscape:connector-curvature="0"
   style="fill:none;stroke:#000000;stroke-linejoin:round" />
 <path
   d="M 4622,5992 V 5843"
   id="path36"
   inkscape:connector-curvature="0"
   style="fill:none;stroke:#000000;stroke-linejoin:round" />
 <path
   d="M 4622,5992 V 5843"
   id="path38"
   inkscape:connector-curvature="0"
   style="fill:none;stroke:#000000;stroke-linejoin:round" />
 <path
   d="M 5683,5992 V 5843"
   id="path40"
   inkscape:connector-curvature="0"
   style="fill:none;stroke:#000000;stroke-linejoin:round" />
 <path
   d="M 5683,5992 V 5843"
   id="path42"
   inkscape:connector-curvature="0"
   style="fill:none;stroke:#000000;stroke-linejoin:round" />
 <path
   d="M 6743,5992 V 5843"
   id="path44"
   inkscape:connector-curvature="0"
   style="fill:none;stroke:#000000;stroke-linejoin:round" />
 <path
   d="M 6743,5992 V 5843"
   id="path46"
   inkscape:connector-curvature="0"
   style="fill:none;stroke:#000000;stroke-linejoin:round" />
 <path
   d="M 7804,5992 V 5843"
   id="path48"
   inkscape:connector-curvature="0"
   style="fill:none;stroke:#000000;stroke-linejoin:round" />
 <path
   d="M 7804,5992 V 5843"
   id="path50"
   inkscape:connector-curvature="0"
   style="fill:none;stroke:#000000;stroke-linejoin:round" />
 <path
   d="M 8864,5992 V 5843"
   id="path52"
   inkscape:connector-curvature="0"
   style="fill:none;stroke:#000000;stroke-linejoin:round" />
 <path
   d="M 8864,5992 V 5843"
   id="path54"
   inkscape:connector-curvature="0"
   style="fill:none;stroke:#000000;stroke-linejoin:round" />
 <path
   d="M 9924,5992 V 5843"
   id="path56"
   inkscape:connector-curvature="0"
   style="fill:none;stroke:#000000;stroke-linejoin:round" />
 <path
   d="M 9924,5992 V 5843"
   id="path58"
   inkscape:connector-curvature="0"
   style="fill:none;stroke:#000000;stroke-linejoin:round" />
 <path
   d="M 10984,5992 V 5843"
   id="path60"
   inkscape:connector-curvature="0"
   style="fill:none;stroke:#000000;stroke-linejoin:round" />
 <path
   d="M 10984,5992 V 5843"
   id="path62"
   inkscape:connector-curvature="0"
   style="fill:none;stroke:#000000;stroke-linejoin:round" />
 <path
   d="M 12045,5992 V 5843"
   id="path64"
   inkscape:connector-curvature="0"
   style="fill:none;stroke:#000000;stroke-linejoin:round" />
 <path
   d="M 12045,5992 V 5843"
   id="path66"
   inkscape:connector-curvature="0"
   style="fill:none;stroke:#000000;stroke-linejoin:round" />
 <path
   d="M 1441,5843 H 12045"
   id="path68"
   inkscape:connector-curvature="0"
   style="fill:none;stroke:#000000;stroke-linejoin:round" />
 <path
   d="m 1291,5843 h 150"
   id="path70"
   inkscape:connector-curvature="0"
   style="fill:none;stroke:#000000;stroke-linejoin:round" />
 <path
   d="m 1291,5843 h 150"
   id="path72"
   inkscape:connector-curvature="0"
   style="fill:none;stroke:#000000;stroke-linejoin:round" />
 <path
   d="m 1291,5153 h 150"
   id="path74"
   inkscape:connector-curvature="0"
   style="fill:none;stroke:#000000;stroke-linejoin:round" />
 <path
   d="m 1291,5153 h 150"
   id="path76"
   inkscape:connector-curvature="0"
   style="fill:none;stroke:#000000;stroke-linejoin:round" />
 <path
   d="m 1291,4463 h 150"
   id="path78"
   inkscape:connector-curvature="0"
   style="fill:none;stroke:#000000;stroke-linejoin:round" />
 <path
   d="m 1291,4463 h 150"
   id="path80"
   inkscape:connector-curvature="0"
   style="fill:none;stroke:#000000;stroke-linejoin:round" />
 <path
   d="m 1291,3773 h 150"
   id="path82"
   inkscape:connector-curvature="0"
   style="fill:none;stroke:#000000;stroke-linejoin:round" />
 <path
   d="m 1291,3773 h 150"
   id="path84"
   inkscape:connector-curvature="0"
   style="fill:none;stroke:#000000;stroke-linejoin:round" />
 <path
   d="m 1291,3083 h 150"
   id="path86"
   inkscape:connector-curvature="0"
   style="fill:none;stroke:#000000;stroke-linejoin:round" />
 <path
   d="m 1291,3083 h 150"
   id="path88"
   inkscape:connector-curvature="0"
   style="fill:none;stroke:#000000;stroke-linejoin:round" />
 <path
   d="m 1291,2393 h 150"
   id="path90"
   inkscape:connector-curvature="0"
   style="fill:none;stroke:#000000;stroke-linejoin:round" />
 <path
   d="m 1291,2393 h 150"
   id="path92"
   inkscape:connector-curvature="0"
   style="fill:none;stroke:#000000;stroke-linejoin:round" />
 <path
   d="m 1291,1704 h 150"
   id="path94"
   inkscape:connector-curvature="0"
   style="fill:none;stroke:#000000;stroke-linejoin:round" />
 <path
   d="m 1291,1704 h 150"
   id="path96"
   inkscape:connector-curvature="0"
   style="fill:none;stroke:#000000;stroke-linejoin:round" />
 <path
   d="m 1291,1014 h 150"
   id="path98"
   inkscape:connector-curvature="0"
   style="fill:none;stroke:#000000;stroke-linejoin:round" />
 <path
   d="m 1291,1014 h 150"
   id="path100"
   inkscape:connector-curvature="0"
   style="fill:none;stroke:#000000;stroke-linejoin:round" />
 <path
   d="m 1291,325 h 150"
   id="path102"
   inkscape:connector-curvature="0"
   style="fill:none;stroke:#000000;stroke-linejoin:round" />
 <path
   d="m 1291,325 h 150"
   id="path104"
   inkscape:connector-curvature="0"
   style="fill:none;stroke:#000000;stroke-linejoin:round" />
 <path
   d="M 1441,5843 V 325"
   id="path106"
   inkscape:connector-curvature="0"
   style="fill:none;stroke:#000000;stroke-linejoin:round" />
 
 
 
 
 
 
 
 
 
 
 
 
 
 
 
 
 
 
 
 
 
 
 
 <path
   d="m 1441,5530 1060,-311 1061,-229 1060,-23 1061,-29 1060,-17 1061,-17 1060,-38 1060,-33 1060,-37 1061,-32"
   id="path154"
   inkscape:connector-curvature="0"
   style="fill:none;stroke:#6666bb;stroke-width:51;stroke-linejoin:round" />
 <path
   d="m 1516,5530 -1,-3 v -3 -3 l -1,-4 v -3 l -1,-3 -1,-3 -1,-3 -1,-3 -2,-3 -1,-3 -2,-3 -1,-3 -2,-3 -2,-2 -2,-3 -2,-2 -2,-3 -3,-2 -2,-2 -3,-2 -2,-2 -3,-2 -3,-2 -3,-1 -3,-2 -3,-1 -3,-1 -3,-1 -3,-1 -3,-1 -3,-1 h -4 -3 l -3,-1 h -3 -4 l -3,1 h -3 -4 l -3,1 -3,1 -3,1 -3,1 -3,1 -3,1 -3,2 -3,1 -3,2 -3,2 -2,2 -3,2 -2,2 -3,2 -2,3 -2,2 -2,3 -2,2 -2,3 -1,3 -2,3 -1,3 -2,3 -1,3 -1,3 -1,3 -1,3 v 3 l -1,4 v 3 3 3 4 3 3 l 1,3 v 4 l 1,3 1,3 1,3 1,3 2,3 1,3 2,3 1,3 2,2 2,3 2,3 2,2 2,2 3,3 2,2 3,2 2,2 3,2 3,1 3,2 3,1 3,2 3,1 3,1 3,1 3,1 h 3 l 4,1 h 3 3 4 3 3 3 l 4,-1 h 3 l 3,-1 3,-1 3,-1 3,-1 3,-2 3,-1 3,-2 3,-1 3,-2 2,-2 3,-2 2,-2 3,-3 2,-2 2,-2 2,-3 2,-3 2,-2 1,-3 2,-3 1,-3 2,-3 1,-3 1,-3 1,-3 1,-3 v -4 l 1,-3 v -3 -3 z"
   id="path156"
   inkscape:connector-curvature="0"
   style="fill:#6666bb;stroke:none" />
 <path
   d="m 1516,5530 -1,-3 v -3 -3 l -1,-4 v -3 l -1,-3 -1,-3 -1,-3 -1,-3 -2,-3 -1,-3 -2,-3 -1,-3 -2,-3 -2,-2 -2,-3 -2,-2 -2,-3 -3,-2 -2,-2 -3,-2 -2,-2 -3,-2 -3,-2 -3,-1 -3,-2 -3,-1 -3,-1 -3,-1 -3,-1 -3,-1 -3,-1 h -4 -3 l -3,-1 h -3 -4 l -3,1 h -3 -4 l -3,1 -3,1 -3,1 -3,1 -3,1 -3,1 -3,2 -3,1 -3,2 -3,2 -2,2 -3,2 -2,2 -3,2 -2,3 -2,2 -2,3 -2,2 -2,3 -1,3 -2,3 -1,3 -2,3 -1,3 -1,3 -1,3 -1,3 v 3 l -1,4 v 3 3 3 4 3 3 l 1,3 v 4 l 1,3 1,3 1,3 1,3 2,3 1,3 2,3 1,3 2,2 2,3 2,3 2,2 2,2 3,3 2,2 3,2 2,2 3,2 3,1 3,2 3,1 3,2 3,1 3,1 3,1 3,1 h 3 l 4,1 h 3 3 4 3 3 3 l 4,-1 h 3 l 3,-1 3,-1 3,-1 3,-1 3,-2 3,-1 3,-2 3,-1 3,-2 2,-2 3,-2 2,-2 3,-3 2,-2 2,-2 2,-3 2,-3 2,-2 1,-3 2,-3 1,-3 2,-3 1,-3 1,-3 1,-3 1,-3 v -4 l 1,-3 v -3 -3 z"
   id="path158"
   inkscape:connector-curvature="0"
   style="fill:none;stroke:#6666bb;stroke-linejoin:round" />
 <path
   d="m 2576,5219 v -3 -3 l -1,-4 v -3 l -1,-3 -1,-3 v -3 l -2,-4 -1,-3 -1,-3 -1,-3 -2,-2 -2,-3 -2,-3 -1,-3 -3,-2 -2,-3 -2,-2 -2,-2 -3,-2 -2,-2 -3,-2 -3,-2 -2,-2 -3,-1 -3,-2 -3,-1 -3,-1 -3,-1 -4,-1 -3,-1 -3,-1 h -3 l -3,-1 h -4 -3 -3 -4 l -3,1 h -3 l -3,1 -3,1 -4,1 -3,1 -3,1 -3,1 -3,2 -2,1 -3,2 -3,2 -3,2 -2,2 -3,2 -2,2 -2,2 -2,3 -3,2 -1,3 -2,3 -2,3 -2,2 -1,3 -1,3 -1,3 -2,4 v 3 l -1,3 -1,3 v 3 l -1,4 v 3 3 3 4 l 1,3 v 3 l 1,3 1,3 v 4 l 2,3 1,3 1,3 1,3 2,3 2,2 2,3 1,3 3,2 2,3 2,2 2,2 3,3 2,2 3,2 3,1 3,2 2,2 3,1 3,1 3,2 3,1 4,1 h 3 l 3,1 h 3 l 3,1 h 4 3 3 4 l 3,-1 h 3 l 3,-1 h 3 l 4,-1 3,-1 3,-2 3,-1 3,-1 3,-2 2,-2 3,-1 3,-2 2,-2 3,-3 2,-2 2,-2 2,-3 3,-2 1,-3 2,-3 2,-2 2,-3 1,-3 1,-3 1,-3 2,-3 v -4 l 1,-3 1,-3 v -3 l 1,-3 v -4 z"
   id="path160"
   inkscape:connector-curvature="0"
   style="fill:#6666bb;stroke:none" />
 <path
   d="m 2576,5219 v -3 -3 l -1,-4 v -3 l -1,-3 -1,-3 v -3 l -2,-4 -1,-3 -1,-3 -1,-3 -2,-2 -2,-3 -2,-3 -1,-3 -3,-2 -2,-3 -2,-2 -2,-2 -3,-2 -2,-2 -3,-2 -3,-2 -2,-2 -3,-1 -3,-2 -3,-1 -3,-1 -3,-1 -4,-1 -3,-1 -3,-1 h -3 l -3,-1 h -4 -3 -3 -4 l -3,1 h -3 l -3,1 -3,1 -4,1 -3,1 -3,1 -3,1 -3,2 -2,1 -3,2 -3,2 -3,2 -2,2 -3,2 -2,2 -2,2 -2,3 -3,2 -1,3 -2,3 -2,3 -2,2 -1,3 -1,3 -1,3 -2,4 v 3 l -1,3 -1,3 v 3 l -1,4 v 3 3 3 4 l 1,3 v 3 l 1,3 1,3 v 4 l 2,3 1,3 1,3 1,3 2,3 2,2 2,3 1,3 3,2 2,3 2,2 2,2 3,3 2,2 3,2 3,1 3,2 2,2 3,1 3,1 3,2 3,1 4,1 h 3 l 3,1 h 3 l 3,1 h 4 3 3 4 l 3,-1 h 3 l 3,-1 h 3 l 4,-1 3,-1 3,-2 3,-1 3,-1 3,-2 2,-2 3,-1 3,-2 2,-2 3,-3 2,-2 2,-2 2,-3 3,-2 1,-3 2,-3 2,-2 2,-3 1,-3 1,-3 1,-3 2,-3 v -4 l 1,-3 1,-3 v -3 l 1,-3 v -4 z"
   id="path162"
   inkscape:connector-curvature="0"
   style="fill:none;stroke:#6666bb;stroke-linejoin:round" />
 <path
   d="m 3637,4990 -1,-3 v -4 -3 l -1,-3 v -3 l -1,-3 -1,-4 -1,-3 -1,-3 -2,-3 -1,-3 -2,-3 -1,-2 -2,-3 -2,-3 -2,-2 -2,-3 -2,-2 -3,-2 -2,-2 -3,-3 -2,-1 -3,-2 -3,-2 -3,-2 -3,-1 -3,-1 -3,-2 -3,-1 h -3 l -3,-1 -3,-1 h -4 l -3,-1 h -3 -3 -4 -3 l -3,1 h -4 l -3,1 -3,1 h -3 l -3,1 -3,2 -3,1 -3,1 -3,2 -3,2 -3,2 -2,1 -3,3 -2,2 -3,2 -2,2 -2,3 -2,2 -2,3 -2,3 -1,2 -2,3 -1,3 -2,3 -1,3 -1,3 -1,4 -1,3 v 3 l -1,3 v 3 4 3 3 3 4 l 1,3 v 3 l 1,3 1,4 1,3 1,3 2,3 1,3 2,2 1,3 2,3 2,3 2,2 2,3 2,2 3,2 2,2 3,2 2,2 3,2 3,2 3,1 3,2 3,1 3,1 3,1 3,1 3,1 3,1 h 4 l 3,1 h 3 4 3 3 l 3,-1 h 4 l 3,-1 3,-1 3,-1 3,-1 3,-1 3,-1 3,-2 3,-1 3,-2 3,-2 2,-2 3,-2 2,-2 3,-2 2,-2 2,-3 2,-2 2,-3 2,-3 1,-3 2,-2 1,-3 2,-3 1,-3 1,-3 1,-4 1,-3 v -3 l 1,-3 v -4 -3 z"
   id="path164"
   inkscape:connector-curvature="0"
   style="fill:#6666bb;stroke:none" />
 <path
   d="m 3637,4990 -1,-3 v -4 -3 l -1,-3 v -3 l -1,-3 -1,-4 -1,-3 -1,-3 -2,-3 -1,-3 -2,-3 -1,-2 -2,-3 -2,-3 -2,-2 -2,-3 -2,-2 -3,-2 -2,-2 -3,-3 -2,-1 -3,-2 -3,-2 -3,-2 -3,-1 -3,-1 -3,-2 -3,-1 h -3 l -3,-1 -3,-1 h -4 l -3,-1 h -3 -3 -4 -3 l -3,1 h -4 l -3,1 -3,1 h -3 l -3,1 -3,2 -3,1 -3,1 -3,2 -3,2 -3,2 -2,1 -3,3 -2,2 -3,2 -2,2 -2,3 -2,2 -2,3 -2,3 -1,2 -2,3 -1,3 -2,3 -1,3 -1,3 -1,4 -1,3 v 3 l -1,3 v 3 4 3 3 3 4 l 1,3 v 3 l 1,3 1,4 1,3 1,3 2,3 1,3 2,2 1,3 2,3 2,3 2,2 2,3 2,2 3,2 2,2 3,2 2,2 3,2 3,2 3,1 3,2 3,1 3,1 3,1 3,1 3,1 3,1 h 4 l 3,1 h 3 4 3 3 l 3,-1 h 4 l 3,-1 3,-1 3,-1 3,-1 3,-1 3,-1 3,-2 3,-1 3,-2 3,-2 2,-2 3,-2 2,-2 3,-2 2,-2 2,-3 2,-2 2,-3 2,-3 1,-3 2,-2 1,-3 2,-3 1,-3 1,-3 1,-4 1,-3 v -3 l 1,-3 v -4 -3 z"
   id="path166"
   inkscape:connector-curvature="0"
   style="fill:none;stroke:#6666bb;stroke-linejoin:round" />
 <path
   d="m 4697,4967 v -4 -3 l -1,-3 v -3 l -1,-4 -1,-3 v -3 l -2,-3 -1,-3 -1,-3 -1,-3 -2,-3 -2,-3 -2,-2 -1,-3 -3,-3 -2,-2 -2,-2 -2,-3 -3,-2 -2,-2 -3,-2 -3,-2 -2,-1 -3,-2 -3,-1 -3,-2 -3,-1 -3,-1 -4,-1 -3,-1 h -3 l -3,-1 h -3 -4 -3 -3 -4 -3 l -3,1 h -3 l -3,1 -4,1 -3,1 -3,1 -3,2 -3,1 -2,2 -3,1 -3,2 -3,2 -2,2 -3,2 -2,3 -2,2 -2,2 -3,3 -1,3 -2,2 -2,3 -2,3 -1,3 -1,3 -1,3 -2,3 v 3 l -1,3 -1,4 v 3 l -1,3 v 3 4 3 3 l 1,3 v 4 l 1,3 1,3 v 3 l 2,3 1,3 1,3 1,3 2,3 2,3 2,3 1,2 3,3 2,2 2,3 2,2 3,2 2,2 3,2 3,2 3,2 2,1 3,2 3,1 3,1 3,1 4,1 3,1 h 3 l 3,1 h 3 l 4,1 h 3 3 l 4,-1 h 3 l 3,-1 h 3 l 3,-1 4,-1 3,-1 3,-1 3,-1 3,-2 3,-1 2,-2 3,-2 3,-2 2,-2 3,-2 2,-2 2,-3 2,-2 3,-3 1,-2 2,-3 2,-3 2,-3 1,-3 1,-3 1,-3 2,-3 v -3 l 1,-3 1,-3 v -4 l 1,-3 v -3 z"
   id="path168"
   inkscape:connector-curvature="0"
   style="fill:#6666bb;stroke:none" />
 <path
   d="m 4697,4967 v -4 -3 l -1,-3 v -3 l -1,-4 -1,-3 v -3 l -2,-3 -1,-3 -1,-3 -1,-3 -2,-3 -2,-3 -2,-2 -1,-3 -3,-3 -2,-2 -2,-2 -2,-3 -3,-2 -2,-2 -3,-2 -3,-2 -2,-1 -3,-2 -3,-1 -3,-2 -3,-1 -3,-1 -4,-1 -3,-1 h -3 l -3,-1 h -3 -4 -3 -3 -4 -3 l -3,1 h -3 l -3,1 -4,1 -3,1 -3,1 -3,2 -3,1 -2,2 -3,1 -3,2 -3,2 -2,2 -3,2 -2,3 -2,2 -2,2 -3,3 -1,3 -2,2 -2,3 -2,3 -1,3 -1,3 -1,3 -2,3 v 3 l -1,3 -1,4 v 3 l -1,3 v 3 4 3 3 l 1,3 v 4 l 1,3 1,3 v 3 l 2,3 1,3 1,3 1,3 2,3 2,3 2,3 1,2 3,3 2,2 2,3 2,2 3,2 2,2 3,2 3,2 3,2 2,1 3,2 3,1 3,1 3,1 4,1 3,1 h 3 l 3,1 h 3 l 4,1 h 3 3 l 4,-1 h 3 l 3,-1 h 3 l 3,-1 4,-1 3,-1 3,-1 3,-1 3,-2 3,-1 2,-2 3,-2 3,-2 2,-2 3,-2 2,-2 2,-3 2,-2 3,-3 1,-2 2,-3 2,-3 2,-3 1,-3 1,-3 1,-3 2,-3 v -3 l 1,-3 1,-3 v -4 l 1,-3 v -3 z"
   id="path170"
   inkscape:connector-curvature="0"
   style="fill:none;stroke:#6666bb;stroke-linejoin:round" />
 <path
   d="m 5758,4938 -1,-3 v -4 -3 l -1,-3 v -3 l -1,-4 -1,-3 -1,-3 -1,-3 -2,-3 -1,-3 -2,-3 -1,-2 -2,-3 -2,-3 -2,-2 -2,-3 -2,-2 -3,-2 -2,-3 -3,-2 -2,-2 -3,-1 -3,-2 -3,-2 -3,-1 -3,-1 -3,-2 -3,-1 -3,-1 h -3 l -3,-1 h -4 l -3,-1 h -3 -3 -4 -3 l -3,1 h -4 l -3,1 h -3 l -3,1 -3,1 -3,2 -3,1 -3,1 -3,2 -3,2 -3,1 -2,2 -3,2 -2,3 -3,2 -2,2 -2,3 -2,2 -2,3 -2,3 -1,2 -2,3 -1,3 -2,3 -1,3 -1,3 -1,3 -1,4 v 3 l -1,3 v 3 4 3 3 3 4 l 1,3 v 3 l 1,3 1,3 1,4 1,3 2,3 1,3 2,2 1,3 2,3 2,3 2,2 2,3 2,2 3,2 2,2 3,2 2,2 3,2 3,2 3,1 3,2 3,1 3,1 3,1 3,1 3,1 3,1 h 4 l 3,1 h 3 4 3 3 l 3,-1 h 4 l 3,-1 3,-1 3,-1 3,-1 3,-1 3,-1 3,-2 3,-1 3,-2 3,-2 2,-2 3,-2 2,-2 3,-2 2,-2 2,-3 2,-2 2,-3 2,-3 1,-3 2,-2 1,-3 2,-3 1,-3 1,-4 1,-3 1,-3 v -3 l 1,-3 v -4 -3 z"
   id="path172"
   inkscape:connector-curvature="0"
   style="fill:#6666bb;stroke:none" />
 <path
   d="m 5758,4938 -1,-3 v -4 -3 l -1,-3 v -3 l -1,-4 -1,-3 -1,-3 -1,-3 -2,-3 -1,-3 -2,-3 -1,-2 -2,-3 -2,-3 -2,-2 -2,-3 -2,-2 -3,-2 -2,-3 -3,-2 -2,-2 -3,-1 -3,-2 -3,-2 -3,-1 -3,-1 -3,-2 -3,-1 -3,-1 h -3 l -3,-1 h -4 l -3,-1 h -3 -3 -4 -3 l -3,1 h -4 l -3,1 h -3 l -3,1 -3,1 -3,2 -3,1 -3,1 -3,2 -3,2 -3,1 -2,2 -3,2 -2,3 -3,2 -2,2 -2,3 -2,2 -2,3 -2,3 -1,2 -2,3 -1,3 -2,3 -1,3 -1,3 -1,3 -1,4 v 3 l -1,3 v 3 4 3 3 3 4 l 1,3 v 3 l 1,3 1,3 1,4 1,3 2,3 1,3 2,2 1,3 2,3 2,3 2,2 2,3 2,2 3,2 2,2 3,2 2,2 3,2 3,2 3,1 3,2 3,1 3,1 3,1 3,1 3,1 3,1 h 4 l 3,1 h 3 4 3 3 l 3,-1 h 4 l 3,-1 3,-1 3,-1 3,-1 3,-1 3,-1 3,-2 3,-1 3,-2 3,-2 2,-2 3,-2 2,-2 3,-2 2,-2 2,-3 2,-2 2,-3 2,-3 1,-3 2,-2 1,-3 2,-3 1,-3 1,-4 1,-3 1,-3 v -3 l 1,-3 v -4 -3 z"
   id="path174"
   inkscape:connector-curvature="0"
   style="fill:none;stroke:#6666bb;stroke-linejoin:round" />
 <path
   d="m 6818,4921 v -3 -3 l -1,-4 v -3 l -1,-3 -1,-3 v -3 l -2,-4 -1,-3 -1,-3 -1,-3 -2,-2 -2,-3 -2,-3 -1,-3 -3,-2 -2,-3 -2,-2 -2,-2 -3,-2 -2,-2 -3,-2 -3,-2 -2,-2 -3,-1 -3,-2 -3,-1 -3,-1 -3,-1 -4,-1 -3,-1 -3,-1 h -3 l -3,-1 h -4 -3 -3 -4 l -3,1 h -3 l -3,1 -3,1 -4,1 -3,1 -3,1 -3,1 -3,2 -2,1 -3,2 -3,2 -3,2 -2,2 -3,2 -2,2 -2,2 -2,3 -3,2 -1,3 -2,3 -2,3 -2,2 -1,3 -1,3 -1,3 -2,4 v 3 l -1,3 -1,3 v 3 l -1,4 v 3 3 3 4 l 1,3 v 3 l 1,3 1,4 v 3 l 2,3 1,3 1,3 1,3 2,3 2,2 2,3 1,3 3,2 2,3 2,2 2,2 3,3 2,2 3,2 3,1 3,2 2,2 3,1 3,1 3,2 3,1 4,1 h 3 l 3,1 h 3 l 3,1 h 4 3 3 4 l 3,-1 h 3 l 3,-1 h 3 l 4,-1 3,-1 3,-2 3,-1 3,-1 3,-2 2,-2 3,-1 3,-2 2,-2 3,-3 2,-2 2,-2 2,-3 3,-2 1,-3 2,-3 2,-2 2,-3 1,-3 1,-3 1,-3 2,-3 v -3 l 1,-4 1,-3 v -3 l 1,-3 v -4 z"
   id="path176"
   inkscape:connector-curvature="0"
   style="fill:#6666bb;stroke:none" />
 <path
   d="m 6818,4921 v -3 -3 l -1,-4 v -3 l -1,-3 -1,-3 v -3 l -2,-4 -1,-3 -1,-3 -1,-3 -2,-2 -2,-3 -2,-3 -1,-3 -3,-2 -2,-3 -2,-2 -2,-2 -3,-2 -2,-2 -3,-2 -3,-2 -2,-2 -3,-1 -3,-2 -3,-1 -3,-1 -3,-1 -4,-1 -3,-1 -3,-1 h -3 l -3,-1 h -4 -3 -3 -4 l -3,1 h -3 l -3,1 -3,1 -4,1 -3,1 -3,1 -3,1 -3,2 -2,1 -3,2 -3,2 -3,2 -2,2 -3,2 -2,2 -2,2 -2,3 -3,2 -1,3 -2,3 -2,3 -2,2 -1,3 -1,3 -1,3 -2,4 v 3 l -1,3 -1,3 v 3 l -1,4 v 3 3 3 4 l 1,3 v 3 l 1,3 1,4 v 3 l 2,3 1,3 1,3 1,3 2,3 2,2 2,3 1,3 3,2 2,3 2,2 2,2 3,3 2,2 3,2 3,1 3,2 2,2 3,1 3,1 3,2 3,1 4,1 h 3 l 3,1 h 3 l 3,1 h 4 3 3 4 l 3,-1 h 3 l 3,-1 h 3 l 4,-1 3,-1 3,-2 3,-1 3,-1 3,-2 2,-2 3,-1 3,-2 2,-2 3,-3 2,-2 2,-2 2,-3 3,-2 1,-3 2,-3 2,-2 2,-3 1,-3 1,-3 1,-3 2,-3 v -3 l 1,-4 1,-3 v -3 l 1,-3 v -4 z"
   id="path178"
   inkscape:connector-curvature="0"
   style="fill:none;stroke:#6666bb;stroke-linejoin:round" />
 <path
   d="m 7879,4904 -1,-4 v -3 -3 l -1,-3 v -4 l -1,-3 -1,-3 -1,-3 -1,-3 -2,-3 -1,-3 -2,-3 -1,-3 -2,-2 -2,-3 -2,-3 -2,-2 -2,-2 -3,-3 -2,-2 -3,-2 -2,-2 -3,-2 -3,-1 -3,-2 -3,-1 -3,-2 -3,-1 -3,-1 -3,-1 -3,-1 h -3 l -4,-1 h -3 -3 -3 -4 -3 -3 l -4,1 h -3 l -3,1 -3,1 -3,1 -3,1 -3,2 -3,1 -3,2 -3,1 -3,2 -2,2 -3,2 -2,2 -3,3 -2,2 -2,2 -2,3 -2,3 -2,2 -1,3 -2,3 -1,3 -2,3 -1,3 -1,3 -1,3 -1,3 v 4 l -1,3 v 3 3 4 3 3 3 l 1,4 v 3 l 1,3 1,3 1,3 1,3 2,3 1,3 2,3 1,3 2,3 2,2 2,3 2,2 2,3 3,2 2,2 3,2 2,2 3,2 3,2 3,1 3,2 3,1 3,1 3,1 3,1 3,1 3,1 h 4 3 l 3,1 h 4 3 l 3,-1 h 3 4 l 3,-1 3,-1 3,-1 3,-1 3,-1 3,-1 3,-2 3,-1 3,-2 3,-2 2,-2 3,-2 2,-2 3,-2 2,-3 2,-2 2,-3 2,-2 2,-3 1,-3 2,-3 1,-3 2,-3 1,-3 1,-3 1,-3 1,-3 v -3 l 1,-4 v -3 -3 z"
   id="path180"
   inkscape:connector-curvature="0"
   style="fill:#6666bb;stroke:none" />
 <path
   d="m 7879,4904 -1,-4 v -3 -3 l -1,-3 v -4 l -1,-3 -1,-3 -1,-3 -1,-3 -2,-3 -1,-3 -2,-3 -1,-3 -2,-2 -2,-3 -2,-3 -2,-2 -2,-2 -3,-3 -2,-2 -3,-2 -2,-2 -3,-2 -3,-1 -3,-2 -3,-1 -3,-2 -3,-1 -3,-1 -3,-1 -3,-1 h -3 l -4,-1 h -3 -3 -3 -4 -3 -3 l -4,1 h -3 l -3,1 -3,1 -3,1 -3,1 -3,2 -3,1 -3,2 -3,1 -3,2 -2,2 -3,2 -2,2 -3,3 -2,2 -2,2 -2,3 -2,3 -2,2 -1,3 -2,3 -1,3 -2,3 -1,3 -1,3 -1,3 -1,3 v 4 l -1,3 v 3 3 4 3 3 3 l 1,4 v 3 l 1,3 1,3 1,3 1,3 2,3 1,3 2,3 1,3 2,3 2,2 2,3 2,2 2,3 3,2 2,2 3,2 2,2 3,2 3,2 3,1 3,2 3,1 3,1 3,1 3,1 3,1 3,1 h 4 3 l 3,1 h 4 3 l 3,-1 h 3 4 l 3,-1 3,-1 3,-1 3,-1 3,-1 3,-1 3,-2 3,-1 3,-2 3,-2 2,-2 3,-2 2,-2 3,-2 2,-3 2,-2 2,-3 2,-2 2,-3 1,-3 2,-3 1,-3 2,-3 1,-3 1,-3 1,-3 1,-3 v -3 l 1,-4 v -3 -3 z"
   id="path182"
   inkscape:connector-curvature="0"
   style="fill:none;stroke:#6666bb;stroke-linejoin:round" />
 <path
   d="m 8939,4866 v -3 -4 l -1,-3 v -3 l -1,-3 -1,-3 v -4 l -2,-3 -1,-3 -1,-3 -1,-3 -2,-3 -2,-2 -2,-3 -1,-3 -3,-2 -2,-3 -2,-2 -2,-2 -3,-3 -2,-2 -3,-1 -3,-2 -2,-2 -3,-2 -3,-1 -3,-1 -3,-2 -3,-1 -4,-1 h -3 l -3,-1 h -3 l -3,-1 h -4 -3 -3 -4 l -3,1 h -3 l -3,1 h -3 l -4,1 -3,1 -3,2 -3,1 -3,1 -2,2 -3,2 -3,2 -3,1 -2,2 -3,3 -2,2 -2,2 -2,3 -3,2 -1,3 -2,3 -2,2 -2,3 -1,3 -1,3 -1,3 -2,3 v 4 l -1,3 -1,3 v 3 l -1,3 v 4 3 3 3 l 1,4 v 3 l 1,3 1,3 v 3 l 2,4 1,3 1,3 1,3 2,2 2,3 2,3 1,3 3,2 2,3 2,2 2,2 3,2 2,2 3,2 3,2 3,2 2,1 3,2 3,1 3,1 3,1 4,1 3,1 3,1 h 3 l 3,1 h 4 3 3 4 l 3,-1 h 3 l 3,-1 3,-1 4,-1 3,-1 3,-1 3,-1 3,-2 3,-1 2,-2 3,-2 3,-2 2,-2 3,-2 2,-2 2,-2 2,-3 3,-2 1,-3 2,-3 2,-3 2,-2 1,-3 1,-3 1,-3 2,-4 v -3 l 1,-3 1,-3 v -3 l 1,-4 v -3 z"
   id="path184"
   inkscape:connector-curvature="0"
   style="fill:#6666bb;stroke:none" />
 <path
   d="m 8939,4866 v -3 -4 l -1,-3 v -3 l -1,-3 -1,-3 v -4 l -2,-3 -1,-3 -1,-3 -1,-3 -2,-3 -2,-2 -2,-3 -1,-3 -3,-2 -2,-3 -2,-2 -2,-2 -3,-3 -2,-2 -3,-1 -3,-2 -2,-2 -3,-2 -3,-1 -3,-1 -3,-2 -3,-1 -4,-1 h -3 l -3,-1 h -3 l -3,-1 h -4 -3 -3 -4 l -3,1 h -3 l -3,1 h -3 l -4,1 -3,1 -3,2 -3,1 -3,1 -2,2 -3,2 -3,2 -3,1 -2,2 -3,3 -2,2 -2,2 -2,3 -3,2 -1,3 -2,3 -2,2 -2,3 -1,3 -1,3 -1,3 -2,3 v 4 l -1,3 -1,3 v 3 l -1,3 v 4 3 3 3 l 1,4 v 3 l 1,3 1,3 v 3 l 2,4 1,3 1,3 1,3 2,2 2,3 2,3 1,3 3,2 2,3 2,2 2,2 3,2 2,2 3,2 3,2 3,2 2,1 3,2 3,1 3,1 3,1 4,1 3,1 3,1 h 3 l 3,1 h 4 3 3 4 l 3,-1 h 3 l 3,-1 3,-1 4,-1 3,-1 3,-1 3,-1 3,-2 3,-1 2,-2 3,-2 3,-2 2,-2 3,-2 2,-2 2,-2 2,-3 3,-2 1,-3 2,-3 2,-3 2,-2 1,-3 1,-3 1,-3 2,-4 v -3 l 1,-3 1,-3 v -3 l 1,-4 v -3 z"
   id="path186"
   inkscape:connector-curvature="0"
   style="fill:none;stroke:#6666bb;stroke-linejoin:round" />
 <path
   d="m 9999,4833 -1,-3 v -4 -3 l -1,-3 v -3 l -1,-3 -1,-4 -1,-3 -1,-3 -2,-3 -1,-3 -2,-2 -1,-3 -2,-3 -2,-3 -2,-2 -2,-3 -2,-2 -3,-2 -2,-2 -3,-2 -2,-2 -3,-2 -3,-2 -3,-1 -3,-2 -3,-1 -3,-1 -3,-1 -3,-1 -3,-1 -3,-1 h -4 l -3,-1 h -3 -3 -4 -3 l -3,1 h -4 l -3,1 -3,1 -3,1 -3,1 -3,1 -3,1 -3,2 -3,1 -3,2 -3,2 -2,2 -3,2 -2,2 -3,2 -2,2 -2,3 -2,2 -2,3 -2,3 -1,3 -2,2 -1,3 -2,3 -1,3 -1,3 -1,4 -1,3 v 3 l -1,3 v 3 4 3 3 4 3 l 1,3 v 3 l 1,3 1,4 1,3 1,3 2,3 1,3 2,3 1,2 2,3 2,3 2,2 2,3 2,2 3,2 2,2 3,3 2,1 3,2 3,2 3,2 3,1 3,1 3,2 3,1 h 3 l 3,1 3,1 h 4 l 3,1 h 3 4 3 3 l 3,-1 h 4 l 3,-1 3,-1 h 3 l 3,-1 3,-2 3,-1 3,-1 3,-2 3,-2 3,-2 2,-1 3,-3 2,-2 3,-2 2,-2 2,-3 2,-2 2,-3 2,-3 1,-2 2,-3 1,-3 2,-3 1,-3 1,-3 1,-4 1,-3 v -3 l 1,-3 v -3 -4 z"
   id="path188"
   inkscape:connector-curvature="0"
   style="fill:#6666bb;stroke:none" />
 <path
   d="m 9999,4833 -1,-3 v -4 -3 l -1,-3 v -3 l -1,-3 -1,-4 -1,-3 -1,-3 -2,-3 -1,-3 -2,-2 -1,-3 -2,-3 -2,-3 -2,-2 -2,-3 -2,-2 -3,-2 -2,-2 -3,-2 -2,-2 -3,-2 -3,-2 -3,-1 -3,-2 -3,-1 -3,-1 -3,-1 -3,-1 -3,-1 -3,-1 h -4 l -3,-1 h -3 -3 -4 -3 l -3,1 h -4 l -3,1 -3,1 -3,1 -3,1 -3,1 -3,1 -3,2 -3,1 -3,2 -3,2 -2,2 -3,2 -2,2 -3,2 -2,2 -2,3 -2,2 -2,3 -2,3 -1,3 -2,2 -1,3 -2,3 -1,3 -1,3 -1,4 -1,3 v 3 l -1,3 v 3 4 3 3 4 3 l 1,3 v 3 l 1,3 1,4 1,3 1,3 2,3 1,3 2,3 1,2 2,3 2,3 2,2 2,3 2,2 3,2 2,2 3,3 2,1 3,2 3,2 3,2 3,1 3,1 3,2 3,1 h 3 l 3,1 3,1 h 4 l 3,1 h 3 4 3 3 l 3,-1 h 4 l 3,-1 3,-1 h 3 l 3,-1 3,-2 3,-1 3,-1 3,-2 3,-2 3,-2 2,-1 3,-3 2,-2 3,-2 2,-2 2,-3 2,-2 2,-3 2,-3 1,-2 2,-3 1,-3 2,-3 1,-3 1,-3 1,-4 1,-3 v -3 l 1,-3 v -3 -4 z"
   id="path190"
   inkscape:connector-curvature="0"
   style="fill:none;stroke:#6666bb;stroke-linejoin:round" />
 <path
   d="m 11059,4796 v -3 -3 l -1,-4 v -3 l -1,-3 -1,-3 v -3 l -2,-4 -1,-3 -1,-3 -1,-3 -2,-2 -2,-3 -2,-3 -1,-3 -3,-2 -2,-3 -2,-2 -2,-2 -3,-2 -2,-2 -3,-2 -3,-2 -2,-2 -3,-1 -3,-2 -3,-1 -3,-1 -3,-1 -4,-1 -3,-1 -3,-1 h -3 l -3,-1 h -4 -3 -3 -4 l -3,1 h -3 l -3,1 -3,1 -4,1 -3,1 -3,1 -3,1 -3,2 -2,1 -3,2 -3,2 -3,2 -2,2 -3,2 -2,2 -2,2 -2,3 -3,2 -1,3 -2,3 -2,3 -2,2 -1,3 -1,3 -1,3 -2,4 v 3 l -1,3 -1,3 v 3 l -1,4 v 3 3 3 4 l 1,3 v 3 l 1,3 1,4 v 3 l 2,3 1,3 1,3 1,3 2,3 2,2 2,3 1,3 3,2 2,3 2,2 2,2 3,3 2,2 3,2 3,1 3,2 2,2 3,1 3,1 3,2 3,1 4,1 h 3 l 3,1 h 3 l 3,1 h 4 3 3 4 l 3,-1 h 3 l 3,-1 h 3 l 4,-1 3,-1 3,-2 3,-1 3,-1 3,-2 2,-2 3,-1 3,-2 2,-2 3,-3 2,-2 2,-2 2,-3 3,-2 1,-3 2,-3 2,-2 2,-3 1,-3 1,-3 1,-3 2,-3 v -3 l 1,-4 1,-3 v -3 l 1,-3 v -4 z"
   id="path192"
   inkscape:connector-curvature="0"
   style="fill:#6666bb;stroke:none" />
 <path
   d="m 11059,4796 v -3 -3 l -1,-4 v -3 l -1,-3 -1,-3 v -3 l -2,-4 -1,-3 -1,-3 -1,-3 -2,-2 -2,-3 -2,-3 -1,-3 -3,-2 -2,-3 -2,-2 -2,-2 -3,-2 -2,-2 -3,-2 -3,-2 -2,-2 -3,-1 -3,-2 -3,-1 -3,-1 -3,-1 -4,-1 -3,-1 -3,-1 h -3 l -3,-1 h -4 -3 -3 -4 l -3,1 h -3 l -3,1 -3,1 -4,1 -3,1 -3,1 -3,1 -3,2 -2,1 -3,2 -3,2 -3,2 -2,2 -3,2 -2,2 -2,2 -2,3 -3,2 -1,3 -2,3 -2,3 -2,2 -1,3 -1,3 -1,3 -2,4 v 3 l -1,3 -1,3 v 3 l -1,4 v 3 3 3 4 l 1,3 v 3 l 1,3 1,4 v 3 l 2,3 1,3 1,3 1,3 2,3 2,2 2,3 1,3 3,2 2,3 2,2 2,2 3,3 2,2 3,2 3,1 3,2 2,2 3,1 3,1 3,2 3,1 4,1 h 3 l 3,1 h 3 l 3,1 h 4 3 3 4 l 3,-1 h 3 l 3,-1 h 3 l 4,-1 3,-1 3,-2 3,-1 3,-1 3,-2 2,-2 3,-1 3,-2 2,-2 3,-3 2,-2 2,-2 2,-3 3,-2 1,-3 2,-3 2,-2 2,-3 1,-3 1,-3 1,-3 2,-3 v -3 l 1,-4 1,-3 v -3 l 1,-3 v -4 z"
   id="path194"
   inkscape:connector-curvature="0"
   style="fill:none;stroke:#6666bb;stroke-linejoin:round" />
 <path
   d="m 12120,4764 -1,-3 v -4 -3 l -1,-3 v -3 l -1,-4 -1,-3 -1,-3 -1,-3 -2,-3 -1,-3 -2,-3 -1,-2 -2,-3 -2,-3 -2,-2 -2,-3 -2,-2 -3,-2 -2,-3 -3,-2 -2,-2 -3,-1 -3,-2 -3,-2 -3,-1 -3,-1 -3,-2 -3,-1 -3,-1 h -3 l -3,-1 -4,-1 h -3 -3 -3 -4 -3 -3 l -4,1 -3,1 h -3 l -3,1 -3,1 -3,2 -3,1 -3,1 -3,2 -3,2 -3,1 -2,2 -3,2 -2,3 -3,2 -2,2 -2,3 -2,2 -2,3 -2,3 -1,2 -2,3 -1,3 -2,3 -1,3 -1,3 -1,3 -1,4 v 3 l -1,3 v 3 4 3 3 3 4 l 1,3 v 3 l 1,3 1,3 1,4 1,3 2,3 1,2 2,3 1,3 2,3 2,3 2,2 2,3 2,2 3,2 2,2 3,2 2,2 3,2 3,2 3,1 3,2 3,1 3,1 3,1 3,1 3,1 3,1 h 4 l 3,1 h 3 4 3 3 l 3,-1 h 4 l 3,-1 3,-1 3,-1 3,-1 3,-1 3,-1 3,-2 3,-1 3,-2 3,-2 2,-2 3,-2 2,-2 3,-2 2,-2 2,-3 2,-2 2,-3 2,-3 1,-3 2,-3 1,-2 2,-3 1,-3 1,-4 1,-3 1,-3 v -3 l 1,-3 v -4 -3 z"
   id="path196"
   inkscape:connector-curvature="0"
   style="fill:#6666bb;stroke:none" />
 <path
   d="m 12120,4764 -1,-3 v -4 -3 l -1,-3 v -3 l -1,-4 -1,-3 -1,-3 -1,-3 -2,-3 -1,-3 -2,-3 -1,-2 -2,-3 -2,-3 -2,-2 -2,-3 -2,-2 -3,-2 -2,-3 -3,-2 -2,-2 -3,-1 -3,-2 -3,-2 -3,-1 -3,-1 -3,-2 -3,-1 -3,-1 h -3 l -3,-1 -4,-1 h -3 -3 -3 -4 -3 -3 l -4,1 -3,1 h -3 l -3,1 -3,1 -3,2 -3,1 -3,1 -3,2 -3,2 -3,1 -2,2 -3,2 -2,3 -3,2 -2,2 -2,3 -2,2 -2,3 -2,3 -1,2 -2,3 -1,3 -2,3 -1,3 -1,3 -1,3 -1,4 v 3 l -1,3 v 3 4 3 3 3 4 l 1,3 v 3 l 1,3 1,3 1,4 1,3 2,3 1,2 2,3 1,3 2,3 2,3 2,2 2,3 2,2 3,2 2,2 3,2 2,2 3,2 3,2 3,1 3,2 3,1 3,1 3,1 3,1 3,1 3,1 h 4 l 3,1 h 3 4 3 3 l 3,-1 h 4 l 3,-1 3,-1 3,-1 3,-1 3,-1 3,-1 3,-2 3,-1 3,-2 3,-2 2,-2 3,-2 2,-2 3,-2 2,-2 2,-3 2,-2 2,-3 2,-3 1,-3 2,-3 1,-2 2,-3 1,-3 1,-4 1,-3 1,-3 v -3 l 1,-3 v -4 -3 z"
   id="path198"
   inkscape:connector-curvature="0"
   style="fill:none;stroke:#6666bb;stroke-linejoin:round" />
 <path
   d="m 1441,5692 1060,-169 1061,-169 1060,-169 1061,-169 1060,-214 1061,-214 1060,-220 1060,-219 1060,-219 1061,-220"
   id="path200"
   inkscape:connector-curvature="0"
   style="fill:none;stroke:#dd6666;stroke-width:51;stroke-linejoin:round;stroke-dasharray:51, 51, 51, 51" />
 <path
   d="m 1366,5617 v 150 h 150 v -150 z"
   id="path202"
   inkscape:connector-curvature="0"
   style="fill:#dd6666;stroke:none" />
 <path
   d="m 1366,5617 v 150 h 150 v -150 z"
   id="path204"
   inkscape:connector-curvature="0"
   style="fill:none;stroke:#dd6666;stroke-linejoin:round" />
 <path
   d="m 2426,5448 v 150 h 150 v -150 z"
   id="path206"
   inkscape:connector-curvature="0"
   style="fill:#dd6666;stroke:none" />
 <path
   d="m 2426,5448 v 150 h 150 v -150 z"
   id="path208"
   inkscape:connector-curvature="0"
   style="fill:none;stroke:#dd6666;stroke-linejoin:round" />
 <path
   d="m 3487,5279 v 150 h 150 v -150 z"
   id="path210"
   inkscape:connector-curvature="0"
   style="fill:#dd6666;stroke:none" />
 <path
   d="m 3487,5279 v 150 h 150 v -150 z"
   id="path212"
   inkscape:connector-curvature="0"
   style="fill:none;stroke:#dd6666;stroke-linejoin:round" />
 <path
   d="m 4547,5110 v 150 h 150 v -150 z"
   id="path214"
   inkscape:connector-curvature="0"
   style="fill:#dd6666;stroke:none" />
 <path
   d="m 4547,5110 v 150 h 150 v -150 z"
   id="path216"
   inkscape:connector-curvature="0"
   style="fill:none;stroke:#dd6666;stroke-linejoin:round" />
 <path
   d="m 5608,4941 v 150 h 150 v -150 z"
   id="path218"
   inkscape:connector-curvature="0"
   style="fill:#dd6666;stroke:none" />
 <path
   d="m 5608,4941 v 150 h 150 v -150 z"
   id="path220"
   inkscape:connector-curvature="0"
   style="fill:none;stroke:#dd6666;stroke-linejoin:round" />
 <path
   d="m 6668,4727 v 150 h 150 v -150 z"
   id="path222"
   inkscape:connector-curvature="0"
   style="fill:#dd6666;stroke:none" />
 <path
   d="m 6668,4727 v 150 h 150 v -150 z"
   id="path224"
   inkscape:connector-curvature="0"
   style="fill:none;stroke:#dd6666;stroke-linejoin:round" />
 <path
   d="m 7729,4513 v 150 h 150 v -150 z"
   id="path226"
   inkscape:connector-curvature="0"
   style="fill:#dd6666;stroke:none" />
 <path
   d="m 7729,4513 v 150 h 150 v -150 z"
   id="path228"
   inkscape:connector-curvature="0"
   style="fill:none;stroke:#dd6666;stroke-linejoin:round" />
 <path
   d="m 8789,4293 v 150 h 150 v -150 z"
   id="path230"
   inkscape:connector-curvature="0"
   style="fill:#dd6666;stroke:none" />
 <path
   d="m 8789,4293 v 150 h 150 v -150 z"
   id="path232"
   inkscape:connector-curvature="0"
   style="fill:none;stroke:#dd6666;stroke-linejoin:round" />
 <path
   d="m 9849,4074 v 150 h 150 v -150 z"
   id="path234"
   inkscape:connector-curvature="0"
   style="fill:#dd6666;stroke:none" />
 <path
   d="m 9849,4074 v 150 h 150 v -150 z"
   id="path236"
   inkscape:connector-curvature="0"
   style="fill:none;stroke:#dd6666;stroke-linejoin:round" />
 <path
   d="m 10909,3855 v 150 h 150 v -150 z"
   id="path238"
   inkscape:connector-curvature="0"
   style="fill:#dd6666;stroke:none" />
 <path
   d="m 10909,3855 v 150 h 150 v -150 z"
   id="path240"
   inkscape:connector-curvature="0"
   style="fill:none;stroke:#dd6666;stroke-linejoin:round" />
 <path
   d="m 11970,3635 v 150 h 150 v -150 z"
   id="path242"
   inkscape:connector-curvature="0"
   style="fill:#dd6666;stroke:none" />
 <path
   d="m 11970,3635 v 150 h 150 v -150 z"
   id="path244"
   inkscape:connector-curvature="0"
   style="fill:none;stroke:#dd6666;stroke-linejoin:round" />
 
 
 
 
 
 
 
 
 
 
 
 
 
 
 
 
 
 
 
 
 
 
 
 <text
   class="TextShape"
   transform="rotate(-44.9)"
   id="text298"
   x="-5260.1167"
   y="-1623.5438"><tspan
     class="TextParagraph"
     font-size="353px"
     font-weight="400"
     id="tspan296"
     style="font-weight:400;font-size:353px;font-family:'Liberation Sans', sans-serif"><tspan
       class="TextPosition"
       x="-4597.1167"
       y="5552.4561"
       id="tspan294"><tspan
         id="tspan292"
         style="fill:#000000;stroke:none">2016-06</tspan></tspan></tspan></text>


 <text
   class="TextShape"
   transform="rotate(-44.9)"
   id="text306"
   x="-5569.2764"
   y="-875.31995"><tspan
     class="TextParagraph"
     font-size="353px"
     font-weight="400"
     id="tspan304"
     style="font-weight:400;font-size:353px;font-family:'Liberation Sans', sans-serif"><tspan
       class="TextPosition"
       x="-3846.2766"
       y="6300.6802"
       id="tspan302"><tspan
         id="tspan300"
         style="fill:#000000;stroke:none">2016-07</tspan></tspan></tspan></text>


 <text
   class="TextShape"
   transform="rotate(-44.9)"
   id="text314"
   x="-5878.728"
   y="-126.39019"><tspan
     class="TextParagraph"
     font-size="353px"
     font-weight="400"
     id="tspan312"
     style="font-weight:400;font-size:353px;font-family:'Liberation Sans', sans-serif"><tspan
       class="TextPosition"
       x="-3094.728"
       y="7049.6099"
       id="tspan310"><tspan
         id="tspan308"
         style="fill:#000000;stroke:none">2016-08</tspan></tspan></tspan></text>


 <text
   class="TextShape"
   transform="rotate(-44.9)"
   id="text322"
   x="-6187.8877"
   y="621.83368"><tspan
     class="TextParagraph"
     font-size="353px"
     font-weight="400"
     id="tspan320"
     style="font-weight:400;font-size:353px;font-family:'Liberation Sans', sans-serif"><tspan
       class="TextPosition"
       x="-2343.8877"
       y="7797.8335"
       id="tspan318"><tspan
         id="tspan316"
         style="fill:#000000;stroke:none">2016-09</tspan></tspan></tspan></text>


 <text
   class="TextShape"
   transform="rotate(-44.9)"
   id="text330"
   x="-6497.3394"
   y="1370.7634"><tspan
     class="TextParagraph"
     font-size="353px"
     font-weight="400"
     id="tspan328"
     style="font-weight:400;font-size:353px;font-family:'Liberation Sans', sans-serif"><tspan
       class="TextPosition"
       x="-1592.3392"
       y="8546.7637"
       id="tspan326"><tspan
         id="tspan324"
         style="fill:#000000;stroke:none">2016-10</tspan></tspan></tspan></text>


 <text
   class="TextShape"
   transform="rotate(-44.9)"
   id="text338"
   x="-6806.499"
   y="2118.9873"><tspan
     class="TextParagraph"
     font-size="353px"
     font-weight="400"
     id="tspan336"
     style="font-weight:400;font-size:353px;font-family:'Liberation Sans', sans-serif"><tspan
       class="TextPosition"
       x="-841.49902"
       y="9294.9873"
       id="tspan334"><tspan
         id="tspan332"
         style="fill:#000000;stroke:none">2016-11</tspan></tspan></tspan></text>


 <text
   class="TextShape"
   transform="rotate(-44.9)"
   id="text346"
   x="-7115.9502"
   y="2867.917"><tspan
     class="TextParagraph"
     font-size="353px"
     font-weight="400"
     id="tspan344"
     style="font-weight:400;font-size:353px;font-family:'Liberation Sans', sans-serif"><tspan
       class="TextPosition"
       x="-89.950432"
       y="10043.917"
       id="tspan342"><tspan
         id="tspan340"
         style="fill:#000000;stroke:none">2016-12</tspan></tspan></tspan></text>


 <text
   class="TextShape"
   transform="rotate(-44.9)"
   id="text354"
   x="-7425.1104"
   y="3616.1409"><tspan
     class="TextParagraph"
     font-size="353px"
     font-weight="400"
     id="tspan352"
     style="font-weight:400;font-size:353px;font-family:'Liberation Sans', sans-serif"><tspan
       class="TextPosition"
       x="660.88977"
       y="10792.141"
       id="tspan350"><tspan
         id="tspan348"
         style="fill:#000000;stroke:none">2017-02</tspan></tspan></tspan></text>


 <text
   class="TextShape"
   transform="rotate(-44.9)"
   id="text362"
   x="-7734.5615"
   y="4365.0708"><tspan
     class="TextParagraph"
     font-size="353px"
     font-weight="400"
     id="tspan360"
     style="font-weight:400;font-size:353px;font-family:'Liberation Sans', sans-serif"><tspan
       class="TextPosition"
       x="1412.4384"
       y="11541.07"
       id="tspan358"><tspan
         id="tspan356"
         style="fill:#000000;stroke:none">2017-03</tspan></tspan></tspan></text>


 <text
   class="TextShape"
   transform="rotate(-44.9)"
   id="text370"
   x="-8043.7212"
   y="5113.2944"><tspan
     class="TextParagraph"
     font-size="353px"
     font-weight="400"
     id="tspan368"
     style="font-weight:400;font-size:353px;font-family:'Liberation Sans', sans-serif"><tspan
       class="TextPosition"
       x="2163.2786"
       y="12289.295"
       id="tspan366"><tspan
         id="tspan364"
         style="fill:#000000;stroke:none">2017-04</tspan></tspan></tspan></text>


 <text
   class="TextShape"
   transform="rotate(-44.9)"
   id="text378"
   x="-8353.1729"
   y="5862.2241"><tspan
     class="TextParagraph"
     font-size="353px"
     font-weight="400"
     id="tspan376"
     style="font-weight:400;font-size:353px;font-family:'Liberation Sans', sans-serif"><tspan
       class="TextPosition"
       x="2914.8271"
       y="13038.225"
       id="tspan374"><tspan
         id="tspan372"
         style="fill:#000000;stroke:none">2017-05</tspan></tspan></tspan></text>


 <text
   class="TextShape"
   id="text386"
   y="2"><tspan
     class="TextParagraph"
     font-size="353px"
     font-weight="400"
     id="tspan384"
     style="font-weight:400;font-size:353px;font-family:'Liberation Sans', sans-serif"><tspan
       class="TextPosition"
       x="715"
       y="5963"
       id="tspan382"><tspan
         id="tspan380"
         style="fill:#000000;stroke:none">0.0</tspan></tspan></tspan></text>


 <text
   class="TextShape"
   id="text394"
   y="2"><tspan
     class="TextParagraph"
     font-size="353px"
     font-weight="400"
     id="tspan392"
     style="font-weight:400;font-size:353px;font-family:'Liberation Sans', sans-serif"><tspan
       class="TextPosition"
       x="715"
       y="5273"
       id="tspan390"><tspan
         id="tspan388"
         style="fill:#000000;stroke:none">0.5</tspan></tspan></tspan></text>


 <text
   class="TextShape"
   id="text402"
   y="2"><tspan
     class="TextParagraph"
     font-size="353px"
     font-weight="400"
     id="tspan400"
     style="font-weight:400;font-size:353px;font-family:'Liberation Sans', sans-serif"><tspan
       class="TextPosition"
       x="715"
       y="4583"
       id="tspan398"><tspan
         id="tspan396"
         style="fill:#000000;stroke:none">1.0</tspan></tspan></tspan></text>


 <text
   class="TextShape"
   id="text410"
   y="2"><tspan
     class="TextParagraph"
     font-size="353px"
     font-weight="400"
     id="tspan408"
     style="font-weight:400;font-size:353px;font-family:'Liberation Sans', sans-serif"><tspan
       class="TextPosition"
       x="715"
       y="3894"
       id="tspan406"><tspan
         id="tspan404"
         style="fill:#000000;stroke:none">1.5</tspan></tspan></tspan></text>


 <text
   class="TextShape"
   id="text418"
   y="2"><tspan
     class="TextParagraph"
     font-size="353px"
     font-weight="400"
     id="tspan416"
     style="font-weight:400;font-size:353px;font-family:'Liberation Sans', sans-serif"><tspan
       class="TextPosition"
       x="715"
       y="3204"
       id="tspan414"><tspan
         id="tspan412"
         style="fill:#000000;stroke:none">2.0</tspan></tspan></tspan></text>


 <text
   class="TextShape"
   id="text426"
   y="2"><tspan
     class="TextParagraph"
     font-size="353px"
     font-weight="400"
     id="tspan424"
     style="font-weight:400;font-size:353px;font-family:'Liberation Sans', sans-serif"><tspan
       class="TextPosition"
       x="715"
       y="2514"
       id="tspan422"><tspan
         id="tspan420"
         style="fill:#000000;stroke:none">2.5</tspan></tspan></tspan></text>


 <text
   class="TextShape"
   id="text434"
   y="2"><tspan
     class="TextParagraph"
     font-size="353px"
     font-weight="400"
     id="tspan432"
     style="font-weight:400;font-size:353px;font-family:'Liberation Sans', sans-serif"><tspan
       class="TextPosition"
       x="715"
       y="1824"
       id="tspan430"><tspan
         id="tspan428"
         style="fill:#000000;stroke:none">3.0</tspan></tspan></tspan></text>


 <text
   class="TextShape"
   id="text442"
   y="2"><tspan
     class="TextParagraph"
     font-size="353px"
     font-weight="400"
     id="tspan440"
     style="font-weight:400;font-size:353px;font-family:'Liberation Sans', sans-serif"><tspan
       class="TextPosition"
       x="715"
       y="1134"
       id="tspan438"><tspan
         id="tspan436"
         style="fill:#000000;stroke:none">3.5</tspan></tspan></tspan></text>


 <text
   class="TextShape"
   id="text450"
   y="2"><tspan
     class="TextParagraph"
     font-size="353px"
     font-weight="400"
     id="tspan448"
     style="font-weight:400;font-size:353px;font-family:'Liberation Sans', sans-serif"><tspan
       class="TextPosition"
       x="715"
       y="445"
       id="tspan446"><tspan
         id="tspan444"
         style="fill:#000000;stroke:none">4.0</tspan></tspan></tspan></text>


 
 
 
 <path
   d="m 2080.4715,1324.7723 h 1600"
   id="path458"
   inkscape:connector-curvature="0"
   style="fill:none;stroke:#6666bb;stroke-width:51;stroke-linejoin:round" />
 <path
   d="m 2985.4715,1324.7723 v -5 -4 l -1,-5 -1,-4 -1,-5 -1,-4 -1,-5 -1,-4 -2,-4 -2,-5 -2,-4 -2,-4 -3,-4 -2,-4 -3,-3 -3,-4 -3,-3 -3,-4 -3,-3 -4,-3 -3,-3 -4,-2 -4,-3 -4,-2 -4,-3 -4,-2 -4,-1 -4,-2 -5,-2 -4,-1 -5,-1 -4,-1 -5,-1 h -4 -5 -4 -5 -5 -4 l -5,1 -4,1 -5,1 -4,1 -5,2 -4,2 -4,1 -4,2 -4,3 -4,2 -4,3 -4,2 -3,3 -4,3 -3,3 -3,4 -3,3 -3,4 -3,3 -2,4 -3,4 -2,4 -2,4 -2,5 -2,4 -1,4 -1,5 -1,4 -1,5 -1,4 -1,5 v 4 5 5 4 l 1,5 1,4 1,5 1,4 1,5 1,4 2,4 2,5 2,4 2,4 3,4 2,4 3,3 3,4 3,3 3,4 3,3 4,3 3,3 4,2 4,3 4,2 4,3 4,2 4,1 4,2 5,2 4,1 5,1 4,1 5,1 h 4 5 l 5,1 4,-1 h 5 4 l 5,-1 4,-1 5,-1 4,-1 5,-2 4,-2 4,-1 4,-2 4,-3 4,-2 4,-3 4,-2 3,-3 4,-3 3,-3 3,-4 3,-3 3,-4 3,-3 2,-4 3,-4 2,-4 2,-4 2,-5 2,-4 1,-4 1,-5 1,-4 1,-5 1,-4 1,-5 v -4 z"
   id="path460"
   inkscape:connector-curvature="0"
   style="fill:#6666bb;stroke:none" />
 <path
   d="m 2985.4715,1324.7723 v -5 -4 l -1,-5 -1,-4 -1,-5 -1,-4 -1,-5 -1,-4 -2,-4 -2,-5 -2,-4 -2,-4 -3,-4 -2,-4 -3,-3 -3,-4 -3,-3 -3,-4 -3,-3 -4,-3 -3,-3 -4,-2 -4,-3 -4,-2 -4,-3 -4,-2 -4,-1 -4,-2 -5,-2 -4,-1 -5,-1 -4,-1 -5,-1 h -4 -5 -4 -5 -5 -4 l -5,1 -4,1 -5,1 -4,1 -5,2 -4,2 -4,1 -4,2 -4,3 -4,2 -4,3 -4,2 -3,3 -4,3 -3,3 -3,4 -3,3 -3,4 -3,3 -2,4 -3,4 -2,4 -2,4 -2,5 -2,4 -1,4 -1,5 -1,4 -1,5 -1,4 -1,5 v 4 5 5 4 l 1,5 1,4 1,5 1,4 1,5 1,4 2,4 2,5 2,4 2,4 3,4 2,4 3,3 3,4 3,3 3,4 3,3 4,3 3,3 4,2 4,3 4,2 4,3 4,2 4,1 4,2 5,2 4,1 5,1 4,1 5,1 h 4 5 l 5,1 4,-1 h 5 4 l 5,-1 4,-1 5,-1 4,-1 5,-2 4,-2 4,-1 4,-2 4,-3 4,-2 4,-3 4,-2 3,-3 4,-3 3,-3 3,-4 3,-3 3,-4 3,-3 2,-4 3,-4 2,-4 2,-4 2,-5 2,-4 1,-4 1,-5 1,-4 1,-5 1,-4 1,-5 v -4 z"
   id="path462"
   inkscape:connector-curvature="0"
   style="fill:none;stroke:#6666bb;stroke-linejoin:round" />
 <path
   d="m 2080.4715,2214.6384 h 1600"
   id="path464"
   inkscape:connector-curvature="0"
   style="fill:none;stroke:#dd6666;stroke-width:51;stroke-linejoin:round;stroke-dasharray:51, 51, 51, 51" />
 <path
   d="m 2774.4715,2109.6384 v 211 h 211 v -211 z"
   id="path466"
   inkscape:connector-curvature="0"
   style="fill:#dd6666;stroke:none" />
 <path
   d="m 2774.4715,2109.6384 v 211 h 211 v -211 z"
   id="path468"
   inkscape:connector-curvature="0"
   style="fill:none;stroke:#dd6666;stroke-linejoin:round" />
 
 
 
 

 <text
   class="TextShape"
   id="text502"
   x="-10472.528"
   y="-831.22766"><tspan
     class="TextParagraph"
     font-size="353px"
     font-weight="400"
     id="tspan494"
     style="font-weight:400;font-size:353px;font-family:'Liberation Sans', sans-serif;fill:#6666dd;fill-opacity:1"><tspan
       class="TextPosition"
       x="3780.4712"
       y="1467.7725"
       id="tspan492"
       style="fill:#6666dd;fill-opacity:1;stroke:none">incremental</tspan></tspan><tspan
     class="TextParagraph"
     font-size="353px"
     font-weight="400"
     id="tspan500"
     style="font-weight:400;font-size:353px;font-family:'Liberation Sans', sans-serif"><tspan
       class="TextPosition"
       x="3780.4712"
       y="1864.7722"
       id="tspan498"
       style="fill:#000000;stroke:none"><tspan
   style="fill:#6666dd;fill-opacity:1"
   id="tspan1361">nanopublication</tspan> <tspan
   style="fill:#6666dd;fill-opacity:1"
   id="tspan1386">datasets</tspan></tspan></tspan></text>


 <text
   class="TextShape"
   id="text516"
   x="-10472.528"
   y="-1321.3616"><tspan
     class="TextParagraph"
     font-size="353px"
     font-weight="400"
     id="tspan508"
     style="font-weight:400;font-size:353px;font-family:'Liberation Sans', sans-serif;fill:#dd6666;fill-opacity:1"><tspan
       class="TextPosition"
       x="3780.4712"
       y="2357.6382"
       id="tspan506"
       style="fill:#dd6666;fill-opacity:1;stroke:none">cumulative</tspan></tspan><tspan
     class="TextParagraph"
     font-size="353px"
     font-weight="400"
     id="tspan514"
     style="font-weight:400;font-size:353px;font-family:'Liberation Sans', sans-serif"><tspan
       class="TextPosition"
       x="3780.4712"
       y="2754.6382"
       id="tspan512"
       style="fill:#000000;stroke:none"><tspan
   style="fill:#dd6666;fill-opacity:1"
   id="tspan1388">decontextualized</tspan> <tspan
   style="fill:#dd6666;fill-opacity:1"
   id="tspan1405">snapshots</tspan></tspan></tspan></text>


 

 <text
   class="TextShape"
   id="text538"
   y="2"><tspan
     class="TextParagraph"
     font-size="318px"
     font-weight="400"
     id="tspan536"
     style="font-weight:400;font-size:318px;font-family:'Liberation Sans', sans-serif"><tspan
       class="TextPosition"
       x="3282"
       y="7677"
       id="tspan534"><tspan
         id="tspan532"
         style="fill:#000000;stroke:none">version of WikiPathways nanopublications</tspan></tspan></tspan></text>


 <text
   class="TextShape"
   transform="rotate(-90)"
   id="text546"
   x="-4054"
   y="-3280"><tspan
     class="TextParagraph"
     font-size="318px"
     font-weight="400"
     id="tspan544"
     style="font-weight:400;font-size:318px;font-family:'Liberation Sans', sans-serif"><tspan
       class="TextPosition"
       x="-3668"
       y="386"
       id="tspan542"><tspan
         id="tspan540"
         style="fill:#000000;stroke:none">million triples</tspan></tspan></tspan></text>


</svg>