<?xml version="1.0" encoding="UTF-8"?>
<!DOCTYPE svg PUBLIC "-//W3C//DTD SVG 1.1//EN" "http://www.w3.org/Graphics/SVG/1.1/DTD/svg11.dtd">
<svg width="189mm" height="79mm" viewBox="0 0 18900 7900" version="1.1" xmlns="http://www.w3.org/2000/svg" xmlns:xlink="http://www.w3.org/1999/xlink" stroke-width="28.222" stroke-linejoin="round" xml:space="preserve">
 <path fill="rgb(255,255,255)" stroke="none" d="M 9434,7848 L 0,7848 0,-2 18868,-2 18868,7848 9434,7848 Z"/>
 <path fill="none" stroke="rgb(179,179,179)" stroke-linejoin="round" d="M 6743,5842 L 1441,5842 1441,324 12045,324 12045,5842 6743,5842 Z"/>
 <path fill="none" stroke="rgb(230,230,230)" stroke-linejoin="round" d="M 12045,5841 L 1441,5841"/>
 <path fill="none" stroke="rgb(230,230,230)" stroke-linejoin="round" d="M 12045,5151 L 1441,5151"/>
 <path fill="none" stroke="rgb(230,230,230)" stroke-linejoin="round" d="M 12045,4461 L 1441,4461"/>
 <path fill="none" stroke="rgb(230,230,230)" stroke-linejoin="round" d="M 12045,3771 L 1441,3771"/>
 <path fill="none" stroke="rgb(230,230,230)" stroke-linejoin="round" d="M 12045,3081 L 1441,3081"/>
 <path fill="none" stroke="rgb(230,230,230)" stroke-linejoin="round" d="M 12045,2391 L 1441,2391"/>
 <path fill="none" stroke="rgb(230,230,230)" stroke-linejoin="round" d="M 12045,1702 L 1441,1702"/>
 <path fill="none" stroke="rgb(230,230,230)" stroke-linejoin="round" d="M 12045,1012 L 1441,1012"/>
 <path fill="none" stroke="rgb(230,230,230)" stroke-linejoin="round" d="M 12045,323 L 1441,323"/>
 <path fill="none" stroke="rgb(0,0,0)" stroke-linejoin="round" d="M 1441,5990 L 1441,5841"/>
 <path fill="none" stroke="rgb(0,0,0)" stroke-linejoin="round" d="M 1441,5990 L 1441,5841"/>
 <path fill="none" stroke="rgb(0,0,0)" stroke-linejoin="round" d="M 2501,5990 L 2501,5841"/>
 <path fill="none" stroke="rgb(0,0,0)" stroke-linejoin="round" d="M 2501,5990 L 2501,5841"/>
 <path fill="none" stroke="rgb(0,0,0)" stroke-linejoin="round" d="M 3562,5990 L 3562,5841"/>
 <path fill="none" stroke="rgb(0,0,0)" stroke-linejoin="round" d="M 3562,5990 L 3562,5841"/>
 <path fill="none" stroke="rgb(0,0,0)" stroke-linejoin="round" d="M 4622,5990 L 4622,5841"/>
 <path fill="none" stroke="rgb(0,0,0)" stroke-linejoin="round" d="M 4622,5990 L 4622,5841"/>
 <path fill="none" stroke="rgb(0,0,0)" stroke-linejoin="round" d="M 5683,5990 L 5683,5841"/>
 <path fill="none" stroke="rgb(0,0,0)" stroke-linejoin="round" d="M 5683,5990 L 5683,5841"/>
 <path fill="none" stroke="rgb(0,0,0)" stroke-linejoin="round" d="M 6743,5990 L 6743,5841"/>
 <path fill="none" stroke="rgb(0,0,0)" stroke-linejoin="round" d="M 6743,5990 L 6743,5841"/>
 <path fill="none" stroke="rgb(0,0,0)" stroke-linejoin="round" d="M 7804,5990 L 7804,5841"/>
 <path fill="none" stroke="rgb(0,0,0)" stroke-linejoin="round" d="M 7804,5990 L 7804,5841"/>
 <path fill="none" stroke="rgb(0,0,0)" stroke-linejoin="round" d="M 8864,5990 L 8864,5841"/>
 <path fill="none" stroke="rgb(0,0,0)" stroke-linejoin="round" d="M 8864,5990 L 8864,5841"/>
 <path fill="none" stroke="rgb(0,0,0)" stroke-linejoin="round" d="M 9924,5990 L 9924,5841"/>
 <path fill="none" stroke="rgb(0,0,0)" stroke-linejoin="round" d="M 9924,5990 L 9924,5841"/>
 <path fill="none" stroke="rgb(0,0,0)" stroke-linejoin="round" d="M 10984,5990 L 10984,5841"/>
 <path fill="none" stroke="rgb(0,0,0)" stroke-linejoin="round" d="M 10984,5990 L 10984,5841"/>
 <path fill="none" stroke="rgb(0,0,0)" stroke-linejoin="round" d="M 12045,5990 L 12045,5841"/>
 <path fill="none" stroke="rgb(0,0,0)" stroke-linejoin="round" d="M 12045,5990 L 12045,5841"/>
 <path fill="none" stroke="rgb(0,0,0)" stroke-linejoin="round" d="M 1441,5841 L 12045,5841"/>
 <path fill="none" stroke="rgb(0,0,0)" stroke-linejoin="round" d="M 1291,5841 L 1441,5841"/>
 <path fill="none" stroke="rgb(0,0,0)" stroke-linejoin="round" d="M 1291,5841 L 1441,5841"/>
 <path fill="none" stroke="rgb(0,0,0)" stroke-linejoin="round" d="M 1291,5151 L 1441,5151"/>
 <path fill="none" stroke="rgb(0,0,0)" stroke-linejoin="round" d="M 1291,5151 L 1441,5151"/>
 <path fill="none" stroke="rgb(0,0,0)" stroke-linejoin="round" d="M 1291,4461 L 1441,4461"/>
 <path fill="none" stroke="rgb(0,0,0)" stroke-linejoin="round" d="M 1291,4461 L 1441,4461"/>
 <path fill="none" stroke="rgb(0,0,0)" stroke-linejoin="round" d="M 1291,3771 L 1441,3771"/>
 <path fill="none" stroke="rgb(0,0,0)" stroke-linejoin="round" d="M 1291,3771 L 1441,3771"/>
 <path fill="none" stroke="rgb(0,0,0)" stroke-linejoin="round" d="M 1291,3081 L 1441,3081"/>
 <path fill="none" stroke="rgb(0,0,0)" stroke-linejoin="round" d="M 1291,3081 L 1441,3081"/>
 <path fill="none" stroke="rgb(0,0,0)" stroke-linejoin="round" d="M 1291,2391 L 1441,2391"/>
 <path fill="none" stroke="rgb(0,0,0)" stroke-linejoin="round" d="M 1291,2391 L 1441,2391"/>
 <path fill="none" stroke="rgb(0,0,0)" stroke-linejoin="round" d="M 1291,1702 L 1441,1702"/>
 <path fill="none" stroke="rgb(0,0,0)" stroke-linejoin="round" d="M 1291,1702 L 1441,1702"/>
 <path fill="none" stroke="rgb(0,0,0)" stroke-linejoin="round" d="M 1291,1012 L 1441,1012"/>
 <path fill="none" stroke="rgb(0,0,0)" stroke-linejoin="round" d="M 1291,1012 L 1441,1012"/>
 <path fill="none" stroke="rgb(0,0,0)" stroke-linejoin="round" d="M 1291,323 L 1441,323"/>
 <path fill="none" stroke="rgb(0,0,0)" stroke-linejoin="round" d="M 1291,323 L 1441,323"/>
 <path fill="none" stroke="rgb(0,0,0)" stroke-linejoin="round" d="M 1441,5841 L 1441,323"/>
 <path fill="none" stroke="rgb(221,221,221)" stroke-width="51" stroke-linejoin="round" d="M 1441,5528 L 2501,5175 3562,4824 4622,4473 5683,4122 6743,3640 7804,3159 8864,2664 9924,2171 10984,1678 12045,1184"/>
 <path fill="rgb(221,221,221)" stroke="none" d="M 1366,5453 L 1366,5603 1516,5603 1516,5453 1366,5453 Z"/>
 <path fill="none" stroke="rgb(221,221,221)" stroke-linejoin="round" d="M 1366,5453 L 1366,5603 1516,5603 1516,5453 1366,5453 Z"/>
 <path fill="rgb(221,221,221)" stroke="none" d="M 2426,5100 L 2426,5250 2576,5250 2576,5100 2426,5100 Z"/>
 <path fill="none" stroke="rgb(221,221,221)" stroke-linejoin="round" d="M 2426,5100 L 2426,5250 2576,5250 2576,5100 2426,5100 Z"/>
 <path fill="rgb(221,221,221)" stroke="none" d="M 3487,4749 L 3487,4899 3637,4899 3637,4749 3487,4749 Z"/>
 <path fill="none" stroke="rgb(221,221,221)" stroke-linejoin="round" d="M 3487,4749 L 3487,4899 3637,4899 3637,4749 3487,4749 Z"/>
 <path fill="rgb(221,221,221)" stroke="none" d="M 4547,4398 L 4547,4548 4697,4548 4697,4398 4547,4398 Z"/>
 <path fill="none" stroke="rgb(221,221,221)" stroke-linejoin="round" d="M 4547,4398 L 4547,4548 4697,4548 4697,4398 4547,4398 Z"/>
 <path fill="rgb(221,221,221)" stroke="none" d="M 5608,4047 L 5608,4197 5758,4197 5758,4047 5608,4047 Z"/>
 <path fill="none" stroke="rgb(221,221,221)" stroke-linejoin="round" d="M 5608,4047 L 5608,4197 5758,4197 5758,4047 5608,4047 Z"/>
 <path fill="rgb(221,221,221)" stroke="none" d="M 6668,3565 L 6668,3715 6818,3715 6818,3565 6668,3565 Z"/>
 <path fill="none" stroke="rgb(221,221,221)" stroke-linejoin="round" d="M 6668,3565 L 6668,3715 6818,3715 6818,3565 6668,3565 Z"/>
 <path fill="rgb(221,221,221)" stroke="none" d="M 7729,3084 L 7729,3234 7879,3234 7879,3084 7729,3084 Z"/>
 <path fill="none" stroke="rgb(221,221,221)" stroke-linejoin="round" d="M 7729,3084 L 7729,3234 7879,3234 7879,3084 7729,3084 Z"/>
 <path fill="rgb(221,221,221)" stroke="none" d="M 8789,2589 L 8789,2739 8939,2739 8939,2589 8789,2589 Z"/>
 <path fill="none" stroke="rgb(221,221,221)" stroke-linejoin="round" d="M 8789,2589 L 8789,2739 8939,2739 8939,2589 8789,2589 Z"/>
 <path fill="rgb(221,221,221)" stroke="none" d="M 9849,2096 L 9849,2246 9999,2246 9999,2096 9849,2096 Z"/>
 <path fill="none" stroke="rgb(221,221,221)" stroke-linejoin="round" d="M 9849,2096 L 9849,2246 9999,2246 9999,2096 9849,2096 Z"/>
 <path fill="rgb(221,221,221)" stroke="none" d="M 10909,1603 L 10909,1753 11059,1753 11059,1603 10909,1603 Z"/>
 <path fill="none" stroke="rgb(221,221,221)" stroke-linejoin="round" d="M 10909,1603 L 10909,1753 11059,1753 11059,1603 10909,1603 Z"/>
 <path fill="rgb(221,221,221)" stroke="none" d="M 11970,1109 L 11970,1259 12120,1259 12120,1109 11970,1109 Z"/>
 <path fill="none" stroke="rgb(221,221,221)" stroke-linejoin="round" d="M 11970,1109 L 11970,1259 12120,1259 12120,1109 11970,1109 Z"/>
 <path fill="none" stroke="rgb(102,102,187)" stroke-width="51" stroke-linejoin="round" d="M 1441,5528 L 2501,5217 3562,4988 4622,4965 5683,4936 6743,4919 7804,4902 8864,4864 9924,4831 10984,4794 12045,4762"/>
 <path fill="rgb(102,102,187)" stroke="none" d="M 1516,5528 L 1515,5525 1515,5522 1515,5519 1514,5515 1514,5512 1513,5509 1512,5506 1511,5503 1510,5500 1508,5497 1507,5494 1505,5491 1504,5488 1502,5485 1500,5483 1498,5480 1496,5478 1494,5475 1491,5473 1489,5471 1486,5469 1484,5467 1481,5465 1478,5463 1475,5462 1472,5460 1469,5459 1466,5458 1463,5457 1460,5456 1457,5455 1454,5454 1450,5454 1447,5454 1444,5453 1441,5453 1437,5453 1434,5454 1431,5454 1427,5454 1424,5455 1421,5456 1418,5457 1415,5458 1412,5459 1409,5460 1406,5462 1403,5463 1400,5465 1397,5467 1395,5469 1392,5471 1390,5473 1387,5475 1385,5478 1383,5480 1381,5483 1379,5485 1377,5488 1376,5491 1374,5494 1373,5497 1371,5500 1370,5503 1369,5506 1368,5509 1367,5512 1367,5515 1366,5519 1366,5522 1366,5525 1366,5528 1366,5532 1366,5535 1366,5538 1367,5541 1367,5545 1368,5548 1369,5551 1370,5554 1371,5557 1373,5560 1374,5563 1376,5566 1377,5569 1379,5571 1381,5574 1383,5577 1385,5579 1387,5581 1390,5584 1392,5586 1395,5588 1397,5590 1400,5592 1403,5593 1406,5595 1409,5596 1412,5598 1415,5599 1418,5600 1421,5601 1424,5602 1427,5602 1431,5603 1434,5603 1437,5603 1441,5603 1444,5603 1447,5603 1450,5603 1454,5602 1457,5602 1460,5601 1463,5600 1466,5599 1469,5598 1472,5596 1475,5595 1478,5593 1481,5592 1484,5590 1486,5588 1489,5586 1491,5584 1494,5581 1496,5579 1498,5577 1500,5574 1502,5571 1504,5569 1505,5566 1507,5563 1508,5560 1510,5557 1511,5554 1512,5551 1513,5548 1514,5545 1514,5541 1515,5538 1515,5535 1515,5532 1516,5528 Z"/>
 <path fill="none" stroke="rgb(102,102,187)" stroke-linejoin="round" d="M 1516,5528 L 1515,5525 1515,5522 1515,5519 1514,5515 1514,5512 1513,5509 1512,5506 1511,5503 1510,5500 1508,5497 1507,5494 1505,5491 1504,5488 1502,5485 1500,5483 1498,5480 1496,5478 1494,5475 1491,5473 1489,5471 1486,5469 1484,5467 1481,5465 1478,5463 1475,5462 1472,5460 1469,5459 1466,5458 1463,5457 1460,5456 1457,5455 1454,5454 1450,5454 1447,5454 1444,5453 1441,5453 1437,5453 1434,5454 1431,5454 1427,5454 1424,5455 1421,5456 1418,5457 1415,5458 1412,5459 1409,5460 1406,5462 1403,5463 1400,5465 1397,5467 1395,5469 1392,5471 1390,5473 1387,5475 1385,5478 1383,5480 1381,5483 1379,5485 1377,5488 1376,5491 1374,5494 1373,5497 1371,5500 1370,5503 1369,5506 1368,5509 1367,5512 1367,5515 1366,5519 1366,5522 1366,5525 1366,5528 1366,5532 1366,5535 1366,5538 1367,5541 1367,5545 1368,5548 1369,5551 1370,5554 1371,5557 1373,5560 1374,5563 1376,5566 1377,5569 1379,5571 1381,5574 1383,5577 1385,5579 1387,5581 1390,5584 1392,5586 1395,5588 1397,5590 1400,5592 1403,5593 1406,5595 1409,5596 1412,5598 1415,5599 1418,5600 1421,5601 1424,5602 1427,5602 1431,5603 1434,5603 1437,5603 1441,5603 1444,5603 1447,5603 1450,5603 1454,5602 1457,5602 1460,5601 1463,5600 1466,5599 1469,5598 1472,5596 1475,5595 1478,5593 1481,5592 1484,5590 1486,5588 1489,5586 1491,5584 1494,5581 1496,5579 1498,5577 1500,5574 1502,5571 1504,5569 1505,5566 1507,5563 1508,5560 1510,5557 1511,5554 1512,5551 1513,5548 1514,5545 1514,5541 1515,5538 1515,5535 1515,5532 1516,5528 Z"/>
 <path fill="rgb(102,102,187)" stroke="none" d="M 2576,5217 L 2576,5214 2576,5211 2575,5207 2575,5204 2574,5201 2573,5198 2573,5195 2571,5191 2570,5188 2569,5185 2568,5182 2566,5180 2564,5177 2562,5174 2561,5171 2558,5169 2556,5166 2554,5164 2552,5162 2549,5160 2547,5158 2544,5156 2541,5154 2539,5152 2536,5151 2533,5149 2530,5148 2527,5147 2524,5146 2520,5145 2517,5144 2514,5143 2511,5143 2508,5142 2504,5142 2501,5142 2498,5142 2494,5142 2491,5143 2488,5143 2485,5144 2482,5145 2478,5146 2475,5147 2472,5148 2469,5149 2466,5151 2464,5152 2461,5154 2458,5156 2455,5158 2453,5160 2450,5162 2448,5164 2446,5166 2444,5169 2441,5171 2440,5174 2438,5177 2436,5180 2434,5182 2433,5185 2432,5188 2431,5191 2429,5195 2429,5198 2428,5201 2427,5204 2427,5207 2426,5211 2426,5214 2426,5217 2426,5220 2426,5224 2427,5227 2427,5230 2428,5233 2429,5236 2429,5240 2431,5243 2432,5246 2433,5249 2434,5252 2436,5255 2438,5257 2440,5260 2441,5263 2444,5265 2446,5268 2448,5270 2450,5272 2453,5275 2455,5277 2458,5279 2461,5280 2464,5282 2466,5284 2469,5285 2472,5286 2475,5288 2478,5289 2482,5290 2485,5290 2488,5291 2491,5291 2494,5292 2498,5292 2501,5292 2504,5292 2508,5292 2511,5291 2514,5291 2517,5290 2520,5290 2524,5289 2527,5288 2530,5286 2533,5285 2536,5284 2539,5282 2541,5280 2544,5279 2547,5277 2549,5275 2552,5272 2554,5270 2556,5268 2558,5265 2561,5263 2562,5260 2564,5257 2566,5255 2568,5252 2569,5249 2570,5246 2571,5243 2573,5240 2573,5236 2574,5233 2575,5230 2575,5227 2576,5224 2576,5220 2576,5217 Z"/>
 <path fill="none" stroke="rgb(102,102,187)" stroke-linejoin="round" d="M 2576,5217 L 2576,5214 2576,5211 2575,5207 2575,5204 2574,5201 2573,5198 2573,5195 2571,5191 2570,5188 2569,5185 2568,5182 2566,5180 2564,5177 2562,5174 2561,5171 2558,5169 2556,5166 2554,5164 2552,5162 2549,5160 2547,5158 2544,5156 2541,5154 2539,5152 2536,5151 2533,5149 2530,5148 2527,5147 2524,5146 2520,5145 2517,5144 2514,5143 2511,5143 2508,5142 2504,5142 2501,5142 2498,5142 2494,5142 2491,5143 2488,5143 2485,5144 2482,5145 2478,5146 2475,5147 2472,5148 2469,5149 2466,5151 2464,5152 2461,5154 2458,5156 2455,5158 2453,5160 2450,5162 2448,5164 2446,5166 2444,5169 2441,5171 2440,5174 2438,5177 2436,5180 2434,5182 2433,5185 2432,5188 2431,5191 2429,5195 2429,5198 2428,5201 2427,5204 2427,5207 2426,5211 2426,5214 2426,5217 2426,5220 2426,5224 2427,5227 2427,5230 2428,5233 2429,5236 2429,5240 2431,5243 2432,5246 2433,5249 2434,5252 2436,5255 2438,5257 2440,5260 2441,5263 2444,5265 2446,5268 2448,5270 2450,5272 2453,5275 2455,5277 2458,5279 2461,5280 2464,5282 2466,5284 2469,5285 2472,5286 2475,5288 2478,5289 2482,5290 2485,5290 2488,5291 2491,5291 2494,5292 2498,5292 2501,5292 2504,5292 2508,5292 2511,5291 2514,5291 2517,5290 2520,5290 2524,5289 2527,5288 2530,5286 2533,5285 2536,5284 2539,5282 2541,5280 2544,5279 2547,5277 2549,5275 2552,5272 2554,5270 2556,5268 2558,5265 2561,5263 2562,5260 2564,5257 2566,5255 2568,5252 2569,5249 2570,5246 2571,5243 2573,5240 2573,5236 2574,5233 2575,5230 2575,5227 2576,5224 2576,5220 2576,5217 Z"/>
 <path fill="rgb(102,102,187)" stroke="none" d="M 3637,4988 L 3636,4985 3636,4981 3636,4978 3635,4975 3635,4972 3634,4969 3633,4965 3632,4962 3631,4959 3629,4956 3628,4953 3626,4950 3625,4948 3623,4945 3621,4942 3619,4940 3617,4937 3615,4935 3612,4933 3610,4931 3607,4928 3605,4927 3602,4925 3599,4923 3596,4921 3593,4920 3590,4919 3587,4917 3584,4916 3581,4916 3578,4915 3575,4914 3571,4914 3568,4913 3565,4913 3562,4913 3558,4913 3555,4913 3552,4914 3548,4914 3545,4915 3542,4916 3539,4916 3536,4917 3533,4919 3530,4920 3527,4921 3524,4923 3521,4925 3518,4927 3516,4928 3513,4931 3511,4933 3508,4935 3506,4937 3504,4940 3502,4942 3500,4945 3498,4948 3497,4950 3495,4953 3494,4956 3492,4959 3491,4962 3490,4965 3489,4969 3488,4972 3488,4975 3487,4978 3487,4981 3487,4985 3487,4988 3487,4991 3487,4994 3487,4998 3488,5001 3488,5004 3489,5007 3490,5011 3491,5014 3492,5017 3494,5020 3495,5023 3497,5025 3498,5028 3500,5031 3502,5034 3504,5036 3506,5039 3508,5041 3511,5043 3513,5045 3516,5047 3518,5049 3521,5051 3524,5053 3527,5054 3530,5056 3533,5057 3536,5058 3539,5059 3542,5060 3545,5061 3548,5062 3552,5062 3555,5063 3558,5063 3562,5063 3565,5063 3568,5063 3571,5062 3575,5062 3578,5061 3581,5060 3584,5059 3587,5058 3590,5057 3593,5056 3596,5054 3599,5053 3602,5051 3605,5049 3607,5047 3610,5045 3612,5043 3615,5041 3617,5039 3619,5036 3621,5034 3623,5031 3625,5028 3626,5025 3628,5023 3629,5020 3631,5017 3632,5014 3633,5011 3634,5007 3635,5004 3635,5001 3636,4998 3636,4994 3636,4991 3637,4988 Z"/>
 <path fill="none" stroke="rgb(102,102,187)" stroke-linejoin="round" d="M 3637,4988 L 3636,4985 3636,4981 3636,4978 3635,4975 3635,4972 3634,4969 3633,4965 3632,4962 3631,4959 3629,4956 3628,4953 3626,4950 3625,4948 3623,4945 3621,4942 3619,4940 3617,4937 3615,4935 3612,4933 3610,4931 3607,4928 3605,4927 3602,4925 3599,4923 3596,4921 3593,4920 3590,4919 3587,4917 3584,4916 3581,4916 3578,4915 3575,4914 3571,4914 3568,4913 3565,4913 3562,4913 3558,4913 3555,4913 3552,4914 3548,4914 3545,4915 3542,4916 3539,4916 3536,4917 3533,4919 3530,4920 3527,4921 3524,4923 3521,4925 3518,4927 3516,4928 3513,4931 3511,4933 3508,4935 3506,4937 3504,4940 3502,4942 3500,4945 3498,4948 3497,4950 3495,4953 3494,4956 3492,4959 3491,4962 3490,4965 3489,4969 3488,4972 3488,4975 3487,4978 3487,4981 3487,4985 3487,4988 3487,4991 3487,4994 3487,4998 3488,5001 3488,5004 3489,5007 3490,5011 3491,5014 3492,5017 3494,5020 3495,5023 3497,5025 3498,5028 3500,5031 3502,5034 3504,5036 3506,5039 3508,5041 3511,5043 3513,5045 3516,5047 3518,5049 3521,5051 3524,5053 3527,5054 3530,5056 3533,5057 3536,5058 3539,5059 3542,5060 3545,5061 3548,5062 3552,5062 3555,5063 3558,5063 3562,5063 3565,5063 3568,5063 3571,5062 3575,5062 3578,5061 3581,5060 3584,5059 3587,5058 3590,5057 3593,5056 3596,5054 3599,5053 3602,5051 3605,5049 3607,5047 3610,5045 3612,5043 3615,5041 3617,5039 3619,5036 3621,5034 3623,5031 3625,5028 3626,5025 3628,5023 3629,5020 3631,5017 3632,5014 3633,5011 3634,5007 3635,5004 3635,5001 3636,4998 3636,4994 3636,4991 3637,4988 Z"/>
 <path fill="rgb(102,102,187)" stroke="none" d="M 4697,4965 L 4697,4961 4697,4958 4696,4955 4696,4952 4695,4948 4694,4945 4694,4942 4692,4939 4691,4936 4690,4933 4689,4930 4687,4927 4685,4924 4683,4922 4682,4919 4679,4916 4677,4914 4675,4912 4673,4909 4670,4907 4668,4905 4665,4903 4662,4901 4660,4900 4657,4898 4654,4897 4651,4895 4648,4894 4645,4893 4641,4892 4638,4891 4635,4891 4632,4890 4629,4890 4625,4890 4622,4890 4619,4890 4615,4890 4612,4890 4609,4891 4606,4891 4603,4892 4599,4893 4596,4894 4593,4895 4590,4897 4587,4898 4585,4900 4582,4901 4579,4903 4576,4905 4574,4907 4571,4909 4569,4912 4567,4914 4565,4916 4562,4919 4561,4922 4559,4924 4557,4927 4555,4930 4554,4933 4553,4936 4552,4939 4550,4942 4550,4945 4549,4948 4548,4952 4548,4955 4547,4958 4547,4961 4547,4965 4547,4968 4547,4971 4548,4974 4548,4978 4549,4981 4550,4984 4550,4987 4552,4990 4553,4993 4554,4996 4555,4999 4557,5002 4559,5005 4561,5008 4562,5010 4565,5013 4567,5015 4569,5018 4571,5020 4574,5022 4576,5024 4579,5026 4582,5028 4585,5030 4587,5031 4590,5033 4593,5034 4596,5035 4599,5036 4603,5037 4606,5038 4609,5038 4612,5039 4615,5039 4619,5040 4622,5040 4625,5040 4629,5039 4632,5039 4635,5038 4638,5038 4641,5037 4645,5036 4648,5035 4651,5034 4654,5033 4657,5031 4660,5030 4662,5028 4665,5026 4668,5024 4670,5022 4673,5020 4675,5018 4677,5015 4679,5013 4682,5010 4683,5008 4685,5005 4687,5002 4689,4999 4690,4996 4691,4993 4692,4990 4694,4987 4694,4984 4695,4981 4696,4978 4696,4974 4697,4971 4697,4968 4697,4965 Z"/>
 <path fill="none" stroke="rgb(102,102,187)" stroke-linejoin="round" d="M 4697,4965 L 4697,4961 4697,4958 4696,4955 4696,4952 4695,4948 4694,4945 4694,4942 4692,4939 4691,4936 4690,4933 4689,4930 4687,4927 4685,4924 4683,4922 4682,4919 4679,4916 4677,4914 4675,4912 4673,4909 4670,4907 4668,4905 4665,4903 4662,4901 4660,4900 4657,4898 4654,4897 4651,4895 4648,4894 4645,4893 4641,4892 4638,4891 4635,4891 4632,4890 4629,4890 4625,4890 4622,4890 4619,4890 4615,4890 4612,4890 4609,4891 4606,4891 4603,4892 4599,4893 4596,4894 4593,4895 4590,4897 4587,4898 4585,4900 4582,4901 4579,4903 4576,4905 4574,4907 4571,4909 4569,4912 4567,4914 4565,4916 4562,4919 4561,4922 4559,4924 4557,4927 4555,4930 4554,4933 4553,4936 4552,4939 4550,4942 4550,4945 4549,4948 4548,4952 4548,4955 4547,4958 4547,4961 4547,4965 4547,4968 4547,4971 4548,4974 4548,4978 4549,4981 4550,4984 4550,4987 4552,4990 4553,4993 4554,4996 4555,4999 4557,5002 4559,5005 4561,5008 4562,5010 4565,5013 4567,5015 4569,5018 4571,5020 4574,5022 4576,5024 4579,5026 4582,5028 4585,5030 4587,5031 4590,5033 4593,5034 4596,5035 4599,5036 4603,5037 4606,5038 4609,5038 4612,5039 4615,5039 4619,5040 4622,5040 4625,5040 4629,5039 4632,5039 4635,5038 4638,5038 4641,5037 4645,5036 4648,5035 4651,5034 4654,5033 4657,5031 4660,5030 4662,5028 4665,5026 4668,5024 4670,5022 4673,5020 4675,5018 4677,5015 4679,5013 4682,5010 4683,5008 4685,5005 4687,5002 4689,4999 4690,4996 4691,4993 4692,4990 4694,4987 4694,4984 4695,4981 4696,4978 4696,4974 4697,4971 4697,4968 4697,4965 Z"/>
 <path fill="rgb(102,102,187)" stroke="none" d="M 5758,4936 L 5757,4933 5757,4929 5757,4926 5756,4923 5756,4920 5755,4916 5754,4913 5753,4910 5752,4907 5750,4904 5749,4901 5747,4898 5746,4896 5744,4893 5742,4890 5740,4888 5738,4885 5736,4883 5733,4881 5731,4878 5728,4876 5726,4874 5723,4873 5720,4871 5717,4869 5714,4868 5711,4867 5708,4865 5705,4864 5702,4863 5699,4863 5696,4862 5692,4862 5689,4861 5686,4861 5683,4861 5679,4861 5676,4861 5673,4862 5669,4862 5666,4863 5663,4863 5660,4864 5657,4865 5654,4867 5651,4868 5648,4869 5645,4871 5642,4873 5639,4874 5637,4876 5634,4878 5632,4881 5629,4883 5627,4885 5625,4888 5623,4890 5621,4893 5619,4896 5618,4898 5616,4901 5615,4904 5613,4907 5612,4910 5611,4913 5610,4916 5609,4920 5609,4923 5608,4926 5608,4929 5608,4933 5608,4936 5608,4939 5608,4942 5608,4946 5609,4949 5609,4952 5610,4955 5611,4958 5612,4962 5613,4965 5615,4968 5616,4971 5618,4973 5619,4976 5621,4979 5623,4982 5625,4984 5627,4987 5629,4989 5632,4991 5634,4993 5637,4995 5639,4997 5642,4999 5645,5001 5648,5002 5651,5004 5654,5005 5657,5006 5660,5007 5663,5008 5666,5009 5669,5010 5673,5010 5676,5011 5679,5011 5683,5011 5686,5011 5689,5011 5692,5010 5696,5010 5699,5009 5702,5008 5705,5007 5708,5006 5711,5005 5714,5004 5717,5002 5720,5001 5723,4999 5726,4997 5728,4995 5731,4993 5733,4991 5736,4989 5738,4987 5740,4984 5742,4982 5744,4979 5746,4976 5747,4973 5749,4971 5750,4968 5752,4965 5753,4962 5754,4958 5755,4955 5756,4952 5756,4949 5757,4946 5757,4942 5757,4939 5758,4936 Z"/>
 <path fill="none" stroke="rgb(102,102,187)" stroke-linejoin="round" d="M 5758,4936 L 5757,4933 5757,4929 5757,4926 5756,4923 5756,4920 5755,4916 5754,4913 5753,4910 5752,4907 5750,4904 5749,4901 5747,4898 5746,4896 5744,4893 5742,4890 5740,4888 5738,4885 5736,4883 5733,4881 5731,4878 5728,4876 5726,4874 5723,4873 5720,4871 5717,4869 5714,4868 5711,4867 5708,4865 5705,4864 5702,4863 5699,4863 5696,4862 5692,4862 5689,4861 5686,4861 5683,4861 5679,4861 5676,4861 5673,4862 5669,4862 5666,4863 5663,4863 5660,4864 5657,4865 5654,4867 5651,4868 5648,4869 5645,4871 5642,4873 5639,4874 5637,4876 5634,4878 5632,4881 5629,4883 5627,4885 5625,4888 5623,4890 5621,4893 5619,4896 5618,4898 5616,4901 5615,4904 5613,4907 5612,4910 5611,4913 5610,4916 5609,4920 5609,4923 5608,4926 5608,4929 5608,4933 5608,4936 5608,4939 5608,4942 5608,4946 5609,4949 5609,4952 5610,4955 5611,4958 5612,4962 5613,4965 5615,4968 5616,4971 5618,4973 5619,4976 5621,4979 5623,4982 5625,4984 5627,4987 5629,4989 5632,4991 5634,4993 5637,4995 5639,4997 5642,4999 5645,5001 5648,5002 5651,5004 5654,5005 5657,5006 5660,5007 5663,5008 5666,5009 5669,5010 5673,5010 5676,5011 5679,5011 5683,5011 5686,5011 5689,5011 5692,5010 5696,5010 5699,5009 5702,5008 5705,5007 5708,5006 5711,5005 5714,5004 5717,5002 5720,5001 5723,4999 5726,4997 5728,4995 5731,4993 5733,4991 5736,4989 5738,4987 5740,4984 5742,4982 5744,4979 5746,4976 5747,4973 5749,4971 5750,4968 5752,4965 5753,4962 5754,4958 5755,4955 5756,4952 5756,4949 5757,4946 5757,4942 5757,4939 5758,4936 Z"/>
 <path fill="rgb(102,102,187)" stroke="none" d="M 6818,4919 L 6818,4916 6818,4913 6817,4909 6817,4906 6816,4903 6815,4900 6815,4897 6813,4893 6812,4890 6811,4887 6810,4884 6808,4882 6806,4879 6804,4876 6803,4873 6800,4871 6798,4868 6796,4866 6794,4864 6791,4862 6789,4860 6786,4858 6783,4856 6781,4854 6778,4853 6775,4851 6772,4850 6769,4849 6766,4848 6762,4847 6759,4846 6756,4845 6753,4845 6750,4844 6746,4844 6743,4844 6740,4844 6736,4844 6733,4845 6730,4845 6727,4846 6724,4847 6720,4848 6717,4849 6714,4850 6711,4851 6708,4853 6706,4854 6703,4856 6700,4858 6697,4860 6695,4862 6692,4864 6690,4866 6688,4868 6686,4871 6683,4873 6682,4876 6680,4879 6678,4882 6676,4884 6675,4887 6674,4890 6673,4893 6671,4897 6671,4900 6670,4903 6669,4906 6669,4909 6668,4913 6668,4916 6668,4919 6668,4922 6668,4926 6669,4929 6669,4932 6670,4935 6671,4939 6671,4942 6673,4945 6674,4948 6675,4951 6676,4954 6678,4957 6680,4959 6682,4962 6683,4965 6686,4967 6688,4970 6690,4972 6692,4974 6695,4977 6697,4979 6700,4981 6703,4982 6706,4984 6708,4986 6711,4987 6714,4988 6717,4990 6720,4991 6724,4992 6727,4992 6730,4993 6733,4993 6736,4994 6740,4994 6743,4994 6746,4994 6750,4994 6753,4993 6756,4993 6759,4992 6762,4992 6766,4991 6769,4990 6772,4988 6775,4987 6778,4986 6781,4984 6783,4982 6786,4981 6789,4979 6791,4977 6794,4974 6796,4972 6798,4970 6800,4967 6803,4965 6804,4962 6806,4959 6808,4957 6810,4954 6811,4951 6812,4948 6813,4945 6815,4942 6815,4939 6816,4935 6817,4932 6817,4929 6818,4926 6818,4922 6818,4919 Z"/>
 <path fill="none" stroke="rgb(102,102,187)" stroke-linejoin="round" d="M 6818,4919 L 6818,4916 6818,4913 6817,4909 6817,4906 6816,4903 6815,4900 6815,4897 6813,4893 6812,4890 6811,4887 6810,4884 6808,4882 6806,4879 6804,4876 6803,4873 6800,4871 6798,4868 6796,4866 6794,4864 6791,4862 6789,4860 6786,4858 6783,4856 6781,4854 6778,4853 6775,4851 6772,4850 6769,4849 6766,4848 6762,4847 6759,4846 6756,4845 6753,4845 6750,4844 6746,4844 6743,4844 6740,4844 6736,4844 6733,4845 6730,4845 6727,4846 6724,4847 6720,4848 6717,4849 6714,4850 6711,4851 6708,4853 6706,4854 6703,4856 6700,4858 6697,4860 6695,4862 6692,4864 6690,4866 6688,4868 6686,4871 6683,4873 6682,4876 6680,4879 6678,4882 6676,4884 6675,4887 6674,4890 6673,4893 6671,4897 6671,4900 6670,4903 6669,4906 6669,4909 6668,4913 6668,4916 6668,4919 6668,4922 6668,4926 6669,4929 6669,4932 6670,4935 6671,4939 6671,4942 6673,4945 6674,4948 6675,4951 6676,4954 6678,4957 6680,4959 6682,4962 6683,4965 6686,4967 6688,4970 6690,4972 6692,4974 6695,4977 6697,4979 6700,4981 6703,4982 6706,4984 6708,4986 6711,4987 6714,4988 6717,4990 6720,4991 6724,4992 6727,4992 6730,4993 6733,4993 6736,4994 6740,4994 6743,4994 6746,4994 6750,4994 6753,4993 6756,4993 6759,4992 6762,4992 6766,4991 6769,4990 6772,4988 6775,4987 6778,4986 6781,4984 6783,4982 6786,4981 6789,4979 6791,4977 6794,4974 6796,4972 6798,4970 6800,4967 6803,4965 6804,4962 6806,4959 6808,4957 6810,4954 6811,4951 6812,4948 6813,4945 6815,4942 6815,4939 6816,4935 6817,4932 6817,4929 6818,4926 6818,4922 6818,4919 Z"/>
 <path fill="rgb(102,102,187)" stroke="none" d="M 7879,4902 L 7878,4898 7878,4895 7878,4892 7877,4889 7877,4885 7876,4882 7875,4879 7874,4876 7873,4873 7871,4870 7870,4867 7868,4864 7867,4861 7865,4859 7863,4856 7861,4853 7859,4851 7857,4849 7854,4846 7852,4844 7849,4842 7847,4840 7844,4838 7841,4837 7838,4835 7835,4834 7832,4832 7829,4831 7826,4830 7823,4829 7820,4828 7817,4828 7813,4827 7810,4827 7807,4827 7804,4827 7800,4827 7797,4827 7794,4827 7790,4828 7787,4828 7784,4829 7781,4830 7778,4831 7775,4832 7772,4834 7769,4835 7766,4837 7763,4838 7760,4840 7758,4842 7755,4844 7753,4846 7750,4849 7748,4851 7746,4853 7744,4856 7742,4859 7740,4861 7739,4864 7737,4867 7736,4870 7734,4873 7733,4876 7732,4879 7731,4882 7730,4885 7730,4889 7729,4892 7729,4895 7729,4898 7729,4902 7729,4905 7729,4908 7729,4911 7730,4915 7730,4918 7731,4921 7732,4924 7733,4927 7734,4930 7736,4933 7737,4936 7739,4939 7740,4942 7742,4945 7744,4947 7746,4950 7748,4952 7750,4955 7753,4957 7755,4959 7758,4961 7760,4963 7763,4965 7766,4967 7769,4968 7772,4970 7775,4971 7778,4972 7781,4973 7784,4974 7787,4975 7790,4976 7794,4976 7797,4976 7800,4977 7804,4977 7807,4977 7810,4976 7813,4976 7817,4976 7820,4975 7823,4974 7826,4973 7829,4972 7832,4971 7835,4970 7838,4968 7841,4967 7844,4965 7847,4963 7849,4961 7852,4959 7854,4957 7857,4955 7859,4952 7861,4950 7863,4947 7865,4945 7867,4942 7868,4939 7870,4936 7871,4933 7873,4930 7874,4927 7875,4924 7876,4921 7877,4918 7877,4915 7878,4911 7878,4908 7878,4905 7879,4902 Z"/>
 <path fill="none" stroke="rgb(102,102,187)" stroke-linejoin="round" d="M 7879,4902 L 7878,4898 7878,4895 7878,4892 7877,4889 7877,4885 7876,4882 7875,4879 7874,4876 7873,4873 7871,4870 7870,4867 7868,4864 7867,4861 7865,4859 7863,4856 7861,4853 7859,4851 7857,4849 7854,4846 7852,4844 7849,4842 7847,4840 7844,4838 7841,4837 7838,4835 7835,4834 7832,4832 7829,4831 7826,4830 7823,4829 7820,4828 7817,4828 7813,4827 7810,4827 7807,4827 7804,4827 7800,4827 7797,4827 7794,4827 7790,4828 7787,4828 7784,4829 7781,4830 7778,4831 7775,4832 7772,4834 7769,4835 7766,4837 7763,4838 7760,4840 7758,4842 7755,4844 7753,4846 7750,4849 7748,4851 7746,4853 7744,4856 7742,4859 7740,4861 7739,4864 7737,4867 7736,4870 7734,4873 7733,4876 7732,4879 7731,4882 7730,4885 7730,4889 7729,4892 7729,4895 7729,4898 7729,4902 7729,4905 7729,4908 7729,4911 7730,4915 7730,4918 7731,4921 7732,4924 7733,4927 7734,4930 7736,4933 7737,4936 7739,4939 7740,4942 7742,4945 7744,4947 7746,4950 7748,4952 7750,4955 7753,4957 7755,4959 7758,4961 7760,4963 7763,4965 7766,4967 7769,4968 7772,4970 7775,4971 7778,4972 7781,4973 7784,4974 7787,4975 7790,4976 7794,4976 7797,4976 7800,4977 7804,4977 7807,4977 7810,4976 7813,4976 7817,4976 7820,4975 7823,4974 7826,4973 7829,4972 7832,4971 7835,4970 7838,4968 7841,4967 7844,4965 7847,4963 7849,4961 7852,4959 7854,4957 7857,4955 7859,4952 7861,4950 7863,4947 7865,4945 7867,4942 7868,4939 7870,4936 7871,4933 7873,4930 7874,4927 7875,4924 7876,4921 7877,4918 7877,4915 7878,4911 7878,4908 7878,4905 7879,4902 Z"/>
 <path fill="rgb(102,102,187)" stroke="none" d="M 8939,4864 L 8939,4861 8939,4857 8938,4854 8938,4851 8937,4848 8936,4845 8936,4841 8934,4838 8933,4835 8932,4832 8931,4829 8929,4826 8927,4824 8925,4821 8924,4818 8921,4816 8919,4813 8917,4811 8915,4809 8912,4806 8910,4804 8907,4803 8904,4801 8902,4799 8899,4797 8896,4796 8893,4795 8890,4793 8887,4792 8883,4791 8880,4791 8877,4790 8874,4790 8871,4789 8867,4789 8864,4789 8861,4789 8857,4789 8854,4790 8851,4790 8848,4791 8845,4791 8841,4792 8838,4793 8835,4795 8832,4796 8829,4797 8827,4799 8824,4801 8821,4803 8818,4804 8816,4806 8813,4809 8811,4811 8809,4813 8807,4816 8804,4818 8803,4821 8801,4824 8799,4826 8797,4829 8796,4832 8795,4835 8794,4838 8792,4841 8792,4845 8791,4848 8790,4851 8790,4854 8789,4857 8789,4861 8789,4864 8789,4867 8789,4870 8790,4874 8790,4877 8791,4880 8792,4883 8792,4886 8794,4890 8795,4893 8796,4896 8797,4899 8799,4901 8801,4904 8803,4907 8804,4910 8807,4912 8809,4915 8811,4917 8813,4919 8816,4921 8818,4923 8821,4925 8824,4927 8827,4929 8829,4930 8832,4932 8835,4933 8838,4934 8841,4935 8845,4936 8848,4937 8851,4938 8854,4938 8857,4939 8861,4939 8864,4939 8867,4939 8871,4939 8874,4938 8877,4938 8880,4937 8883,4936 8887,4935 8890,4934 8893,4933 8896,4932 8899,4930 8902,4929 8904,4927 8907,4925 8910,4923 8912,4921 8915,4919 8917,4917 8919,4915 8921,4912 8924,4910 8925,4907 8927,4904 8929,4901 8931,4899 8932,4896 8933,4893 8934,4890 8936,4886 8936,4883 8937,4880 8938,4877 8938,4874 8939,4870 8939,4867 8939,4864 Z"/>
 <path fill="none" stroke="rgb(102,102,187)" stroke-linejoin="round" d="M 8939,4864 L 8939,4861 8939,4857 8938,4854 8938,4851 8937,4848 8936,4845 8936,4841 8934,4838 8933,4835 8932,4832 8931,4829 8929,4826 8927,4824 8925,4821 8924,4818 8921,4816 8919,4813 8917,4811 8915,4809 8912,4806 8910,4804 8907,4803 8904,4801 8902,4799 8899,4797 8896,4796 8893,4795 8890,4793 8887,4792 8883,4791 8880,4791 8877,4790 8874,4790 8871,4789 8867,4789 8864,4789 8861,4789 8857,4789 8854,4790 8851,4790 8848,4791 8845,4791 8841,4792 8838,4793 8835,4795 8832,4796 8829,4797 8827,4799 8824,4801 8821,4803 8818,4804 8816,4806 8813,4809 8811,4811 8809,4813 8807,4816 8804,4818 8803,4821 8801,4824 8799,4826 8797,4829 8796,4832 8795,4835 8794,4838 8792,4841 8792,4845 8791,4848 8790,4851 8790,4854 8789,4857 8789,4861 8789,4864 8789,4867 8789,4870 8790,4874 8790,4877 8791,4880 8792,4883 8792,4886 8794,4890 8795,4893 8796,4896 8797,4899 8799,4901 8801,4904 8803,4907 8804,4910 8807,4912 8809,4915 8811,4917 8813,4919 8816,4921 8818,4923 8821,4925 8824,4927 8827,4929 8829,4930 8832,4932 8835,4933 8838,4934 8841,4935 8845,4936 8848,4937 8851,4938 8854,4938 8857,4939 8861,4939 8864,4939 8867,4939 8871,4939 8874,4938 8877,4938 8880,4937 8883,4936 8887,4935 8890,4934 8893,4933 8896,4932 8899,4930 8902,4929 8904,4927 8907,4925 8910,4923 8912,4921 8915,4919 8917,4917 8919,4915 8921,4912 8924,4910 8925,4907 8927,4904 8929,4901 8931,4899 8932,4896 8933,4893 8934,4890 8936,4886 8936,4883 8937,4880 8938,4877 8938,4874 8939,4870 8939,4867 8939,4864 Z"/>
 <path fill="rgb(102,102,187)" stroke="none" d="M 9999,4831 L 9998,4828 9998,4824 9998,4821 9997,4818 9997,4815 9996,4812 9995,4808 9994,4805 9993,4802 9991,4799 9990,4796 9988,4794 9987,4791 9985,4788 9983,4785 9981,4783 9979,4780 9977,4778 9974,4776 9972,4774 9969,4772 9967,4770 9964,4768 9961,4766 9958,4765 9955,4763 9952,4762 9949,4761 9946,4760 9943,4759 9940,4758 9937,4757 9933,4757 9930,4756 9927,4756 9924,4756 9920,4756 9917,4756 9914,4757 9910,4757 9907,4758 9904,4759 9901,4760 9898,4761 9895,4762 9892,4763 9889,4765 9886,4766 9883,4768 9880,4770 9878,4772 9875,4774 9873,4776 9870,4778 9868,4780 9866,4783 9864,4785 9862,4788 9860,4791 9859,4794 9857,4796 9856,4799 9854,4802 9853,4805 9852,4808 9851,4812 9850,4815 9850,4818 9849,4821 9849,4824 9849,4828 9849,4831 9849,4834 9849,4838 9849,4841 9850,4844 9850,4847 9851,4850 9852,4854 9853,4857 9854,4860 9856,4863 9857,4866 9859,4869 9860,4871 9862,4874 9864,4877 9866,4879 9868,4882 9870,4884 9873,4886 9875,4888 9878,4891 9880,4892 9883,4894 9886,4896 9889,4898 9892,4899 9895,4900 9898,4902 9901,4903 9904,4903 9907,4904 9910,4905 9914,4905 9917,4906 9920,4906 9924,4906 9927,4906 9930,4906 9933,4905 9937,4905 9940,4904 9943,4903 9946,4903 9949,4902 9952,4900 9955,4899 9958,4898 9961,4896 9964,4894 9967,4892 9969,4891 9972,4888 9974,4886 9977,4884 9979,4882 9981,4879 9983,4877 9985,4874 9987,4871 9988,4869 9990,4866 9991,4863 9993,4860 9994,4857 9995,4854 9996,4850 9997,4847 9997,4844 9998,4841 9998,4838 9998,4834 9999,4831 Z"/>
 <path fill="none" stroke="rgb(102,102,187)" stroke-linejoin="round" d="M 9999,4831 L 9998,4828 9998,4824 9998,4821 9997,4818 9997,4815 9996,4812 9995,4808 9994,4805 9993,4802 9991,4799 9990,4796 9988,4794 9987,4791 9985,4788 9983,4785 9981,4783 9979,4780 9977,4778 9974,4776 9972,4774 9969,4772 9967,4770 9964,4768 9961,4766 9958,4765 9955,4763 9952,4762 9949,4761 9946,4760 9943,4759 9940,4758 9937,4757 9933,4757 9930,4756 9927,4756 9924,4756 9920,4756 9917,4756 9914,4757 9910,4757 9907,4758 9904,4759 9901,4760 9898,4761 9895,4762 9892,4763 9889,4765 9886,4766 9883,4768 9880,4770 9878,4772 9875,4774 9873,4776 9870,4778 9868,4780 9866,4783 9864,4785 9862,4788 9860,4791 9859,4794 9857,4796 9856,4799 9854,4802 9853,4805 9852,4808 9851,4812 9850,4815 9850,4818 9849,4821 9849,4824 9849,4828 9849,4831 9849,4834 9849,4838 9849,4841 9850,4844 9850,4847 9851,4850 9852,4854 9853,4857 9854,4860 9856,4863 9857,4866 9859,4869 9860,4871 9862,4874 9864,4877 9866,4879 9868,4882 9870,4884 9873,4886 9875,4888 9878,4891 9880,4892 9883,4894 9886,4896 9889,4898 9892,4899 9895,4900 9898,4902 9901,4903 9904,4903 9907,4904 9910,4905 9914,4905 9917,4906 9920,4906 9924,4906 9927,4906 9930,4906 9933,4905 9937,4905 9940,4904 9943,4903 9946,4903 9949,4902 9952,4900 9955,4899 9958,4898 9961,4896 9964,4894 9967,4892 9969,4891 9972,4888 9974,4886 9977,4884 9979,4882 9981,4879 9983,4877 9985,4874 9987,4871 9988,4869 9990,4866 9991,4863 9993,4860 9994,4857 9995,4854 9996,4850 9997,4847 9997,4844 9998,4841 9998,4838 9998,4834 9999,4831 Z"/>
 <path fill="rgb(102,102,187)" stroke="none" d="M 11059,4794 L 11059,4791 11059,4788 11058,4784 11058,4781 11057,4778 11056,4775 11056,4772 11054,4768 11053,4765 11052,4762 11051,4759 11049,4757 11047,4754 11045,4751 11044,4748 11041,4746 11039,4743 11037,4741 11035,4739 11032,4737 11030,4735 11027,4733 11024,4731 11022,4729 11019,4728 11016,4726 11013,4725 11010,4724 11007,4723 11003,4722 11000,4721 10997,4720 10994,4720 10991,4719 10987,4719 10984,4719 10981,4719 10977,4719 10974,4720 10971,4720 10968,4721 10965,4722 10961,4723 10958,4724 10955,4725 10952,4726 10949,4728 10947,4729 10944,4731 10941,4733 10938,4735 10936,4737 10933,4739 10931,4741 10929,4743 10927,4746 10924,4748 10923,4751 10921,4754 10919,4757 10917,4759 10916,4762 10915,4765 10914,4768 10912,4772 10912,4775 10911,4778 10910,4781 10910,4784 10909,4788 10909,4791 10909,4794 10909,4797 10909,4801 10910,4804 10910,4807 10911,4810 10912,4814 10912,4817 10914,4820 10915,4823 10916,4826 10917,4829 10919,4832 10921,4834 10923,4837 10924,4840 10927,4842 10929,4845 10931,4847 10933,4849 10936,4852 10938,4854 10941,4856 10944,4857 10947,4859 10949,4861 10952,4862 10955,4863 10958,4865 10961,4866 10965,4867 10968,4867 10971,4868 10974,4868 10977,4869 10981,4869 10984,4869 10987,4869 10991,4869 10994,4868 10997,4868 11000,4867 11003,4867 11007,4866 11010,4865 11013,4863 11016,4862 11019,4861 11022,4859 11024,4857 11027,4856 11030,4854 11032,4852 11035,4849 11037,4847 11039,4845 11041,4842 11044,4840 11045,4837 11047,4834 11049,4832 11051,4829 11052,4826 11053,4823 11054,4820 11056,4817 11056,4814 11057,4810 11058,4807 11058,4804 11059,4801 11059,4797 11059,4794 Z"/>
 <path fill="none" stroke="rgb(102,102,187)" stroke-linejoin="round" d="M 11059,4794 L 11059,4791 11059,4788 11058,4784 11058,4781 11057,4778 11056,4775 11056,4772 11054,4768 11053,4765 11052,4762 11051,4759 11049,4757 11047,4754 11045,4751 11044,4748 11041,4746 11039,4743 11037,4741 11035,4739 11032,4737 11030,4735 11027,4733 11024,4731 11022,4729 11019,4728 11016,4726 11013,4725 11010,4724 11007,4723 11003,4722 11000,4721 10997,4720 10994,4720 10991,4719 10987,4719 10984,4719 10981,4719 10977,4719 10974,4720 10971,4720 10968,4721 10965,4722 10961,4723 10958,4724 10955,4725 10952,4726 10949,4728 10947,4729 10944,4731 10941,4733 10938,4735 10936,4737 10933,4739 10931,4741 10929,4743 10927,4746 10924,4748 10923,4751 10921,4754 10919,4757 10917,4759 10916,4762 10915,4765 10914,4768 10912,4772 10912,4775 10911,4778 10910,4781 10910,4784 10909,4788 10909,4791 10909,4794 10909,4797 10909,4801 10910,4804 10910,4807 10911,4810 10912,4814 10912,4817 10914,4820 10915,4823 10916,4826 10917,4829 10919,4832 10921,4834 10923,4837 10924,4840 10927,4842 10929,4845 10931,4847 10933,4849 10936,4852 10938,4854 10941,4856 10944,4857 10947,4859 10949,4861 10952,4862 10955,4863 10958,4865 10961,4866 10965,4867 10968,4867 10971,4868 10974,4868 10977,4869 10981,4869 10984,4869 10987,4869 10991,4869 10994,4868 10997,4868 11000,4867 11003,4867 11007,4866 11010,4865 11013,4863 11016,4862 11019,4861 11022,4859 11024,4857 11027,4856 11030,4854 11032,4852 11035,4849 11037,4847 11039,4845 11041,4842 11044,4840 11045,4837 11047,4834 11049,4832 11051,4829 11052,4826 11053,4823 11054,4820 11056,4817 11056,4814 11057,4810 11058,4807 11058,4804 11059,4801 11059,4797 11059,4794 Z"/>
 <path fill="rgb(102,102,187)" stroke="none" d="M 12120,4762 L 12119,4759 12119,4755 12119,4752 12118,4749 12118,4746 12117,4742 12116,4739 12115,4736 12114,4733 12112,4730 12111,4727 12109,4724 12108,4722 12106,4719 12104,4716 12102,4714 12100,4711 12098,4709 12095,4707 12093,4704 12090,4702 12088,4700 12085,4699 12082,4697 12079,4695 12076,4694 12073,4693 12070,4691 12067,4690 12064,4689 12061,4689 12058,4688 12054,4687 12051,4687 12048,4687 12045,4687 12041,4687 12038,4687 12035,4687 12031,4688 12028,4689 12025,4689 12022,4690 12019,4691 12016,4693 12013,4694 12010,4695 12007,4697 12004,4699 12001,4700 11999,4702 11996,4704 11994,4707 11991,4709 11989,4711 11987,4714 11985,4716 11983,4719 11981,4722 11980,4724 11978,4727 11977,4730 11975,4733 11974,4736 11973,4739 11972,4742 11971,4746 11971,4749 11970,4752 11970,4755 11970,4759 11970,4762 11970,4765 11970,4768 11970,4772 11971,4775 11971,4778 11972,4781 11973,4784 11974,4788 11975,4791 11977,4794 11978,4796 11980,4799 11981,4802 11983,4805 11985,4808 11987,4810 11989,4813 11991,4815 11994,4817 11996,4819 11999,4821 12001,4823 12004,4825 12007,4827 12010,4828 12013,4830 12016,4831 12019,4832 12022,4833 12025,4834 12028,4835 12031,4836 12035,4836 12038,4837 12041,4837 12045,4837 12048,4837 12051,4837 12054,4836 12058,4836 12061,4835 12064,4834 12067,4833 12070,4832 12073,4831 12076,4830 12079,4828 12082,4827 12085,4825 12088,4823 12090,4821 12093,4819 12095,4817 12098,4815 12100,4813 12102,4810 12104,4808 12106,4805 12108,4802 12109,4799 12111,4796 12112,4794 12114,4791 12115,4788 12116,4784 12117,4781 12118,4778 12118,4775 12119,4772 12119,4768 12119,4765 12120,4762 Z"/>
 <path fill="none" stroke="rgb(102,102,187)" stroke-linejoin="round" d="M 12120,4762 L 12119,4759 12119,4755 12119,4752 12118,4749 12118,4746 12117,4742 12116,4739 12115,4736 12114,4733 12112,4730 12111,4727 12109,4724 12108,4722 12106,4719 12104,4716 12102,4714 12100,4711 12098,4709 12095,4707 12093,4704 12090,4702 12088,4700 12085,4699 12082,4697 12079,4695 12076,4694 12073,4693 12070,4691 12067,4690 12064,4689 12061,4689 12058,4688 12054,4687 12051,4687 12048,4687 12045,4687 12041,4687 12038,4687 12035,4687 12031,4688 12028,4689 12025,4689 12022,4690 12019,4691 12016,4693 12013,4694 12010,4695 12007,4697 12004,4699 12001,4700 11999,4702 11996,4704 11994,4707 11991,4709 11989,4711 11987,4714 11985,4716 11983,4719 11981,4722 11980,4724 11978,4727 11977,4730 11975,4733 11974,4736 11973,4739 11972,4742 11971,4746 11971,4749 11970,4752 11970,4755 11970,4759 11970,4762 11970,4765 11970,4768 11970,4772 11971,4775 11971,4778 11972,4781 11973,4784 11974,4788 11975,4791 11977,4794 11978,4796 11980,4799 11981,4802 11983,4805 11985,4808 11987,4810 11989,4813 11991,4815 11994,4817 11996,4819 11999,4821 12001,4823 12004,4825 12007,4827 12010,4828 12013,4830 12016,4831 12019,4832 12022,4833 12025,4834 12028,4835 12031,4836 12035,4836 12038,4837 12041,4837 12045,4837 12048,4837 12051,4837 12054,4836 12058,4836 12061,4835 12064,4834 12067,4833 12070,4832 12073,4831 12076,4830 12079,4828 12082,4827 12085,4825 12088,4823 12090,4821 12093,4819 12095,4817 12098,4815 12100,4813 12102,4810 12104,4808 12106,4805 12108,4802 12109,4799 12111,4796 12112,4794 12114,4791 12115,4788 12116,4784 12117,4781 12118,4778 12118,4775 12119,4772 12119,4768 12119,4765 12120,4762 Z"/>
 <path fill="none" stroke="rgb(221,102,102)" stroke-width="51" stroke-linejoin="round" stroke-dasharray="51,51,51,51" d="M 1441,5690 L 2501,5521 3562,5352 4622,5183 5683,5014 6743,4800 7804,4586 8864,4366 9924,4147 10984,3928 12045,3708"/>
 <path fill="rgb(221,102,102)" stroke="none" d="M 1366,5615 L 1366,5765 1516,5765 1516,5615 1366,5615 Z"/>
 <path fill="none" stroke="rgb(221,102,102)" stroke-linejoin="round" d="M 1366,5615 L 1366,5765 1516,5765 1516,5615 1366,5615 Z"/>
 <path fill="rgb(221,102,102)" stroke="none" d="M 2426,5446 L 2426,5596 2576,5596 2576,5446 2426,5446 Z"/>
 <path fill="none" stroke="rgb(221,102,102)" stroke-linejoin="round" d="M 2426,5446 L 2426,5596 2576,5596 2576,5446 2426,5446 Z"/>
 <path fill="rgb(221,102,102)" stroke="none" d="M 3487,5277 L 3487,5427 3637,5427 3637,5277 3487,5277 Z"/>
 <path fill="none" stroke="rgb(221,102,102)" stroke-linejoin="round" d="M 3487,5277 L 3487,5427 3637,5427 3637,5277 3487,5277 Z"/>
 <path fill="rgb(221,102,102)" stroke="none" d="M 4547,5108 L 4547,5258 4697,5258 4697,5108 4547,5108 Z"/>
 <path fill="none" stroke="rgb(221,102,102)" stroke-linejoin="round" d="M 4547,5108 L 4547,5258 4697,5258 4697,5108 4547,5108 Z"/>
 <path fill="rgb(221,102,102)" stroke="none" d="M 5608,4939 L 5608,5089 5758,5089 5758,4939 5608,4939 Z"/>
 <path fill="none" stroke="rgb(221,102,102)" stroke-linejoin="round" d="M 5608,4939 L 5608,5089 5758,5089 5758,4939 5608,4939 Z"/>
 <path fill="rgb(221,102,102)" stroke="none" d="M 6668,4725 L 6668,4875 6818,4875 6818,4725 6668,4725 Z"/>
 <path fill="none" stroke="rgb(221,102,102)" stroke-linejoin="round" d="M 6668,4725 L 6668,4875 6818,4875 6818,4725 6668,4725 Z"/>
 <path fill="rgb(221,102,102)" stroke="none" d="M 7729,4511 L 7729,4661 7879,4661 7879,4511 7729,4511 Z"/>
 <path fill="none" stroke="rgb(221,102,102)" stroke-linejoin="round" d="M 7729,4511 L 7729,4661 7879,4661 7879,4511 7729,4511 Z"/>
 <path fill="rgb(221,102,102)" stroke="none" d="M 8789,4291 L 8789,4441 8939,4441 8939,4291 8789,4291 Z"/>
 <path fill="none" stroke="rgb(221,102,102)" stroke-linejoin="round" d="M 8789,4291 L 8789,4441 8939,4441 8939,4291 8789,4291 Z"/>
 <path fill="rgb(221,102,102)" stroke="none" d="M 9849,4072 L 9849,4222 9999,4222 9999,4072 9849,4072 Z"/>
 <path fill="none" stroke="rgb(221,102,102)" stroke-linejoin="round" d="M 9849,4072 L 9849,4222 9999,4222 9999,4072 9849,4072 Z"/>
 <path fill="rgb(221,102,102)" stroke="none" d="M 10909,3853 L 10909,4003 11059,4003 11059,3853 10909,3853 Z"/>
 <path fill="none" stroke="rgb(221,102,102)" stroke-linejoin="round" d="M 10909,3853 L 10909,4003 11059,4003 11059,3853 10909,3853 Z"/>
 <path fill="rgb(221,102,102)" stroke="none" d="M 11970,3633 L 11970,3783 12120,3783 12120,3633 11970,3633 Z"/>
 <path fill="none" stroke="rgb(221,102,102)" stroke-linejoin="round" d="M 11970,3633 L 11970,3783 12120,3783 12120,3633 11970,3633 Z"/>
 <path fill="none" stroke="rgb(221,221,221)" stroke-width="51" stroke-linejoin="round" stroke-dasharray="51,51,51,51" d="M 1441,5690 L 2501,5466 3562,5296 4622,5289 5683,5278 6743,5231 7804,5229 8864,5220 9924,5215 10984,5210 12045,5205"/>
 <path fill="rgb(221,221,221)" stroke="none" d="M 1516,5690 L 1515,5687 1515,5684 1515,5681 1514,5677 1514,5674 1513,5671 1512,5668 1511,5665 1510,5662 1508,5659 1507,5656 1505,5653 1504,5650 1502,5647 1500,5645 1498,5642 1496,5640 1494,5637 1491,5635 1489,5633 1486,5631 1484,5629 1481,5627 1478,5625 1475,5624 1472,5622 1469,5621 1466,5620 1463,5619 1460,5618 1457,5617 1454,5617 1450,5616 1447,5616 1444,5616 1441,5615 1437,5616 1434,5616 1431,5616 1427,5617 1424,5617 1421,5618 1418,5619 1415,5620 1412,5621 1409,5622 1406,5624 1403,5625 1400,5627 1397,5629 1395,5631 1392,5633 1390,5635 1387,5637 1385,5640 1383,5642 1381,5645 1379,5647 1377,5650 1376,5653 1374,5656 1373,5659 1371,5662 1370,5665 1369,5668 1368,5671 1367,5674 1367,5677 1366,5681 1366,5684 1366,5687 1366,5690 1366,5694 1366,5697 1366,5700 1367,5703 1367,5707 1368,5710 1369,5713 1370,5716 1371,5719 1373,5722 1374,5725 1376,5728 1377,5731 1379,5733 1381,5736 1383,5739 1385,5741 1387,5743 1390,5746 1392,5748 1395,5750 1397,5752 1400,5754 1403,5755 1406,5757 1409,5758 1412,5760 1415,5761 1418,5762 1421,5763 1424,5764 1427,5764 1431,5765 1434,5765 1437,5765 1441,5765 1444,5765 1447,5765 1450,5765 1454,5764 1457,5764 1460,5763 1463,5762 1466,5761 1469,5760 1472,5758 1475,5757 1478,5755 1481,5754 1484,5752 1486,5750 1489,5748 1491,5746 1494,5743 1496,5741 1498,5739 1500,5736 1502,5733 1504,5731 1505,5728 1507,5725 1508,5722 1510,5719 1511,5716 1512,5713 1513,5710 1514,5707 1514,5703 1515,5700 1515,5697 1515,5694 1516,5690 Z"/>
 <path fill="none" stroke="rgb(221,221,221)" stroke-linejoin="round" d="M 1516,5690 L 1515,5687 1515,5684 1515,5681 1514,5677 1514,5674 1513,5671 1512,5668 1511,5665 1510,5662 1508,5659 1507,5656 1505,5653 1504,5650 1502,5647 1500,5645 1498,5642 1496,5640 1494,5637 1491,5635 1489,5633 1486,5631 1484,5629 1481,5627 1478,5625 1475,5624 1472,5622 1469,5621 1466,5620 1463,5619 1460,5618 1457,5617 1454,5617 1450,5616 1447,5616 1444,5616 1441,5615 1437,5616 1434,5616 1431,5616 1427,5617 1424,5617 1421,5618 1418,5619 1415,5620 1412,5621 1409,5622 1406,5624 1403,5625 1400,5627 1397,5629 1395,5631 1392,5633 1390,5635 1387,5637 1385,5640 1383,5642 1381,5645 1379,5647 1377,5650 1376,5653 1374,5656 1373,5659 1371,5662 1370,5665 1369,5668 1368,5671 1367,5674 1367,5677 1366,5681 1366,5684 1366,5687 1366,5690 1366,5694 1366,5697 1366,5700 1367,5703 1367,5707 1368,5710 1369,5713 1370,5716 1371,5719 1373,5722 1374,5725 1376,5728 1377,5731 1379,5733 1381,5736 1383,5739 1385,5741 1387,5743 1390,5746 1392,5748 1395,5750 1397,5752 1400,5754 1403,5755 1406,5757 1409,5758 1412,5760 1415,5761 1418,5762 1421,5763 1424,5764 1427,5764 1431,5765 1434,5765 1437,5765 1441,5765 1444,5765 1447,5765 1450,5765 1454,5764 1457,5764 1460,5763 1463,5762 1466,5761 1469,5760 1472,5758 1475,5757 1478,5755 1481,5754 1484,5752 1486,5750 1489,5748 1491,5746 1494,5743 1496,5741 1498,5739 1500,5736 1502,5733 1504,5731 1505,5728 1507,5725 1508,5722 1510,5719 1511,5716 1512,5713 1513,5710 1514,5707 1514,5703 1515,5700 1515,5697 1515,5694 1516,5690 Z"/>
 <path fill="rgb(221,221,221)" stroke="none" d="M 2576,5466 L 2576,5462 2576,5459 2575,5456 2575,5453 2574,5449 2573,5446 2573,5443 2571,5440 2570,5437 2569,5434 2568,5431 2566,5428 2564,5425 2562,5423 2561,5420 2558,5417 2556,5415 2554,5413 2552,5410 2549,5408 2547,5406 2544,5404 2541,5402 2539,5401 2536,5399 2533,5398 2530,5396 2527,5395 2524,5394 2520,5393 2517,5392 2514,5392 2511,5391 2508,5391 2504,5391 2501,5391 2498,5391 2494,5391 2491,5391 2488,5392 2485,5392 2482,5393 2478,5394 2475,5395 2472,5396 2469,5398 2466,5399 2464,5401 2461,5402 2458,5404 2455,5406 2453,5408 2450,5410 2448,5413 2446,5415 2444,5417 2441,5420 2440,5423 2438,5425 2436,5428 2434,5431 2433,5434 2432,5437 2431,5440 2429,5443 2429,5446 2428,5449 2427,5453 2427,5456 2426,5459 2426,5462 2426,5466 2426,5469 2426,5472 2427,5475 2427,5479 2428,5482 2429,5485 2429,5488 2431,5491 2432,5494 2433,5497 2434,5500 2436,5503 2438,5506 2440,5509 2441,5511 2444,5514 2446,5516 2448,5519 2450,5521 2453,5523 2455,5525 2458,5527 2461,5529 2464,5531 2466,5532 2469,5534 2472,5535 2475,5536 2478,5537 2482,5538 2485,5539 2488,5539 2491,5540 2494,5540 2498,5541 2501,5541 2504,5541 2508,5540 2511,5540 2514,5539 2517,5539 2520,5538 2524,5537 2527,5536 2530,5535 2533,5534 2536,5532 2539,5531 2541,5529 2544,5527 2547,5525 2549,5523 2552,5521 2554,5519 2556,5516 2558,5514 2561,5511 2562,5509 2564,5506 2566,5503 2568,5500 2569,5497 2570,5494 2571,5491 2573,5488 2573,5485 2574,5482 2575,5479 2575,5475 2576,5472 2576,5469 2576,5466 Z"/>
 <path fill="none" stroke="rgb(221,221,221)" stroke-linejoin="round" d="M 2576,5466 L 2576,5462 2576,5459 2575,5456 2575,5453 2574,5449 2573,5446 2573,5443 2571,5440 2570,5437 2569,5434 2568,5431 2566,5428 2564,5425 2562,5423 2561,5420 2558,5417 2556,5415 2554,5413 2552,5410 2549,5408 2547,5406 2544,5404 2541,5402 2539,5401 2536,5399 2533,5398 2530,5396 2527,5395 2524,5394 2520,5393 2517,5392 2514,5392 2511,5391 2508,5391 2504,5391 2501,5391 2498,5391 2494,5391 2491,5391 2488,5392 2485,5392 2482,5393 2478,5394 2475,5395 2472,5396 2469,5398 2466,5399 2464,5401 2461,5402 2458,5404 2455,5406 2453,5408 2450,5410 2448,5413 2446,5415 2444,5417 2441,5420 2440,5423 2438,5425 2436,5428 2434,5431 2433,5434 2432,5437 2431,5440 2429,5443 2429,5446 2428,5449 2427,5453 2427,5456 2426,5459 2426,5462 2426,5466 2426,5469 2426,5472 2427,5475 2427,5479 2428,5482 2429,5485 2429,5488 2431,5491 2432,5494 2433,5497 2434,5500 2436,5503 2438,5506 2440,5509 2441,5511 2444,5514 2446,5516 2448,5519 2450,5521 2453,5523 2455,5525 2458,5527 2461,5529 2464,5531 2466,5532 2469,5534 2472,5535 2475,5536 2478,5537 2482,5538 2485,5539 2488,5539 2491,5540 2494,5540 2498,5541 2501,5541 2504,5541 2508,5540 2511,5540 2514,5539 2517,5539 2520,5538 2524,5537 2527,5536 2530,5535 2533,5534 2536,5532 2539,5531 2541,5529 2544,5527 2547,5525 2549,5523 2552,5521 2554,5519 2556,5516 2558,5514 2561,5511 2562,5509 2564,5506 2566,5503 2568,5500 2569,5497 2570,5494 2571,5491 2573,5488 2573,5485 2574,5482 2575,5479 2575,5475 2576,5472 2576,5469 2576,5466 Z"/>
 <path fill="rgb(221,221,221)" stroke="none" d="M 3637,5296 L 3636,5293 3636,5290 3636,5286 3635,5283 3635,5280 3634,5277 3633,5274 3632,5271 3631,5268 3629,5265 3628,5262 3626,5259 3625,5256 3623,5253 3621,5251 3619,5248 3617,5246 3615,5243 3612,5241 3610,5239 3607,5237 3605,5235 3602,5233 3599,5231 3596,5230 3593,5228 3590,5227 3587,5226 3584,5225 3581,5224 3578,5223 3575,5222 3571,5222 3568,5222 3565,5221 3562,5221 3558,5221 3555,5222 3552,5222 3548,5222 3545,5223 3542,5224 3539,5225 3536,5226 3533,5227 3530,5228 3527,5230 3524,5231 3521,5233 3518,5235 3516,5237 3513,5239 3511,5241 3508,5243 3506,5246 3504,5248 3502,5251 3500,5253 3498,5256 3497,5259 3495,5262 3494,5265 3492,5268 3491,5271 3490,5274 3489,5277 3488,5280 3488,5283 3487,5286 3487,5290 3487,5293 3487,5296 3487,5300 3487,5303 3487,5306 3488,5309 3488,5312 3489,5316 3490,5319 3491,5322 3492,5325 3494,5328 3495,5331 3497,5334 3498,5337 3500,5339 3502,5342 3504,5344 3506,5347 3508,5349 3511,5352 3513,5354 3516,5356 3518,5358 3521,5359 3524,5361 3527,5363 3530,5364 3533,5366 3536,5367 3539,5368 3542,5369 3545,5369 3548,5370 3552,5371 3555,5371 3558,5371 3562,5371 3565,5371 3568,5371 3571,5371 3575,5370 3578,5369 3581,5369 3584,5368 3587,5367 3590,5366 3593,5364 3596,5363 3599,5361 3602,5359 3605,5358 3607,5356 3610,5354 3612,5352 3615,5349 3617,5347 3619,5344 3621,5342 3623,5339 3625,5337 3626,5334 3628,5331 3629,5328 3631,5325 3632,5322 3633,5319 3634,5316 3635,5312 3635,5309 3636,5306 3636,5303 3636,5300 3637,5296 Z"/>
 <path fill="none" stroke="rgb(221,221,221)" stroke-linejoin="round" d="M 3637,5296 L 3636,5293 3636,5290 3636,5286 3635,5283 3635,5280 3634,5277 3633,5274 3632,5271 3631,5268 3629,5265 3628,5262 3626,5259 3625,5256 3623,5253 3621,5251 3619,5248 3617,5246 3615,5243 3612,5241 3610,5239 3607,5237 3605,5235 3602,5233 3599,5231 3596,5230 3593,5228 3590,5227 3587,5226 3584,5225 3581,5224 3578,5223 3575,5222 3571,5222 3568,5222 3565,5221 3562,5221 3558,5221 3555,5222 3552,5222 3548,5222 3545,5223 3542,5224 3539,5225 3536,5226 3533,5227 3530,5228 3527,5230 3524,5231 3521,5233 3518,5235 3516,5237 3513,5239 3511,5241 3508,5243 3506,5246 3504,5248 3502,5251 3500,5253 3498,5256 3497,5259 3495,5262 3494,5265 3492,5268 3491,5271 3490,5274 3489,5277 3488,5280 3488,5283 3487,5286 3487,5290 3487,5293 3487,5296 3487,5300 3487,5303 3487,5306 3488,5309 3488,5312 3489,5316 3490,5319 3491,5322 3492,5325 3494,5328 3495,5331 3497,5334 3498,5337 3500,5339 3502,5342 3504,5344 3506,5347 3508,5349 3511,5352 3513,5354 3516,5356 3518,5358 3521,5359 3524,5361 3527,5363 3530,5364 3533,5366 3536,5367 3539,5368 3542,5369 3545,5369 3548,5370 3552,5371 3555,5371 3558,5371 3562,5371 3565,5371 3568,5371 3571,5371 3575,5370 3578,5369 3581,5369 3584,5368 3587,5367 3590,5366 3593,5364 3596,5363 3599,5361 3602,5359 3605,5358 3607,5356 3610,5354 3612,5352 3615,5349 3617,5347 3619,5344 3621,5342 3623,5339 3625,5337 3626,5334 3628,5331 3629,5328 3631,5325 3632,5322 3633,5319 3634,5316 3635,5312 3635,5309 3636,5306 3636,5303 3636,5300 3637,5296 Z"/>
 <path fill="rgb(221,221,221)" stroke="none" d="M 4697,5289 L 4697,5286 4697,5282 4696,5279 4696,5276 4695,5273 4694,5270 4694,5266 4692,5263 4691,5260 4690,5257 4689,5254 4687,5252 4685,5249 4683,5246 4682,5243 4679,5241 4677,5238 4675,5236 4673,5234 4670,5232 4668,5230 4665,5228 4662,5226 4660,5224 4657,5223 4654,5221 4651,5220 4648,5219 4645,5218 4641,5217 4638,5216 4635,5215 4632,5215 4629,5214 4625,5214 4622,5214 4619,5214 4615,5214 4612,5215 4609,5215 4606,5216 4603,5217 4599,5218 4596,5219 4593,5220 4590,5221 4587,5223 4585,5224 4582,5226 4579,5228 4576,5230 4574,5232 4571,5234 4569,5236 4567,5238 4565,5241 4562,5243 4561,5246 4559,5249 4557,5252 4555,5254 4554,5257 4553,5260 4552,5263 4550,5266 4550,5270 4549,5273 4548,5276 4548,5279 4547,5282 4547,5286 4547,5289 4547,5292 4547,5296 4548,5299 4548,5302 4549,5305 4550,5308 4550,5312 4552,5315 4553,5318 4554,5321 4555,5324 4557,5327 4559,5329 4561,5332 4562,5335 4565,5337 4567,5340 4569,5342 4571,5344 4574,5346 4576,5349 4579,5350 4582,5352 4585,5354 4587,5356 4590,5357 4593,5358 4596,5360 4599,5361 4603,5361 4606,5362 4609,5363 4612,5363 4615,5364 4619,5364 4622,5364 4625,5364 4629,5364 4632,5363 4635,5363 4638,5362 4641,5361 4645,5361 4648,5360 4651,5358 4654,5357 4657,5356 4660,5354 4662,5352 4665,5350 4668,5349 4670,5346 4673,5344 4675,5342 4677,5340 4679,5337 4682,5335 4683,5332 4685,5329 4687,5327 4689,5324 4690,5321 4691,5318 4692,5315 4694,5312 4694,5308 4695,5305 4696,5302 4696,5299 4697,5296 4697,5292 4697,5289 Z"/>
 <path fill="none" stroke="rgb(221,221,221)" stroke-linejoin="round" d="M 4697,5289 L 4697,5286 4697,5282 4696,5279 4696,5276 4695,5273 4694,5270 4694,5266 4692,5263 4691,5260 4690,5257 4689,5254 4687,5252 4685,5249 4683,5246 4682,5243 4679,5241 4677,5238 4675,5236 4673,5234 4670,5232 4668,5230 4665,5228 4662,5226 4660,5224 4657,5223 4654,5221 4651,5220 4648,5219 4645,5218 4641,5217 4638,5216 4635,5215 4632,5215 4629,5214 4625,5214 4622,5214 4619,5214 4615,5214 4612,5215 4609,5215 4606,5216 4603,5217 4599,5218 4596,5219 4593,5220 4590,5221 4587,5223 4585,5224 4582,5226 4579,5228 4576,5230 4574,5232 4571,5234 4569,5236 4567,5238 4565,5241 4562,5243 4561,5246 4559,5249 4557,5252 4555,5254 4554,5257 4553,5260 4552,5263 4550,5266 4550,5270 4549,5273 4548,5276 4548,5279 4547,5282 4547,5286 4547,5289 4547,5292 4547,5296 4548,5299 4548,5302 4549,5305 4550,5308 4550,5312 4552,5315 4553,5318 4554,5321 4555,5324 4557,5327 4559,5329 4561,5332 4562,5335 4565,5337 4567,5340 4569,5342 4571,5344 4574,5346 4576,5349 4579,5350 4582,5352 4585,5354 4587,5356 4590,5357 4593,5358 4596,5360 4599,5361 4603,5361 4606,5362 4609,5363 4612,5363 4615,5364 4619,5364 4622,5364 4625,5364 4629,5364 4632,5363 4635,5363 4638,5362 4641,5361 4645,5361 4648,5360 4651,5358 4654,5357 4657,5356 4660,5354 4662,5352 4665,5350 4668,5349 4670,5346 4673,5344 4675,5342 4677,5340 4679,5337 4682,5335 4683,5332 4685,5329 4687,5327 4689,5324 4690,5321 4691,5318 4692,5315 4694,5312 4694,5308 4695,5305 4696,5302 4696,5299 4697,5296 4697,5292 4697,5289 Z"/>
 <path fill="rgb(221,221,221)" stroke="none" d="M 5758,5278 L 5757,5274 5757,5271 5757,5268 5756,5265 5756,5261 5755,5258 5754,5255 5753,5252 5752,5249 5750,5246 5749,5243 5747,5240 5746,5237 5744,5235 5742,5232 5740,5229 5738,5227 5736,5225 5733,5222 5731,5220 5728,5218 5726,5216 5723,5214 5720,5213 5717,5211 5714,5210 5711,5208 5708,5207 5705,5206 5702,5205 5699,5204 5696,5204 5692,5203 5689,5203 5686,5203 5683,5203 5679,5203 5676,5203 5673,5203 5669,5204 5666,5204 5663,5205 5660,5206 5657,5207 5654,5208 5651,5210 5648,5211 5645,5213 5642,5214 5639,5216 5637,5218 5634,5220 5632,5222 5629,5225 5627,5227 5625,5229 5623,5232 5621,5235 5619,5237 5618,5240 5616,5243 5615,5246 5613,5249 5612,5252 5611,5255 5610,5258 5609,5261 5609,5265 5608,5268 5608,5271 5608,5274 5608,5278 5608,5281 5608,5284 5608,5287 5609,5291 5609,5294 5610,5297 5611,5300 5612,5303 5613,5306 5615,5309 5616,5312 5618,5315 5619,5318 5621,5321 5623,5323 5625,5326 5627,5328 5629,5331 5632,5333 5634,5335 5637,5337 5639,5339 5642,5341 5645,5343 5648,5344 5651,5346 5654,5347 5657,5348 5660,5349 5663,5350 5666,5351 5669,5352 5673,5352 5676,5352 5679,5353 5683,5353 5686,5353 5689,5352 5692,5352 5696,5352 5699,5351 5702,5350 5705,5349 5708,5348 5711,5347 5714,5346 5717,5344 5720,5343 5723,5341 5726,5339 5728,5337 5731,5335 5733,5333 5736,5331 5738,5328 5740,5326 5742,5323 5744,5321 5746,5318 5747,5315 5749,5312 5750,5309 5752,5306 5753,5303 5754,5300 5755,5297 5756,5294 5756,5291 5757,5287 5757,5284 5757,5281 5758,5278 Z"/>
 <path fill="none" stroke="rgb(221,221,221)" stroke-linejoin="round" d="M 5758,5278 L 5757,5274 5757,5271 5757,5268 5756,5265 5756,5261 5755,5258 5754,5255 5753,5252 5752,5249 5750,5246 5749,5243 5747,5240 5746,5237 5744,5235 5742,5232 5740,5229 5738,5227 5736,5225 5733,5222 5731,5220 5728,5218 5726,5216 5723,5214 5720,5213 5717,5211 5714,5210 5711,5208 5708,5207 5705,5206 5702,5205 5699,5204 5696,5204 5692,5203 5689,5203 5686,5203 5683,5203 5679,5203 5676,5203 5673,5203 5669,5204 5666,5204 5663,5205 5660,5206 5657,5207 5654,5208 5651,5210 5648,5211 5645,5213 5642,5214 5639,5216 5637,5218 5634,5220 5632,5222 5629,5225 5627,5227 5625,5229 5623,5232 5621,5235 5619,5237 5618,5240 5616,5243 5615,5246 5613,5249 5612,5252 5611,5255 5610,5258 5609,5261 5609,5265 5608,5268 5608,5271 5608,5274 5608,5278 5608,5281 5608,5284 5608,5287 5609,5291 5609,5294 5610,5297 5611,5300 5612,5303 5613,5306 5615,5309 5616,5312 5618,5315 5619,5318 5621,5321 5623,5323 5625,5326 5627,5328 5629,5331 5632,5333 5634,5335 5637,5337 5639,5339 5642,5341 5645,5343 5648,5344 5651,5346 5654,5347 5657,5348 5660,5349 5663,5350 5666,5351 5669,5352 5673,5352 5676,5352 5679,5353 5683,5353 5686,5353 5689,5352 5692,5352 5696,5352 5699,5351 5702,5350 5705,5349 5708,5348 5711,5347 5714,5346 5717,5344 5720,5343 5723,5341 5726,5339 5728,5337 5731,5335 5733,5333 5736,5331 5738,5328 5740,5326 5742,5323 5744,5321 5746,5318 5747,5315 5749,5312 5750,5309 5752,5306 5753,5303 5754,5300 5755,5297 5756,5294 5756,5291 5757,5287 5757,5284 5757,5281 5758,5278 Z"/>
 <path fill="rgb(221,221,221)" stroke="none" d="M 6818,5231 L 6818,5228 6818,5225 6817,5221 6817,5218 6816,5215 6815,5212 6815,5209 6813,5205 6812,5202 6811,5199 6810,5196 6808,5194 6806,5191 6804,5188 6803,5185 6800,5183 6798,5180 6796,5178 6794,5176 6791,5174 6789,5172 6786,5170 6783,5168 6781,5166 6778,5165 6775,5163 6772,5162 6769,5161 6766,5160 6762,5159 6759,5158 6756,5157 6753,5157 6750,5156 6746,5156 6743,5156 6740,5156 6736,5156 6733,5157 6730,5157 6727,5158 6724,5159 6720,5160 6717,5161 6714,5162 6711,5163 6708,5165 6706,5166 6703,5168 6700,5170 6697,5172 6695,5174 6692,5176 6690,5178 6688,5180 6686,5183 6683,5185 6682,5188 6680,5191 6678,5194 6676,5196 6675,5199 6674,5202 6673,5205 6671,5209 6671,5212 6670,5215 6669,5218 6669,5221 6668,5225 6668,5228 6668,5231 6668,5234 6668,5238 6669,5241 6669,5244 6670,5247 6671,5250 6671,5254 6673,5257 6674,5260 6675,5263 6676,5266 6678,5269 6680,5271 6682,5274 6683,5277 6686,5279 6688,5282 6690,5284 6692,5286 6695,5289 6697,5291 6700,5293 6703,5294 6706,5296 6708,5298 6711,5299 6714,5300 6717,5302 6720,5303 6724,5304 6727,5304 6730,5305 6733,5305 6736,5306 6740,5306 6743,5306 6746,5306 6750,5306 6753,5305 6756,5305 6759,5304 6762,5304 6766,5303 6769,5302 6772,5300 6775,5299 6778,5298 6781,5296 6783,5294 6786,5293 6789,5291 6791,5289 6794,5286 6796,5284 6798,5282 6800,5279 6803,5277 6804,5274 6806,5271 6808,5269 6810,5266 6811,5263 6812,5260 6813,5257 6815,5254 6815,5250 6816,5247 6817,5244 6817,5241 6818,5238 6818,5234 6818,5231 Z"/>
 <path fill="none" stroke="rgb(221,221,221)" stroke-linejoin="round" d="M 6818,5231 L 6818,5228 6818,5225 6817,5221 6817,5218 6816,5215 6815,5212 6815,5209 6813,5205 6812,5202 6811,5199 6810,5196 6808,5194 6806,5191 6804,5188 6803,5185 6800,5183 6798,5180 6796,5178 6794,5176 6791,5174 6789,5172 6786,5170 6783,5168 6781,5166 6778,5165 6775,5163 6772,5162 6769,5161 6766,5160 6762,5159 6759,5158 6756,5157 6753,5157 6750,5156 6746,5156 6743,5156 6740,5156 6736,5156 6733,5157 6730,5157 6727,5158 6724,5159 6720,5160 6717,5161 6714,5162 6711,5163 6708,5165 6706,5166 6703,5168 6700,5170 6697,5172 6695,5174 6692,5176 6690,5178 6688,5180 6686,5183 6683,5185 6682,5188 6680,5191 6678,5194 6676,5196 6675,5199 6674,5202 6673,5205 6671,5209 6671,5212 6670,5215 6669,5218 6669,5221 6668,5225 6668,5228 6668,5231 6668,5234 6668,5238 6669,5241 6669,5244 6670,5247 6671,5250 6671,5254 6673,5257 6674,5260 6675,5263 6676,5266 6678,5269 6680,5271 6682,5274 6683,5277 6686,5279 6688,5282 6690,5284 6692,5286 6695,5289 6697,5291 6700,5293 6703,5294 6706,5296 6708,5298 6711,5299 6714,5300 6717,5302 6720,5303 6724,5304 6727,5304 6730,5305 6733,5305 6736,5306 6740,5306 6743,5306 6746,5306 6750,5306 6753,5305 6756,5305 6759,5304 6762,5304 6766,5303 6769,5302 6772,5300 6775,5299 6778,5298 6781,5296 6783,5294 6786,5293 6789,5291 6791,5289 6794,5286 6796,5284 6798,5282 6800,5279 6803,5277 6804,5274 6806,5271 6808,5269 6810,5266 6811,5263 6812,5260 6813,5257 6815,5254 6815,5250 6816,5247 6817,5244 6817,5241 6818,5238 6818,5234 6818,5231 Z"/>
 <path fill="rgb(221,221,221)" stroke="none" d="M 7879,5229 L 7878,5225 7878,5222 7878,5219 7877,5216 7877,5212 7876,5209 7875,5206 7874,5203 7873,5200 7871,5197 7870,5194 7868,5191 7867,5188 7865,5186 7863,5183 7861,5180 7859,5178 7857,5176 7854,5173 7852,5171 7849,5169 7847,5167 7844,5165 7841,5164 7838,5162 7835,5161 7832,5159 7829,5158 7826,5157 7823,5156 7820,5155 7817,5155 7813,5154 7810,5154 7807,5154 7804,5154 7800,5154 7797,5154 7794,5154 7790,5155 7787,5155 7784,5156 7781,5157 7778,5158 7775,5159 7772,5161 7769,5162 7766,5164 7763,5165 7760,5167 7758,5169 7755,5171 7753,5173 7750,5176 7748,5178 7746,5180 7744,5183 7742,5186 7740,5188 7739,5191 7737,5194 7736,5197 7734,5200 7733,5203 7732,5206 7731,5209 7730,5212 7730,5216 7729,5219 7729,5222 7729,5225 7729,5229 7729,5232 7729,5235 7729,5238 7730,5242 7730,5245 7731,5248 7732,5251 7733,5254 7734,5257 7736,5260 7737,5263 7739,5266 7740,5269 7742,5272 7744,5274 7746,5277 7748,5279 7750,5282 7753,5284 7755,5286 7758,5288 7760,5290 7763,5292 7766,5294 7769,5295 7772,5297 7775,5298 7778,5299 7781,5300 7784,5301 7787,5302 7790,5303 7794,5303 7797,5303 7800,5304 7804,5304 7807,5304 7810,5303 7813,5303 7817,5303 7820,5302 7823,5301 7826,5300 7829,5299 7832,5298 7835,5297 7838,5295 7841,5294 7844,5292 7847,5290 7849,5288 7852,5286 7854,5284 7857,5282 7859,5279 7861,5277 7863,5274 7865,5272 7867,5269 7868,5266 7870,5263 7871,5260 7873,5257 7874,5254 7875,5251 7876,5248 7877,5245 7877,5242 7878,5238 7878,5235 7878,5232 7879,5229 Z"/>
 <path fill="none" stroke="rgb(221,221,221)" stroke-linejoin="round" d="M 7879,5229 L 7878,5225 7878,5222 7878,5219 7877,5216 7877,5212 7876,5209 7875,5206 7874,5203 7873,5200 7871,5197 7870,5194 7868,5191 7867,5188 7865,5186 7863,5183 7861,5180 7859,5178 7857,5176 7854,5173 7852,5171 7849,5169 7847,5167 7844,5165 7841,5164 7838,5162 7835,5161 7832,5159 7829,5158 7826,5157 7823,5156 7820,5155 7817,5155 7813,5154 7810,5154 7807,5154 7804,5154 7800,5154 7797,5154 7794,5154 7790,5155 7787,5155 7784,5156 7781,5157 7778,5158 7775,5159 7772,5161 7769,5162 7766,5164 7763,5165 7760,5167 7758,5169 7755,5171 7753,5173 7750,5176 7748,5178 7746,5180 7744,5183 7742,5186 7740,5188 7739,5191 7737,5194 7736,5197 7734,5200 7733,5203 7732,5206 7731,5209 7730,5212 7730,5216 7729,5219 7729,5222 7729,5225 7729,5229 7729,5232 7729,5235 7729,5238 7730,5242 7730,5245 7731,5248 7732,5251 7733,5254 7734,5257 7736,5260 7737,5263 7739,5266 7740,5269 7742,5272 7744,5274 7746,5277 7748,5279 7750,5282 7753,5284 7755,5286 7758,5288 7760,5290 7763,5292 7766,5294 7769,5295 7772,5297 7775,5298 7778,5299 7781,5300 7784,5301 7787,5302 7790,5303 7794,5303 7797,5303 7800,5304 7804,5304 7807,5304 7810,5303 7813,5303 7817,5303 7820,5302 7823,5301 7826,5300 7829,5299 7832,5298 7835,5297 7838,5295 7841,5294 7844,5292 7847,5290 7849,5288 7852,5286 7854,5284 7857,5282 7859,5279 7861,5277 7863,5274 7865,5272 7867,5269 7868,5266 7870,5263 7871,5260 7873,5257 7874,5254 7875,5251 7876,5248 7877,5245 7877,5242 7878,5238 7878,5235 7878,5232 7879,5229 Z"/>
 <path fill="rgb(221,221,221)" stroke="none" d="M 8939,5220 L 8939,5217 8939,5214 8938,5211 8938,5207 8937,5204 8936,5201 8936,5198 8934,5195 8933,5192 8932,5189 8931,5186 8929,5183 8927,5180 8925,5177 8924,5175 8921,5172 8919,5170 8917,5167 8915,5165 8912,5163 8910,5161 8907,5159 8904,5157 8902,5155 8899,5154 8896,5152 8893,5151 8890,5150 8887,5149 8883,5148 8880,5147 8877,5147 8874,5146 8871,5146 8867,5145 8864,5145 8861,5145 8857,5146 8854,5146 8851,5147 8848,5147 8845,5148 8841,5149 8838,5150 8835,5151 8832,5152 8829,5154 8827,5155 8824,5157 8821,5159 8818,5161 8816,5163 8813,5165 8811,5167 8809,5170 8807,5172 8804,5175 8803,5177 8801,5180 8799,5183 8797,5186 8796,5189 8795,5192 8794,5195 8792,5198 8792,5201 8791,5204 8790,5207 8790,5211 8789,5214 8789,5217 8789,5220 8789,5224 8789,5227 8790,5230 8790,5233 8791,5237 8792,5240 8792,5243 8794,5246 8795,5249 8796,5252 8797,5255 8799,5258 8801,5261 8803,5263 8804,5266 8807,5269 8809,5271 8811,5273 8813,5276 8816,5278 8818,5280 8821,5282 8824,5284 8827,5285 8829,5287 8832,5288 8835,5290 8838,5291 8841,5292 8845,5293 8848,5294 8851,5294 8854,5295 8857,5295 8861,5295 8864,5295 8867,5295 8871,5295 8874,5295 8877,5294 8880,5294 8883,5293 8887,5292 8890,5291 8893,5290 8896,5288 8899,5287 8902,5285 8904,5284 8907,5282 8910,5280 8912,5278 8915,5276 8917,5273 8919,5271 8921,5269 8924,5266 8925,5263 8927,5261 8929,5258 8931,5255 8932,5252 8933,5249 8934,5246 8936,5243 8936,5240 8937,5237 8938,5233 8938,5230 8939,5227 8939,5224 8939,5220 Z"/>
 <path fill="none" stroke="rgb(221,221,221)" stroke-linejoin="round" d="M 8939,5220 L 8939,5217 8939,5214 8938,5211 8938,5207 8937,5204 8936,5201 8936,5198 8934,5195 8933,5192 8932,5189 8931,5186 8929,5183 8927,5180 8925,5177 8924,5175 8921,5172 8919,5170 8917,5167 8915,5165 8912,5163 8910,5161 8907,5159 8904,5157 8902,5155 8899,5154 8896,5152 8893,5151 8890,5150 8887,5149 8883,5148 8880,5147 8877,5147 8874,5146 8871,5146 8867,5145 8864,5145 8861,5145 8857,5146 8854,5146 8851,5147 8848,5147 8845,5148 8841,5149 8838,5150 8835,5151 8832,5152 8829,5154 8827,5155 8824,5157 8821,5159 8818,5161 8816,5163 8813,5165 8811,5167 8809,5170 8807,5172 8804,5175 8803,5177 8801,5180 8799,5183 8797,5186 8796,5189 8795,5192 8794,5195 8792,5198 8792,5201 8791,5204 8790,5207 8790,5211 8789,5214 8789,5217 8789,5220 8789,5224 8789,5227 8790,5230 8790,5233 8791,5237 8792,5240 8792,5243 8794,5246 8795,5249 8796,5252 8797,5255 8799,5258 8801,5261 8803,5263 8804,5266 8807,5269 8809,5271 8811,5273 8813,5276 8816,5278 8818,5280 8821,5282 8824,5284 8827,5285 8829,5287 8832,5288 8835,5290 8838,5291 8841,5292 8845,5293 8848,5294 8851,5294 8854,5295 8857,5295 8861,5295 8864,5295 8867,5295 8871,5295 8874,5295 8877,5294 8880,5294 8883,5293 8887,5292 8890,5291 8893,5290 8896,5288 8899,5287 8902,5285 8904,5284 8907,5282 8910,5280 8912,5278 8915,5276 8917,5273 8919,5271 8921,5269 8924,5266 8925,5263 8927,5261 8929,5258 8931,5255 8932,5252 8933,5249 8934,5246 8936,5243 8936,5240 8937,5237 8938,5233 8938,5230 8939,5227 8939,5224 8939,5220 Z"/>
 <path fill="rgb(221,221,221)" stroke="none" d="M 9999,5215 L 9998,5211 9998,5208 9998,5205 9997,5202 9997,5198 9996,5195 9995,5192 9994,5189 9993,5186 9991,5183 9990,5180 9988,5177 9987,5174 9985,5172 9983,5169 9981,5166 9979,5164 9977,5162 9974,5159 9972,5157 9969,5155 9967,5153 9964,5151 9961,5150 9958,5148 9955,5147 9952,5145 9949,5144 9946,5143 9943,5142 9940,5141 9937,5141 9933,5140 9930,5140 9927,5140 9924,5140 9920,5140 9917,5140 9914,5140 9910,5141 9907,5141 9904,5142 9901,5143 9898,5144 9895,5145 9892,5147 9889,5148 9886,5150 9883,5151 9880,5153 9878,5155 9875,5157 9873,5159 9870,5162 9868,5164 9866,5166 9864,5169 9862,5172 9860,5174 9859,5177 9857,5180 9856,5183 9854,5186 9853,5189 9852,5192 9851,5195 9850,5198 9850,5202 9849,5205 9849,5208 9849,5211 9849,5215 9849,5218 9849,5221 9849,5224 9850,5228 9850,5231 9851,5234 9852,5237 9853,5240 9854,5243 9856,5246 9857,5249 9859,5252 9860,5255 9862,5258 9864,5260 9866,5263 9868,5265 9870,5268 9873,5270 9875,5272 9878,5274 9880,5276 9883,5278 9886,5280 9889,5281 9892,5283 9895,5284 9898,5285 9901,5286 9904,5287 9907,5288 9910,5289 9914,5289 9917,5289 9920,5290 9924,5290 9927,5290 9930,5289 9933,5289 9937,5289 9940,5288 9943,5287 9946,5286 9949,5285 9952,5284 9955,5283 9958,5281 9961,5280 9964,5278 9967,5276 9969,5274 9972,5272 9974,5270 9977,5268 9979,5265 9981,5263 9983,5260 9985,5258 9987,5255 9988,5252 9990,5249 9991,5246 9993,5243 9994,5240 9995,5237 9996,5234 9997,5231 9997,5228 9998,5224 9998,5221 9998,5218 9999,5215 Z"/>
 <path fill="none" stroke="rgb(221,221,221)" stroke-linejoin="round" d="M 9999,5215 L 9998,5211 9998,5208 9998,5205 9997,5202 9997,5198 9996,5195 9995,5192 9994,5189 9993,5186 9991,5183 9990,5180 9988,5177 9987,5174 9985,5172 9983,5169 9981,5166 9979,5164 9977,5162 9974,5159 9972,5157 9969,5155 9967,5153 9964,5151 9961,5150 9958,5148 9955,5147 9952,5145 9949,5144 9946,5143 9943,5142 9940,5141 9937,5141 9933,5140 9930,5140 9927,5140 9924,5140 9920,5140 9917,5140 9914,5140 9910,5141 9907,5141 9904,5142 9901,5143 9898,5144 9895,5145 9892,5147 9889,5148 9886,5150 9883,5151 9880,5153 9878,5155 9875,5157 9873,5159 9870,5162 9868,5164 9866,5166 9864,5169 9862,5172 9860,5174 9859,5177 9857,5180 9856,5183 9854,5186 9853,5189 9852,5192 9851,5195 9850,5198 9850,5202 9849,5205 9849,5208 9849,5211 9849,5215 9849,5218 9849,5221 9849,5224 9850,5228 9850,5231 9851,5234 9852,5237 9853,5240 9854,5243 9856,5246 9857,5249 9859,5252 9860,5255 9862,5258 9864,5260 9866,5263 9868,5265 9870,5268 9873,5270 9875,5272 9878,5274 9880,5276 9883,5278 9886,5280 9889,5281 9892,5283 9895,5284 9898,5285 9901,5286 9904,5287 9907,5288 9910,5289 9914,5289 9917,5289 9920,5290 9924,5290 9927,5290 9930,5289 9933,5289 9937,5289 9940,5288 9943,5287 9946,5286 9949,5285 9952,5284 9955,5283 9958,5281 9961,5280 9964,5278 9967,5276 9969,5274 9972,5272 9974,5270 9977,5268 9979,5265 9981,5263 9983,5260 9985,5258 9987,5255 9988,5252 9990,5249 9991,5246 9993,5243 9994,5240 9995,5237 9996,5234 9997,5231 9997,5228 9998,5224 9998,5221 9998,5218 9999,5215 Z"/>
 <path fill="rgb(221,221,221)" stroke="none" d="M 11059,5210 L 11059,5207 11059,5203 11058,5200 11058,5197 11057,5194 11056,5190 11056,5187 11054,5184 11053,5181 11052,5178 11051,5175 11049,5172 11047,5169 11045,5167 11044,5164 11041,5162 11039,5159 11037,5157 11035,5154 11032,5152 11030,5150 11027,5148 11024,5147 11022,5145 11019,5143 11016,5142 11013,5141 11010,5139 11007,5138 11003,5137 11000,5137 10997,5136 10994,5135 10991,5135 10987,5135 10984,5135 10981,5135 10977,5135 10974,5135 10971,5136 10968,5137 10965,5137 10961,5138 10958,5139 10955,5141 10952,5142 10949,5143 10947,5145 10944,5147 10941,5148 10938,5150 10936,5152 10933,5154 10931,5157 10929,5159 10927,5162 10924,5164 10923,5167 10921,5169 10919,5172 10917,5175 10916,5178 10915,5181 10914,5184 10912,5187 10912,5190 10911,5194 10910,5197 10910,5200 10909,5203 10909,5207 10909,5210 10909,5213 10909,5216 10910,5220 10910,5223 10911,5226 10912,5229 10912,5232 10914,5235 10915,5238 10916,5241 10917,5244 10919,5247 10921,5250 10923,5253 10924,5255 10927,5258 10929,5260 10931,5263 10933,5265 10936,5267 10938,5269 10941,5271 10944,5273 10947,5275 10949,5276 10952,5278 10955,5279 10958,5280 10961,5281 10965,5282 10968,5283 10971,5284 10974,5284 10977,5285 10981,5285 10984,5285 10987,5285 10991,5285 10994,5284 10997,5284 11000,5283 11003,5282 11007,5281 11010,5280 11013,5279 11016,5278 11019,5276 11022,5275 11024,5273 11027,5271 11030,5269 11032,5267 11035,5265 11037,5263 11039,5260 11041,5258 11044,5255 11045,5253 11047,5250 11049,5247 11051,5244 11052,5241 11053,5238 11054,5235 11056,5232 11056,5229 11057,5226 11058,5223 11058,5220 11059,5216 11059,5213 11059,5210 Z"/>
 <path fill="none" stroke="rgb(221,221,221)" stroke-linejoin="round" d="M 11059,5210 L 11059,5207 11059,5203 11058,5200 11058,5197 11057,5194 11056,5190 11056,5187 11054,5184 11053,5181 11052,5178 11051,5175 11049,5172 11047,5169 11045,5167 11044,5164 11041,5162 11039,5159 11037,5157 11035,5154 11032,5152 11030,5150 11027,5148 11024,5147 11022,5145 11019,5143 11016,5142 11013,5141 11010,5139 11007,5138 11003,5137 11000,5137 10997,5136 10994,5135 10991,5135 10987,5135 10984,5135 10981,5135 10977,5135 10974,5135 10971,5136 10968,5137 10965,5137 10961,5138 10958,5139 10955,5141 10952,5142 10949,5143 10947,5145 10944,5147 10941,5148 10938,5150 10936,5152 10933,5154 10931,5157 10929,5159 10927,5162 10924,5164 10923,5167 10921,5169 10919,5172 10917,5175 10916,5178 10915,5181 10914,5184 10912,5187 10912,5190 10911,5194 10910,5197 10910,5200 10909,5203 10909,5207 10909,5210 10909,5213 10909,5216 10910,5220 10910,5223 10911,5226 10912,5229 10912,5232 10914,5235 10915,5238 10916,5241 10917,5244 10919,5247 10921,5250 10923,5253 10924,5255 10927,5258 10929,5260 10931,5263 10933,5265 10936,5267 10938,5269 10941,5271 10944,5273 10947,5275 10949,5276 10952,5278 10955,5279 10958,5280 10961,5281 10965,5282 10968,5283 10971,5284 10974,5284 10977,5285 10981,5285 10984,5285 10987,5285 10991,5285 10994,5284 10997,5284 11000,5283 11003,5282 11007,5281 11010,5280 11013,5279 11016,5278 11019,5276 11022,5275 11024,5273 11027,5271 11030,5269 11032,5267 11035,5265 11037,5263 11039,5260 11041,5258 11044,5255 11045,5253 11047,5250 11049,5247 11051,5244 11052,5241 11053,5238 11054,5235 11056,5232 11056,5229 11057,5226 11058,5223 11058,5220 11059,5216 11059,5213 11059,5210 Z"/>
 <path fill="rgb(221,221,221)" stroke="none" d="M 12120,5205 L 12119,5202 12119,5198 12119,5195 12118,5192 12118,5189 12117,5186 12116,5182 12115,5179 12114,5176 12112,5173 12111,5170 12109,5168 12108,5165 12106,5162 12104,5159 12102,5157 12100,5154 12098,5152 12095,5150 12093,5148 12090,5146 12088,5144 12085,5142 12082,5140 12079,5138 12076,5137 12073,5136 12070,5135 12067,5133 12064,5133 12061,5132 12058,5131 12054,5131 12051,5130 12048,5130 12045,5130 12041,5130 12038,5130 12035,5131 12031,5131 12028,5132 12025,5133 12022,5133 12019,5135 12016,5136 12013,5137 12010,5138 12007,5140 12004,5142 12001,5144 11999,5146 11996,5148 11994,5150 11991,5152 11989,5154 11987,5157 11985,5159 11983,5162 11981,5165 11980,5168 11978,5170 11977,5173 11975,5176 11974,5179 11973,5182 11972,5186 11971,5189 11971,5192 11970,5195 11970,5198 11970,5202 11970,5205 11970,5208 11970,5212 11970,5215 11971,5218 11971,5221 11972,5224 11973,5228 11974,5231 11975,5234 11977,5237 11978,5240 11980,5243 11981,5245 11983,5248 11985,5251 11987,5253 11989,5256 11991,5258 11994,5260 11996,5262 11999,5265 12001,5266 12004,5268 12007,5270 12010,5272 12013,5273 12016,5274 12019,5275 12022,5277 12025,5277 12028,5278 12031,5279 12035,5279 12038,5280 12041,5280 12045,5280 12048,5280 12051,5280 12054,5279 12058,5279 12061,5278 12064,5277 12067,5277 12070,5275 12073,5274 12076,5273 12079,5272 12082,5270 12085,5268 12088,5266 12090,5265 12093,5262 12095,5260 12098,5258 12100,5256 12102,5253 12104,5251 12106,5248 12108,5245 12109,5243 12111,5240 12112,5237 12114,5234 12115,5231 12116,5228 12117,5224 12118,5221 12118,5218 12119,5215 12119,5212 12119,5208 12120,5205 Z"/>
 <path fill="none" stroke="rgb(221,221,221)" stroke-linejoin="round" d="M 12120,5205 L 12119,5202 12119,5198 12119,5195 12118,5192 12118,5189 12117,5186 12116,5182 12115,5179 12114,5176 12112,5173 12111,5170 12109,5168 12108,5165 12106,5162 12104,5159 12102,5157 12100,5154 12098,5152 12095,5150 12093,5148 12090,5146 12088,5144 12085,5142 12082,5140 12079,5138 12076,5137 12073,5136 12070,5135 12067,5133 12064,5133 12061,5132 12058,5131 12054,5131 12051,5130 12048,5130 12045,5130 12041,5130 12038,5130 12035,5131 12031,5131 12028,5132 12025,5133 12022,5133 12019,5135 12016,5136 12013,5137 12010,5138 12007,5140 12004,5142 12001,5144 11999,5146 11996,5148 11994,5150 11991,5152 11989,5154 11987,5157 11985,5159 11983,5162 11981,5165 11980,5168 11978,5170 11977,5173 11975,5176 11974,5179 11973,5182 11972,5186 11971,5189 11971,5192 11970,5195 11970,5198 11970,5202 11970,5205 11970,5208 11970,5212 11970,5215 11971,5218 11971,5221 11972,5224 11973,5228 11974,5231 11975,5234 11977,5237 11978,5240 11980,5243 11981,5245 11983,5248 11985,5251 11987,5253 11989,5256 11991,5258 11994,5260 11996,5262 11999,5265 12001,5266 12004,5268 12007,5270 12010,5272 12013,5273 12016,5274 12019,5275 12022,5277 12025,5277 12028,5278 12031,5279 12035,5279 12038,5280 12041,5280 12045,5280 12048,5280 12051,5280 12054,5279 12058,5279 12061,5278 12064,5277 12067,5277 12070,5275 12073,5274 12076,5273 12079,5272 12082,5270 12085,5268 12088,5266 12090,5265 12093,5262 12095,5260 12098,5258 12100,5256 12102,5253 12104,5251 12106,5248 12108,5245 12109,5243 12111,5240 12112,5237 12114,5234 12115,5231 12116,5228 12117,5224 12118,5221 12118,5218 12119,5215 12119,5212 12119,5208 12120,5205 Z"/>
 <text class="TextShape" transform="rotate(-44.9 663 7176)"><tspan class="TextParagraph" font-family="Liberation Sans, sans-serif" font-size="353px" font-weight="400"><tspan class="TextPosition" x="663" y="7176"><tspan fill="rgb(0,0,0)" stroke="none">2016-06</tspan></tspan></tspan></text>
 <text class="TextShape" transform="rotate(-44.9 1723 7176)"><tspan class="TextParagraph" font-family="Liberation Sans, sans-serif" font-size="353px" font-weight="400"><tspan class="TextPosition" x="1723" y="7176"><tspan fill="rgb(0,0,0)" stroke="none">2016-07</tspan></tspan></tspan></text>
 <text class="TextShape" transform="rotate(-44.9 2784 7176)"><tspan class="TextParagraph" font-family="Liberation Sans, sans-serif" font-size="353px" font-weight="400"><tspan class="TextPosition" x="2784" y="7176"><tspan fill="rgb(0,0,0)" stroke="none">2016-08</tspan></tspan></tspan></text>
 <text class="TextShape" transform="rotate(-44.9 3844 7176)"><tspan class="TextParagraph" font-family="Liberation Sans, sans-serif" font-size="353px" font-weight="400"><tspan class="TextPosition" x="3844" y="7176"><tspan fill="rgb(0,0,0)" stroke="none">2016-09</tspan></tspan></tspan></text>
 <text class="TextShape" transform="rotate(-44.9 4905 7176)"><tspan class="TextParagraph" font-family="Liberation Sans, sans-serif" font-size="353px" font-weight="400"><tspan class="TextPosition" x="4905" y="7176"><tspan fill="rgb(0,0,0)" stroke="none">2016-10</tspan></tspan></tspan></text>
 <text class="TextShape" transform="rotate(-44.9 5965 7176)"><tspan class="TextParagraph" font-family="Liberation Sans, sans-serif" font-size="353px" font-weight="400"><tspan class="TextPosition" x="5965" y="7176"><tspan fill="rgb(0,0,0)" stroke="none">2016-11</tspan></tspan></tspan></text>
 <text class="TextShape" transform="rotate(-44.9 7026 7176)"><tspan class="TextParagraph" font-family="Liberation Sans, sans-serif" font-size="353px" font-weight="400"><tspan class="TextPosition" x="7026" y="7176"><tspan fill="rgb(0,0,0)" stroke="none">2016-12</tspan></tspan></tspan></text>
 <text class="TextShape" transform="rotate(-44.9 8086 7176)"><tspan class="TextParagraph" font-family="Liberation Sans, sans-serif" font-size="353px" font-weight="400"><tspan class="TextPosition" x="8086" y="7176"><tspan fill="rgb(0,0,0)" stroke="none">2017-02</tspan></tspan></tspan></text>
 <text class="TextShape" transform="rotate(-44.9 9147 7176)"><tspan class="TextParagraph" font-family="Liberation Sans, sans-serif" font-size="353px" font-weight="400"><tspan class="TextPosition" x="9147" y="7176"><tspan fill="rgb(0,0,0)" stroke="none">2017-03</tspan></tspan></tspan></text>
 <text class="TextShape" transform="rotate(-44.9 10207 7176)"><tspan class="TextParagraph" font-family="Liberation Sans, sans-serif" font-size="353px" font-weight="400"><tspan class="TextPosition" x="10207" y="7176"><tspan fill="rgb(0,0,0)" stroke="none">2017-04</tspan></tspan></tspan></text>
 <text class="TextShape" transform="rotate(-44.9 11268 7176)"><tspan class="TextParagraph" font-family="Liberation Sans, sans-serif" font-size="353px" font-weight="400"><tspan class="TextPosition" x="11268" y="7176"><tspan fill="rgb(0,0,0)" stroke="none">2017-05</tspan></tspan></tspan></text>
 <text class="TextShape"><tspan class="TextParagraph" font-family="Liberation Sans, sans-serif" font-size="353px" font-weight="400"><tspan class="TextPosition" x="715" y="5961"><tspan fill="rgb(0,0,0)" stroke="none">0.0</tspan></tspan></tspan></text>
 <text class="TextShape"><tspan class="TextParagraph" font-family="Liberation Sans, sans-serif" font-size="353px" font-weight="400"><tspan class="TextPosition" x="715" y="5271"><tspan fill="rgb(0,0,0)" stroke="none">0.5</tspan></tspan></tspan></text>
 <text class="TextShape"><tspan class="TextParagraph" font-family="Liberation Sans, sans-serif" font-size="353px" font-weight="400"><tspan class="TextPosition" x="715" y="4581"><tspan fill="rgb(0,0,0)" stroke="none">1.0</tspan></tspan></tspan></text>
 <text class="TextShape"><tspan class="TextParagraph" font-family="Liberation Sans, sans-serif" font-size="353px" font-weight="400"><tspan class="TextPosition" x="715" y="3892"><tspan fill="rgb(0,0,0)" stroke="none">1.5</tspan></tspan></tspan></text>
 <text class="TextShape"><tspan class="TextParagraph" font-family="Liberation Sans, sans-serif" font-size="353px" font-weight="400"><tspan class="TextPosition" x="715" y="3202"><tspan fill="rgb(0,0,0)" stroke="none">2.0</tspan></tspan></tspan></text>
 <text class="TextShape"><tspan class="TextParagraph" font-family="Liberation Sans, sans-serif" font-size="353px" font-weight="400"><tspan class="TextPosition" x="715" y="2512"><tspan fill="rgb(0,0,0)" stroke="none">2.5</tspan></tspan></tspan></text>
 <text class="TextShape"><tspan class="TextParagraph" font-family="Liberation Sans, sans-serif" font-size="353px" font-weight="400"><tspan class="TextPosition" x="715" y="1822"><tspan fill="rgb(0,0,0)" stroke="none">3.0</tspan></tspan></tspan></text>
 <text class="TextShape"><tspan class="TextParagraph" font-family="Liberation Sans, sans-serif" font-size="353px" font-weight="400"><tspan class="TextPosition" x="715" y="1132"><tspan fill="rgb(0,0,0)" stroke="none">3.5</tspan></tspan></tspan></text>
 <text class="TextShape"><tspan class="TextParagraph" font-family="Liberation Sans, sans-serif" font-size="353px" font-weight="400"><tspan class="TextPosition" x="715" y="443"><tspan fill="rgb(0,0,0)" stroke="none">4.0</tspan></tspan></tspan></text>
 <path fill="none" stroke="rgb(221,221,221)" stroke-width="51" stroke-linejoin="round" d="M 12553,777 L 14153,777"/>
 <path fill="rgb(221,221,221)" stroke="none" d="M 13247,672 L 13247,883 13458,883 13458,672 13247,672 Z"/>
 <path fill="none" stroke="rgb(221,221,221)" stroke-linejoin="round" d="M 13247,672 L 13247,883 13458,883 13458,672 13247,672 Z"/>
 <path fill="none" stroke="rgb(102,102,187)" stroke-width="51" stroke-linejoin="round" d="M 12553,2156 L 14153,2156"/>
 <path fill="rgb(102,102,187)" stroke="none" d="M 13458,2156 L 13458,2151 13458,2147 13457,2142 13456,2138 13455,2133 13454,2129 13453,2124 13452,2120 13450,2116 13448,2111 13446,2107 13444,2103 13441,2099 13439,2095 13436,2092 13433,2088 13430,2085 13427,2081 13424,2078 13420,2075 13417,2072 13413,2070 13409,2067 13405,2065 13401,2062 13397,2060 13393,2059 13389,2057 13384,2055 13380,2054 13375,2053 13371,2052 13366,2051 13362,2051 13357,2051 13353,2051 13348,2051 13343,2051 13339,2051 13334,2052 13330,2053 13325,2054 13321,2055 13316,2057 13312,2059 13308,2060 13304,2062 13300,2065 13296,2067 13292,2070 13288,2072 13285,2075 13281,2078 13278,2081 13275,2085 13272,2088 13269,2092 13266,2095 13264,2099 13261,2103 13259,2107 13257,2111 13255,2116 13253,2120 13252,2124 13251,2129 13250,2133 13249,2138 13248,2142 13247,2147 13247,2151 13247,2156 13247,2161 13247,2165 13248,2170 13249,2174 13250,2179 13251,2183 13252,2188 13253,2192 13255,2196 13257,2201 13259,2205 13261,2209 13264,2213 13266,2217 13269,2220 13272,2224 13275,2227 13278,2231 13281,2234 13285,2237 13288,2240 13292,2242 13296,2245 13300,2247 13304,2250 13308,2252 13312,2253 13316,2255 13321,2257 13325,2258 13330,2259 13334,2260 13339,2261 13343,2261 13348,2261 13353,2262 13357,2261 13362,2261 13366,2261 13371,2260 13375,2259 13380,2258 13384,2257 13389,2255 13393,2253 13397,2252 13401,2250 13405,2247 13409,2245 13413,2242 13417,2240 13420,2237 13424,2234 13427,2231 13430,2227 13433,2224 13436,2220 13439,2217 13441,2213 13444,2209 13446,2205 13448,2201 13450,2196 13452,2192 13453,2188 13454,2183 13455,2179 13456,2174 13457,2170 13458,2165 13458,2161 13458,2156 Z"/>
 <path fill="none" stroke="rgb(102,102,187)" stroke-linejoin="round" d="M 13458,2156 L 13458,2151 13458,2147 13457,2142 13456,2138 13455,2133 13454,2129 13453,2124 13452,2120 13450,2116 13448,2111 13446,2107 13444,2103 13441,2099 13439,2095 13436,2092 13433,2088 13430,2085 13427,2081 13424,2078 13420,2075 13417,2072 13413,2070 13409,2067 13405,2065 13401,2062 13397,2060 13393,2059 13389,2057 13384,2055 13380,2054 13375,2053 13371,2052 13366,2051 13362,2051 13357,2051 13353,2051 13348,2051 13343,2051 13339,2051 13334,2052 13330,2053 13325,2054 13321,2055 13316,2057 13312,2059 13308,2060 13304,2062 13300,2065 13296,2067 13292,2070 13288,2072 13285,2075 13281,2078 13278,2081 13275,2085 13272,2088 13269,2092 13266,2095 13264,2099 13261,2103 13259,2107 13257,2111 13255,2116 13253,2120 13252,2124 13251,2129 13250,2133 13249,2138 13248,2142 13247,2147 13247,2151 13247,2156 13247,2161 13247,2165 13248,2170 13249,2174 13250,2179 13251,2183 13252,2188 13253,2192 13255,2196 13257,2201 13259,2205 13261,2209 13264,2213 13266,2217 13269,2220 13272,2224 13275,2227 13278,2231 13281,2234 13285,2237 13288,2240 13292,2242 13296,2245 13300,2247 13304,2250 13308,2252 13312,2253 13316,2255 13321,2257 13325,2258 13330,2259 13334,2260 13339,2261 13343,2261 13348,2261 13353,2262 13357,2261 13362,2261 13366,2261 13371,2260 13375,2259 13380,2258 13384,2257 13389,2255 13393,2253 13397,2252 13401,2250 13405,2247 13409,2245 13413,2242 13417,2240 13420,2237 13424,2234 13427,2231 13430,2227 13433,2224 13436,2220 13439,2217 13441,2213 13444,2209 13446,2205 13448,2201 13450,2196 13452,2192 13453,2188 13454,2183 13455,2179 13456,2174 13457,2170 13458,2165 13458,2161 13458,2156 Z"/>
 <path fill="none" stroke="rgb(221,102,102)" stroke-width="51" stroke-linejoin="round" stroke-dasharray="51,51,51,51" d="M 12553,3536 L 14153,3536"/>
 <path fill="rgb(221,102,102)" stroke="none" d="M 13247,3431 L 13247,3642 13458,3642 13458,3431 13247,3431 Z"/>
 <path fill="none" stroke="rgb(221,102,102)" stroke-linejoin="round" d="M 13247,3431 L 13247,3642 13458,3642 13458,3431 13247,3431 Z"/>
 <path fill="none" stroke="rgb(221,221,221)" stroke-width="51" stroke-linejoin="round" stroke-dasharray="51,51,51,51" d="M 12553,4916 L 14153,4916"/>
 <path fill="rgb(221,221,221)" stroke="none" d="M 13458,4916 L 13458,4911 13458,4907 13457,4902 13456,4898 13455,4893 13454,4889 13453,4884 13452,4880 13450,4876 13448,4871 13446,4867 13444,4863 13441,4859 13439,4855 13436,4852 13433,4848 13430,4845 13427,4841 13424,4838 13420,4835 13417,4832 13413,4830 13409,4827 13405,4825 13401,4822 13397,4820 13393,4819 13389,4817 13384,4815 13380,4814 13375,4813 13371,4812 13366,4811 13362,4811 13357,4811 13353,4811 13348,4811 13343,4811 13339,4811 13334,4812 13330,4813 13325,4814 13321,4815 13316,4817 13312,4819 13308,4820 13304,4822 13300,4825 13296,4827 13292,4830 13288,4832 13285,4835 13281,4838 13278,4841 13275,4845 13272,4848 13269,4852 13266,4855 13264,4859 13261,4863 13259,4867 13257,4871 13255,4876 13253,4880 13252,4884 13251,4889 13250,4893 13249,4898 13248,4902 13247,4907 13247,4911 13247,4916 13247,4921 13247,4925 13248,4930 13249,4934 13250,4939 13251,4943 13252,4948 13253,4952 13255,4956 13257,4961 13259,4965 13261,4969 13264,4973 13266,4977 13269,4980 13272,4984 13275,4987 13278,4991 13281,4994 13285,4997 13288,5000 13292,5002 13296,5005 13300,5007 13304,5010 13308,5012 13312,5013 13316,5015 13321,5017 13325,5018 13330,5019 13334,5020 13339,5021 13343,5021 13348,5021 13353,5022 13357,5021 13362,5021 13366,5021 13371,5020 13375,5019 13380,5018 13384,5017 13389,5015 13393,5013 13397,5012 13401,5010 13405,5007 13409,5005 13413,5002 13417,5000 13420,4997 13424,4994 13427,4991 13430,4987 13433,4984 13436,4980 13439,4977 13441,4973 13444,4969 13446,4965 13448,4961 13450,4956 13452,4952 13453,4948 13454,4943 13455,4939 13456,4934 13457,4930 13458,4925 13458,4921 13458,4916 Z"/>
 <path fill="none" stroke="rgb(221,221,221)" stroke-linejoin="round" d="M 13458,4916 L 13458,4911 13458,4907 13457,4902 13456,4898 13455,4893 13454,4889 13453,4884 13452,4880 13450,4876 13448,4871 13446,4867 13444,4863 13441,4859 13439,4855 13436,4852 13433,4848 13430,4845 13427,4841 13424,4838 13420,4835 13417,4832 13413,4830 13409,4827 13405,4825 13401,4822 13397,4820 13393,4819 13389,4817 13384,4815 13380,4814 13375,4813 13371,4812 13366,4811 13362,4811 13357,4811 13353,4811 13348,4811 13343,4811 13339,4811 13334,4812 13330,4813 13325,4814 13321,4815 13316,4817 13312,4819 13308,4820 13304,4822 13300,4825 13296,4827 13292,4830 13288,4832 13285,4835 13281,4838 13278,4841 13275,4845 13272,4848 13269,4852 13266,4855 13264,4859 13261,4863 13259,4867 13257,4871 13255,4876 13253,4880 13252,4884 13251,4889 13250,4893 13249,4898 13248,4902 13247,4907 13247,4911 13247,4916 13247,4921 13247,4925 13248,4930 13249,4934 13250,4939 13251,4943 13252,4948 13253,4952 13255,4956 13257,4961 13259,4965 13261,4969 13264,4973 13266,4977 13269,4980 13272,4984 13275,4987 13278,4991 13281,4994 13285,4997 13288,5000 13292,5002 13296,5005 13300,5007 13304,5010 13308,5012 13312,5013 13316,5015 13321,5017 13325,5018 13330,5019 13334,5020 13339,5021 13343,5021 13348,5021 13353,5022 13357,5021 13362,5021 13366,5021 13371,5020 13375,5019 13380,5018 13384,5017 13389,5015 13393,5013 13397,5012 13401,5010 13405,5007 13409,5005 13413,5002 13417,5000 13420,4997 13424,4994 13427,4991 13430,4987 13433,4984 13436,4980 13439,4977 13441,4973 13444,4969 13446,4965 13448,4961 13450,4956 13452,4952 13453,4948 13454,4943 13455,4939 13456,4934 13457,4930 13458,4925 13458,4921 13458,4916 Z"/>
 <text class="TextShape"><tspan class="TextParagraph" font-family="Liberation Sans, sans-serif" font-size="353px" font-weight="400"><tspan class="TextPosition" x="14253" y="920"><tspan fill="rgb(0,0,0)" stroke="none">cumulative</tspan></tspan></tspan><tspan class="TextParagraph" font-family="Liberation Sans, sans-serif" font-size="353px" font-weight="400"><tspan class="TextPosition" x="14253" y="1317"><tspan fill="rgb(0,0,0)" stroke="none">nanopublication snapshots</tspan></tspan></tspan></text>
 <text class="TextShape"><tspan class="TextParagraph" font-family="Liberation Sans, sans-serif" font-size="353px" font-weight="400"><tspan class="TextPosition" x="14253" y="2299"><tspan fill="rgb(0,0,0)" stroke="none">incremental</tspan></tspan></tspan><tspan class="TextParagraph" font-family="Liberation Sans, sans-serif" font-size="353px" font-weight="400"><tspan class="TextPosition" x="14253" y="2696"><tspan fill="rgb(0,0,0)" stroke="none">nanopublication datasets</tspan></tspan></tspan></text>
 <text class="TextShape"><tspan class="TextParagraph" font-family="Liberation Sans, sans-serif" font-size="353px" font-weight="400"><tspan class="TextPosition" x="14253" y="3679"><tspan fill="rgb(0,0,0)" stroke="none">cumulative</tspan></tspan></tspan><tspan class="TextParagraph" font-family="Liberation Sans, sans-serif" font-size="353px" font-weight="400"><tspan class="TextPosition" x="14253" y="4076"><tspan fill="rgb(0,0,0)" stroke="none">decontextualized snapshots</tspan></tspan></tspan></text>
 <text class="TextShape"><tspan class="TextParagraph" font-family="Liberation Sans, sans-serif" font-size="353px" font-weight="400"><tspan class="TextPosition" x="14253" y="5059"><tspan fill="rgb(0,0,0)" stroke="none">incremental</tspan></tspan></tspan><tspan class="TextParagraph" font-family="Liberation Sans, sans-serif" font-size="353px" font-weight="400"><tspan class="TextPosition" x="14253" y="5456"><tspan fill="rgb(0,0,0)" stroke="none">decontextualized datasets</tspan></tspan></tspan></text>
 <text class="TextShape"><tspan class="TextParagraph" font-family="Liberation Sans, sans-serif" font-size="318px" font-weight="400"><tspan class="TextPosition" x="3282" y="7675"><tspan fill="rgb(0,0,0)" stroke="none">version of WikiPathways nanopublications</tspan></tspan></tspan></text>
 <text class="TextShape" transform="rotate(-90 386 3666)"><tspan class="TextParagraph" font-family="Liberation Sans, sans-serif" font-size="318px" font-weight="400"><tspan class="TextPosition" x="386" y="3666"><tspan fill="rgb(0,0,0)" stroke="none">million triples</tspan></tspan></tspan></text>
</svg>